<svg width="24" height="25" viewBox="0 0 24 25" fill="none" xmlns="http://www.w3.org/2000/svg">
<path d="M14.9454 4.25C16.2169 4.59194 17.3761 5.26196 18.3071 6.19294C19.2381 7.12392 19.9081 8.28319 20.2501 9.55462" stroke="#252525" stroke-width="1.5" stroke-linecap="round" stroke-linejoin="round"/>
<path d="M14.1687 7.14819C14.9316 7.35336 15.6271 7.75537 16.1857 8.31396C16.7443 8.87255 17.1463 9.56811 17.3515 10.331" stroke="#252525" stroke-width="1.5" stroke-linecap="round" stroke-linejoin="round"/>
<path d="M8.66965 12.2012C9.44762 13.7917 10.7369 15.0751 12.3309 15.8458C12.4475 15.901 12.5765 15.925 12.7052 15.9152C12.8339 15.9055 12.9579 15.8624 13.0648 15.7902L15.4119 14.2251C15.5157 14.1559 15.6352 14.1137 15.7594 14.1023C15.8837 14.0909 16.0088 14.1106 16.1235 14.1598L20.5144 16.0416C20.6636 16.105 20.7881 16.2151 20.8693 16.3554C20.9504 16.4957 20.9838 16.6586 20.9643 16.8194C20.8255 17.9054 20.2956 18.9036 19.4739 19.6271C18.6521 20.3505 17.5948 20.7497 16.5 20.7497C13.1185 20.7497 9.87548 19.4064 7.48439 17.0153C5.0933 14.6242 3.75 11.3812 3.75 7.99973C3.75006 6.90489 4.14918 5.84761 4.87264 5.02586C5.5961 4.20411 6.59428 3.67423 7.68028 3.53544C7.84117 3.51597 8.00403 3.54932 8.14432 3.63045C8.28461 3.71159 8.39473 3.83612 8.4581 3.98528L10.3416 8.38008C10.3903 8.49375 10.4101 8.61771 10.3994 8.74092C10.3886 8.86412 10.3475 8.98275 10.2798 9.08623L8.72011 11.4693C8.64912 11.5765 8.60716 11.7003 8.59831 11.8286C8.58947 11.9569 8.61405 12.0852 8.66965 12.2012V12.2012Z" stroke="#252525" stroke-width="1.5" stroke-linecap="round" stroke-linejoin="round"/>
</svg>
