<svg width="30" height="30" viewBox="0 0 30 30" fill="none" xmlns="http://www.w3.org/2000/svg">
<mask id="mask0_281_387" style="mask-type:alpha" maskUnits="userSpaceOnUse" x="0" y="0" width="30" height="30">
<rect width="30" height="30" fill="#D9D9D9"/>
</mask>
<g mask="url(#mask0_281_387)">
<path d="M25.2799 8.31861C21.8394 2.99982 14.815 1.41856 9.36752 4.72484C4.06338 8.03111 2.34312 15.2187 5.78364 20.5375L6.07035 20.9687L4.92351 25.2812L9.22416 24.1312L9.65423 24.4187C11.5178 25.425 13.5248 26 15.5318 26C17.6821 26 19.8324 25.425 21.696 24.275C27.0002 20.825 28.5771 13.7812 25.2799 8.31861V8.31861ZM22.2695 19.3874C21.696 20.25 20.9793 20.825 19.9758 20.9687C19.4024 20.9687 18.6856 21.2562 15.8185 20.1062C13.3815 18.9562 11.3745 17.0874 9.94094 14.9312C9.08081 13.9249 8.65074 12.6311 8.50739 11.3374C8.50739 10.1874 8.93745 9.18112 9.65423 8.46237C9.94094 8.17486 10.2276 8.03111 10.5144 8.03111H11.2311C11.5178 8.03111 11.8046 8.03111 11.9479 8.60612C12.2346 9.32487 12.9514 11.0499 12.9514 11.1936C13.0947 11.3374 13.0947 11.6249 12.9514 11.7686C13.0947 12.0561 12.9514 12.3436 12.808 12.4874C12.6647 12.6311 12.5213 12.9187 12.378 13.0624C12.0913 13.2062 11.9479 13.4937 12.0913 13.7812C12.6647 14.6437 13.3815 15.5062 14.0982 16.2249C14.9584 16.9437 15.8185 17.5187 16.822 17.9499C17.1087 18.0937 17.3954 18.0937 17.5387 17.8062C17.6821 17.5187 18.3989 16.7999 18.6856 16.5124C18.9723 16.2249 19.1157 16.2249 19.4024 16.3687L21.696 17.5187C21.9828 17.6624 22.2695 17.8062 22.4128 17.9499C22.5562 18.3812 22.5562 18.9562 22.2695 19.3874V19.3874Z" fill="white"/>
</g>
</svg>
