<svg width="30" height="30" viewBox="0 0 30 30" fill="none" xmlns="http://www.w3.org/2000/svg">
<mask id="mask0_281_388" style="mask-type:alpha" maskUnits="userSpaceOnUse" x="0" y="0" width="30" height="30">
<rect width="30" height="30" fill="#D9D9D9"/>
</mask>
<g mask="url(#mask0_281_388)">
<path d="M9.57638 25.7739C2.13568 19.9397 2.14674 10.4891 9.57638 4.66359C9.90282 4.40762 10.4087 4.36566 10.7946 4.55479L14.508 6.37471C14.7038 6.47066 14.8504 6.61751 14.9221 6.7896C14.9939 6.9617 14.9862 7.14808 14.9004 7.31618L13.0437 10.9558C12.9644 11.1113 12.8228 11.2423 12.6402 11.3292C12.4576 11.416 12.2439 11.454 12.0314 11.4373L8.83399 11.1866C7.62794 13.8038 7.6531 16.6883 8.83399 19.2508L12.0315 19.0001C12.244 18.9834 12.4577 19.0214 12.6402 19.1082C12.8228 19.1951 12.9645 19.3261 13.0438 19.4816L14.9005 23.1213C14.9862 23.2894 14.9939 23.4757 14.9222 23.6478C14.8505 23.8199 14.7039 23.9668 14.5081 24.0627L10.7946 25.8827C10.6058 25.9752 10.3825 26.0148 10.1613 25.995C9.94002 25.9753 9.73384 25.8973 9.57638 25.7739V25.7739ZM18.1583 7.28882C18.8361 8.18937 18.8361 9.31066 18.1583 10.2112C17.932 10.5119 17.4073 10.5687 17.0859 10.3272L16.7436 10.0699C16.5195 9.90157 16.469 9.6377 16.614 9.42261C16.7536 9.21532 16.8266 8.98444 16.8266 8.75002C16.8266 8.5156 16.7536 8.28472 16.614 8.07742C16.4689 7.86234 16.5195 7.59847 16.7436 7.4301L17.0859 7.17288C17.4073 6.93129 17.932 6.98816 18.1583 7.28882V7.28882ZM23.4169 3.19253C26.8624 6.40912 26.8597 11.0935 23.4169 14.3075C23.1606 14.5468 22.699 14.5656 22.4113 14.3494L22.0791 14.0997C21.8179 13.9034 21.794 13.5818 22.0259 13.364C24.8725 10.6894 24.8702 6.80838 22.0259 4.13602C21.794 3.91815 21.8178 3.5966 22.0791 3.40025L22.4113 3.15062C22.699 2.93441 23.1606 2.95323 23.4169 3.19253V3.19253ZM20.7831 5.21136C22.8484 7.29223 22.8518 10.2044 20.7831 12.2886C20.5316 12.542 20.0556 12.5694 19.7601 12.3472L19.4268 12.0966C19.1747 11.9071 19.1404 11.5982 19.3531 11.3809C20.8734 9.82825 20.8733 7.67164 19.3531 6.11906C19.1404 5.90181 19.1747 5.59298 19.4268 5.4034L19.7601 5.15279C20.0556 4.93056 20.5316 4.95796 20.7831 5.21136V5.21136Z" fill="white"/>
</g>
</svg>
