<svg width="30" height="30" viewBox="0 0 30 30" fill="none" xmlns="http://www.w3.org/2000/svg">
<mask id="mask0_281_389" style="mask-type:alpha" maskUnits="userSpaceOnUse" x="0" y="0" width="30" height="30">
<rect width="30" height="30" fill="#D9D9D9"/>
</mask>
<g mask="url(#mask0_281_389)">
<path d="M14.7292 24.5965C9.05352 16.3684 8 15.5239 8 12.5C8 8.35785 11.3579 5 15.5 5C19.6421 5 23 8.35785 23 12.5C23 15.5239 21.9465 16.3684 16.2708 24.5965C15.8983 25.1345 15.1016 25.1345 14.7292 24.5965ZM15.5 15.625C17.2259 15.625 18.625 14.2259 18.625 12.5C18.625 10.7741 17.2259 9.375 15.5 9.375C13.7741 9.375 12.375 10.7741 12.375 12.5C12.375 14.2259 13.7741 15.625 15.5 15.625Z" fill="white"/>
</g>
</svg>
