<svg width="30" height="30" viewBox="0 0 30 30" fill="none" xmlns="http://www.w3.org/2000/svg">
<mask id="mask0_290_407" style="mask-type:alpha" maskUnits="userSpaceOnUse" x="0" y="0" width="30" height="30">
<rect width="30" height="30" fill="#D9D9D9"/>
</mask>
<g mask="url(#mask0_290_407)">
<path d="M11.09 4H19.91C23.27 4 26 6.73 26 10.09V18.91C26 20.5252 25.3584 22.0742 24.2163 23.2163C23.0742 24.3584 21.5252 25 19.91 25H11.09C7.73 25 5 22.27 5 18.91V10.09C5 8.47483 5.64162 6.92582 6.78372 5.78372C7.92582 4.64162 9.47483 4 11.09 4M10.88 6.1C9.87748 6.1 8.91602 6.49825 8.20714 7.20714C7.49825 7.91602 7.1 8.87748 7.1 9.88V19.12C7.1 21.2095 8.7905 22.9 10.88 22.9H20.12C21.1225 22.9 22.084 22.5018 22.7929 21.7929C23.5018 21.084 23.9 20.1225 23.9 19.12V9.88C23.9 7.7905 22.2095 6.1 20.12 6.1H10.88ZM21.0125 7.675C21.3606 7.675 21.6944 7.81328 21.9406 8.05942C22.1867 8.30556 22.325 8.6394 22.325 8.9875C22.325 9.3356 22.1867 9.66944 21.9406 9.91558C21.6944 10.1617 21.3606 10.3 21.0125 10.3C20.6644 10.3 20.3306 10.1617 20.0844 9.91558C19.8383 9.66944 19.7 9.3356 19.7 8.9875C19.7 8.6394 19.8383 8.30556 20.0844 8.05942C20.3306 7.81328 20.6644 7.675 21.0125 7.675ZM15.5 9.25C16.8924 9.25 18.2277 9.80312 19.2123 10.7877C20.1969 11.7723 20.75 13.1076 20.75 14.5C20.75 15.8924 20.1969 17.2277 19.2123 18.2123C18.2277 19.1969 16.8924 19.75 15.5 19.75C14.1076 19.75 12.7723 19.1969 11.7877 18.2123C10.8031 17.2277 10.25 15.8924 10.25 14.5C10.25 13.1076 10.8031 11.7723 11.7877 10.7877C12.7723 9.80312 14.1076 9.25 15.5 9.25M15.5 11.35C14.6646 11.35 13.8634 11.6819 13.2726 12.2726C12.6819 12.8634 12.35 13.6646 12.35 14.5C12.35 15.3354 12.6819 16.1366 13.2726 16.7274C13.8634 17.3181 14.6646 17.65 15.5 17.65C16.3354 17.65 17.1366 17.3181 17.7274 16.7274C18.3181 16.1366 18.65 15.3354 18.65 14.5C18.65 13.6646 18.3181 12.8634 17.7274 12.2726C17.1366 11.6819 16.3354 11.35 15.5 11.35Z" fill="white"/>
</g>
</svg>
