<svg width="30" height="30" viewBox="0 0 30 30" fill="none" xmlns="http://www.w3.org/2000/svg">
<mask id="mask0_290_406" style="mask-type:alpha" maskUnits="userSpaceOnUse" x="0" y="0" width="30" height="30">
<rect width="30" height="30" fill="#D9D9D9"/>
</mask>
<g mask="url(#mask0_290_406)">
<path d="M24.4453 5.00195C24.186 5.02095 23.9314 5.08224 23.6916 5.18341H23.6883C23.4581 5.27536 22.3634 5.7392 20.6992 6.44228L14.7354 8.97222C10.4561 10.7869 6.24949 12.5739 6.24949 12.5739L6.29958 12.5543C6.29958 12.5543 6.00955 12.6504 5.70659 12.8595C5.51943 12.9795 5.35838 13.1364 5.23318 13.3209C5.08453 13.5406 4.96496 13.8767 5.0094 14.2241C5.0821 14.8117 5.46019 15.164 5.73164 15.3585C6.00632 15.5554 6.26807 15.6474 6.26807 15.6474H6.27453L10.2194 16.986C10.3963 17.5581 11.4215 20.953 11.6679 21.735C11.8133 22.2021 11.9547 22.4943 12.1316 22.7172C12.2173 22.8311 12.3175 22.9264 12.4378 23.0028C12.5004 23.0395 12.5671 23.0685 12.6366 23.0891L12.5962 23.0793C12.6083 23.0826 12.618 23.0924 12.6269 23.0956C12.6592 23.1046 12.681 23.1078 12.7222 23.1143C13.3467 23.3047 13.8484 22.9141 13.8484 22.9141L13.8767 22.8914L16.2058 20.7553L20.1094 23.7718L20.1983 23.8101C21.0118 24.1698 21.8359 23.9696 22.2713 23.6164C22.71 23.2608 22.8805 22.8059 22.8805 22.8059L22.9087 22.7327L25.9254 7.16651C26.011 6.78242 26.0328 6.42275 25.9383 6.07365C25.8408 5.72034 25.6158 5.41647 25.3073 5.22166C25.0483 5.06307 24.748 4.98652 24.4453 5.00195V5.00195ZM24.3637 6.67013C24.3605 6.72139 24.3702 6.7157 24.3476 6.81416V6.82311L21.3592 22.2273C21.3463 22.2493 21.3245 22.2973 21.2647 22.3453C21.2017 22.3958 21.1516 22.4275 20.889 22.3226L16.1145 18.6355L13.2304 21.2834L13.8363 17.3855L21.6371 10.0618C21.9587 9.76074 21.8512 9.69727 21.8512 9.69727C21.8738 9.32782 21.3657 9.58904 21.3657 9.58904L11.529 15.7271L11.5257 15.7109L6.81096 14.1118V14.1086L6.79885 14.1061C6.80711 14.1034 6.8152 14.1001 6.82308 14.0964L6.84893 14.0834L6.87398 14.0744C6.87398 14.0744 11.0838 12.2874 15.3632 10.4728C17.5057 9.56381 19.6643 8.64835 21.3245 7.94201C22.3091 7.52456 23.2947 7.10955 24.2813 6.69698C24.3476 6.67094 24.3161 6.67094 24.3637 6.67094V6.67013Z" fill="white"/>
</g>
</svg>
