<svg width="30" height="30" viewBox="0 0 30 30" fill="none" xmlns="http://www.w3.org/2000/svg">
<mask id="mask0_290_405" style="mask-type:alpha" maskUnits="userSpaceOnUse" x="0" y="0" width="30" height="30">
<rect width="30" height="30" fill="#D9D9D9"/>
</mask>
<g mask="url(#mask0_290_405)">
<path d="M22.0781 7.90755C21.157 6.98215 20.0602 6.24849 18.8515 5.74932C17.6427 5.25014 16.3463 4.99544 15.0377 5.00006C9.55424 5.00006 5.08538 9.44755 5.08036 14.9075C5.08036 16.6563 5.53993 18.3575 6.40758 19.8638L5 25L10.2788 23.6225C11.7391 24.4136 13.3751 24.8283 15.0377 24.8288H15.0427C20.5274 24.8288 24.995 20.3813 25 14.9163C25.0012 13.6138 24.7436 12.324 24.2419 11.1211C23.7402 9.91826 23.0044 8.82609 22.0768 7.90755H22.0781ZM15.0377 23.1513C13.5547 23.1518 12.0991 22.7545 10.8237 22.0013L10.5223 21.8213L7.39076 22.6388L8.22702 19.5975L8.03114 19.2838C7.20217 17.9717 6.76375 16.4526 6.7667 14.9025C6.7667 10.37 10.4797 6.67256 15.0427 6.67256C16.1298 6.67062 17.2065 6.8829 18.2107 7.29717C19.215 7.71144 20.1269 8.3195 20.894 9.0863C21.6638 9.85011 22.274 10.7581 22.6895 11.7578C23.105 12.7576 23.3176 13.8293 23.3149 14.9113C23.3099 19.46 19.5969 23.1513 15.0377 23.1513V23.1513ZM19.5768 16.9838C19.3295 16.86 18.1077 16.2613 17.8779 16.1763C17.6494 16.095 17.4824 16.0525 17.3192 16.3C17.1522 16.5463 16.675 17.1075 16.5319 17.2688C16.3887 17.435 16.2406 17.4538 15.992 17.3313C15.7446 17.2063 14.9422 16.9463 13.993 16.1C13.2521 15.4438 12.7562 14.6313 12.608 14.385C12.4648 14.1375 12.5942 14.005 12.7185 13.8813C12.8277 13.7713 12.9658 13.5913 13.0902 13.4488C13.2157 13.3063 13.2572 13.2013 13.3388 13.0363C13.4204 12.8688 13.3815 12.7263 13.3199 12.6025C13.2572 12.4788 12.7612 11.2575 12.5515 10.765C12.3506 10.2788 12.1459 10.3463 11.9927 10.34C11.8496 10.3313 11.6826 10.3313 11.5156 10.3313C11.3895 10.3344 11.2654 10.3635 11.151 10.4166C11.0367 10.4697 10.9347 10.5458 10.8513 10.64C10.6228 10.8875 9.98368 11.4863 9.98368 12.7075C9.98368 13.9288 10.8752 15.1025 11.0008 15.2688C11.1238 15.435 12.7511 17.9338 15.2486 19.0088C15.8388 19.265 16.3034 19.4163 16.6662 19.5313C17.2627 19.7213 17.8014 19.6925 18.2308 19.6313C18.7079 19.5588 19.7012 19.0313 19.9108 18.4525C20.1168 17.8725 20.1168 17.3775 20.054 17.2738C19.9925 17.1688 19.8255 17.1075 19.5768 16.9838V16.9838Z" fill="white"/>
</g>
</svg>
