<?xml version="1.0" standalone="no"?>
<!DOCTYPE svg PUBLIC "-//W3C//DTD SVG 1.1//EN" "http://www.w3.org/Graphics/SVG/1.1/DTD/svg11.dtd" >
<svg xmlns="http://www.w3.org/2000/svg" xmlns:xlink="http://www.w3.org/1999/xlink" version="1.1">
<metadata>
Created by FontForge 20170731 at Fri Jan  1 02:30:17 1904
 By Aleksey,,,
Converted by ALLTYPE
</metadata>
<defs>
<font id="Century-Schoolbook-Bold" horiz-adv-x="287" >
  <font-face 
    font-family="Century-Schoolbook-Bold"
    font-weight="5"
    font-stretch="normal"
    units-per-em="1000"
    panose-1="0 0 0 0 0 0 0 0 0 0"
    ascent="800"
    descent="-200"
    x-height="477"
    cap-height="722"
    bbox="-157 -230 1000 967"
    underline-thickness="50"
    underline-position="-155"
    unicode-range="U+0020-F002"
  />
<missing-glyph 
 />
    <glyph glyph-name=".notdef" 
 />
    <glyph glyph-name="glyph1" horiz-adv-x="0" 
 />
    <glyph glyph-name="glyph2" 
 />
    <glyph glyph-name="space" unicode=" " 
 />
    <glyph glyph-name="space" unicode="&#xa0;" 
 />
    <glyph glyph-name="exclam" unicode="!" horiz-adv-x="295" 
d="M147 164q38 -1 64 -27t26 -63t-26 -63t-63 -26t-63.5 26t-26.5 63t26 63t63 26v1zM168 216h-41q0 6 -0.5 13t-0.5 13q-2 50 -5.5 100t-18.5 98l-6 20t-7 20q-12 37 -22 76t-10 78q0 44 25.5 72t65.5 28q39 0 64.5 -28t25.5 -72q0 -21 -6.5 -54t-18.5 -74q-13 -44 -21 -77
t-13 -63q-4 -29 -6 -59.5t-4 -71.5q0 -5 -0.5 -10t-0.5 -10v1z" />
    <glyph glyph-name="quotedbl" unicode="&#x22;" horiz-adv-x="333" 
d="M38 436l-25 178l-2 20t-1 20q0 42 15.5 63.5t44.5 21.5q27 0 42 -17t15 -48q0 -10 -1 -20.5t-3 -21.5l-31 -186q-3 -20 -10 -29t-18 -9q-10 0 -17 7.5t-9 19.5v1zM237 436l-25 178q-1 10 -2 20.5t-1 20.5q0 41 15.5 62.5t44.5 21.5q27 0 41.5 -17t14.5 -48
q0 -10 -0.5 -20.5t-2.5 -21.5l-31 -186q-3 -20 -10 -29t-18 -9q-10 0 -17 7.5t-9 19.5v1z" />
    <glyph glyph-name="numbersign" unicode="#" horiz-adv-x="574" 
d="M413 228l-33 -228h-97l33 228h-91l-33 -228h-95l33 228h-107v95h122l14 91h-106v94h119l32 214h93l-30 -214h91l31 214h97l-32 -214h97v-94h-111l-12 -91h95v-95h-110v0zM345 414h-93l-12 -91h90l15 91v0z" />
    <glyph glyph-name="dollar" unicode="$" horiz-adv-x="574" 
d="M309 -13v-91h-45v91q-99 4 -163.5 55t-64.5 124q0 41 21.5 67t55.5 26q35 0 56.5 -23.5t21.5 -61.5q0 -20 -6 -35.5t-14 -26.5q-7 -10 -13.5 -16.5t-6.5 -9.5q0 -16 19 -27t42 -17q15 -5 29.5 -7t22.5 -2v268q-80 25 -139.5 65.5t-59.5 137.5q0 90 54 152.5t145 78.5v81
h45v-80q87 -2 147 -49.5t60 -114.5q0 -36 -20 -57.5t-52 -21.5q-31 0 -52.5 22t-21.5 55q0 4 0.5 7.5t0.5 7.5q2 12 6 23t9 16l3 3l4 4q1 1 2.5 2t2.5 3t2.5 4t1.5 4q0 3 -3.5 8t-8.5 10q-1 2 -3 3.5t-4 3.5q-14 13 -31 18t-43 5v-240q3 -2 5.5 -2.5t5.5 -1.5
q85 -20 155 -70t70 -148q0 -61 -24 -111.5t-68 -79.5q-9 -6 -17.5 -11.5t-16.5 -9.5q-13 -7 -27.5 -12t-34.5 -9q-10 -2 -22 -4.5t-26 -5.5v0zM309 34q59 7 93.5 43t34.5 89q0 50 -31 79t-97 42v-253v0zM264 465v225q-47 -8 -75.5 -40t-28.5 -78q0 -40 27.5 -68.5
t76.5 -39.5v1z" />
    <glyph glyph-name="percent" unicode="%" horiz-adv-x="833" 
d="M665 425q75 -1 124 -64t49 -159q0 -91 -49 -153t-121 -62q-75 0 -124.5 64t-49.5 162q0 90 49 150.5t122 60.5v1zM666 390q-34 -1 -48 -38t-14 -125q0 -112 13.5 -157.5t47.5 -45.5q35 0 49 45.5t14 156.5q0 87 -14.5 125t-47.5 38v1zM175 0l434 711h53l-434 -711h-53v0z
M165 710q75 -1 124 -63.5t49 -158.5q0 -91 -49 -152.5t-121 -61.5q-75 0 -124 64t-49 161q0 89 48.5 149.5t121.5 60.5v1zM166 675q-34 -1 -48 -38t-14 -126q0 -111 13.5 -156.5t47.5 -45.5q35 0 49 45.5t14 155.5q0 88 -14.5 126t-47.5 38v1z" />
    <glyph glyph-name="ampersand" unicode="&#x26;" horiz-adv-x="852" 
d="M838 171q-8 -85 -59 -134.5t-129 -49.5q-10 0 -19.5 1t-18.5 2q-24 5 -51 18t-69 40q-7 -4 -13.5 -7.5t-13.5 -6.5q-43 -22 -87.5 -34.5t-95.5 -12.5q-112 0 -182.5 54t-70.5 142q0 83 56 136.5t123 86.5q4 2 7.5 3.5t6.5 3.5q-14 32 -22 61.5t-9 58.5q-1 5 -1 9.5v9.5
q0 81 60.5 131.5t155.5 50.5q84 0 141.5 -43t57.5 -105q0 -54 -39.5 -87.5t-87.5 -56.5q-17 -8 -33.5 -15t-31.5 -14q35 -58 76 -110.5t85 -103.5q25 31 37.5 60.5t12.5 55.5q0 29 -20 42t-72 16v41h297v-40l-19 -2q-26 -5 -43.5 -12t-33.5 -22q-11 -11 -22.5 -27.5
t-26.5 -39.5q-3 -5 -6 -9.5t-6 -9.5l-30 -46t-33 -45q37 -38 63.5 -55.5t50.5 -17.5q26 0 41.5 20t22.5 62l51 1v0zM447 85q-60 59 -112 128.5t-88 146.5q-31 -16 -45.5 -36t-14.5 -48q0 -14 2.5 -29.5t6.5 -31.5q18 -58 62.5 -107t105.5 -49q8 0 16.5 1t17.5 3
q13 3 25.5 8.5t23.5 12.5v1zM383 467q57 22 86 56.5t29 80.5q0 41 -24.5 66.5t-64.5 25.5q-37 0 -59 -20t-22 -54q0 -6 0.5 -11.5t0.5 -11.5q3 -26 15 -55.5t39 -77.5v1z" />
    <glyph glyph-name="quotesingle" unicode="'" horiz-adv-x="241" 
d="M91 436l-25 178q-1 10 -2 20.5t-1 20.5q0 41 15.5 62.5t44.5 21.5q27 0 42 -17t15 -48q0 -10 -1 -20.5t-3 -21.5l-31 -186q-3 -20 -10 -29t-18 -9q-10 0 -17 7.5t-9 19.5v1z" />
    <glyph glyph-name="parenleft" unicode="(" horiz-adv-x="389" 
d="M346 -138v-30q-109 48 -179.5 154t-89.5 223q-4 21 -5.5 41t-1.5 40q0 143 76 265t200 189v-27q-115 -74 -135 -185t-20 -235q0 -131 12 -207t43 -131q16 -29 37.5 -48.5t46.5 -37.5q4 -2 8 -5l8 -6v0z" />
    <glyph glyph-name="parenright" unicode=")" horiz-adv-x="389" 
d="M43 -138q10 7 19.5 14t17.5 14q34 28 56 60t37 81q14 47 19.5 107.5t5.5 148.5v10v11q0 117 -22 227.5t-133 180.5v29q125 -69 200.5 -190.5t75.5 -264.5q0 -15 -1 -30t-3 -30q-15 -124 -86.5 -235.5t-185.5 -162.5v30v0z" />
    <glyph glyph-name="asterisk" unicode="*" horiz-adv-x="500" 
d="M288 545q10 -6 21 -9.5t22 -5.5l12 -2l12 -2q28 -5 48.5 -14t20.5 -41q0 -19 -13.5 -32t-33.5 -13q-17 0 -28.5 9.5t-20.5 22.5q-4 6 -8.5 12t-8.5 12q-8 11 -18.5 21.5t-25.5 18.5q0 -16 4 -30.5t10 -29.5q5 -15 9 -29.5t4 -30.5q0 -22 -12 -36t-32 -14t-32 14t-12 37
q0 11 2.5 21.5t5.5 21.5q1 4 2.5 7.5t3.5 7.5q5 15 9 30t4 31q-15 -8 -25.5 -18.5t-18.5 -21.5q-5 -6 -9 -12l-8 -12q-10 -13 -21 -22.5t-29 -9.5q-19 0 -33 13t-14 32q0 32 20.5 41t48.5 13q7 2 14 3l14 2l20 6t20 8q-9 5 -18 8t-18 5t-17.5 3.5t-16.5 3.5q-28 4 -47.5 13
t-19.5 41q0 19 14 32t33 13q13 0 22.5 -4.5t19.5 -15.5q3 -4 6 -8.5t6 -9.5q6 -10 11 -17.5t10 -13.5t10 -10t11 -8q3 -2 7 -4.5t8 -4.5q0 15 -4 29.5t-9 29.5q-6 14 -10 28.5t-4 29.5q0 23 12 36.5t32 13.5t32 -13t12 -36q0 -14 -3.5 -27.5t-8.5 -26.5q0 -1 -0.5 -2.5
t-1.5 -2.5q-5 -14 -9 -28.5t-4 -30.5q15 8 25.5 19t19.5 22q4 6 7.5 11t7.5 10q10 14 21.5 24t29.5 10q20 0 33.5 -13t13.5 -32q0 -31 -19.5 -40t-46.5 -14q-9 -1 -17.5 -2.5t-17.5 -4.5q-9 -2 -18 -5t-18 -8v1z" />
    <glyph glyph-name="plus" unicode="+" horiz-adv-x="606" 
d="M241 427v205h125v-205h186v-124h-186v-213h-125v213h-186v124h186v0z" />
    <glyph glyph-name="comma" unicode="," horiz-adv-x="278" 
d="M68 -149l-25 35q8 5 16.5 9.5t17.5 9.5q26 14 47 33.5t21 49.5q0 4 -2.5 6t-7.5 3q-35 5 -55 27t-20 55q0 37 24.5 61.5t60.5 24.5q39 0 64.5 -28t25.5 -72q0 -16 -4 -34t-11 -36q-20 -52 -62 -96t-90 -48v0z" />
    <glyph glyph-name="hyphen" unicode="-" horiz-adv-x="333" 
d="M314 223h-294v118h294v-118v0z" />
    <glyph glyph-name="period" unicode="." horiz-adv-x="278" 
d="M139 163q37 -1 63 -27t26 -63t-26 -62.5t-63 -25.5t-63 25.5t-26 62.5t26 63t63 26v1z" />
    <glyph glyph-name="slash" unicode="/" horiz-adv-x="278" 
d="M369 722l-400 -868h-118l400 868h118v0z" />
    <glyph glyph-name="zero" unicode="0" horiz-adv-x="574" 
d="M285 735q121 -1 199.5 -109t78.5 -272q0 -89 -23 -157.5t-71 -122.5q-39 -43 -84 -65t-95 -22q-121 0 -200 109.5t-79 277.5q0 92 24.5 160.5t76.5 121.5q28 28 62 47t70 26q10 3 20.5 4t20.5 1v1zM287 693q-60 -1 -85.5 -68.5t-25.5 -227.5v-4v-4q0 -34 2 -72t6 -96
q7 -103 30 -146.5t71 -43.5q62 0 87.5 82t25.5 283q0 89 -6 140t-21 91q-12 30 -34.5 47.5t-49.5 17.5v1z" />
    <glyph glyph-name="one" unicode="1" horiz-adv-x="463" 
d="M316 711v-580q0 -50 7 -63.5t32 -17.5q16 -3 44.5 -4.5t59.5 -1.5v-44h-448v45h27q77 -1 96.5 12t19.5 63v404q0 53 -14 66t-72 13h-16.5h-13.5q-6 0 -12 0.5t-15 0.5v45q12 0 24.5 1t24.5 3q54 6 106 18t99 39l51 1v0z" />
    <glyph glyph-name="two" unicode="2" horiz-adv-x="574" 
d="M551 0h-537v47l201 221q12 12 24.5 26.5t25.5 30.5q31 37 59 80.5t43 87.5q6 18 9.5 36t3.5 35q0 62 -31 95t-88 33q-41 0 -76 -21.5t-47 -54.5l-4 -8t-2 -9q0 -3 2 -4.5t6 -1.5l1 1q35 -1 59.5 -22.5t24.5 -58.5q0 -36 -26 -61.5t-63 -25.5q-43 0 -71 30.5t-28 76.5
q0 85 74 143t181 58q119 0 189.5 -55.5t70.5 -148.5q0 -48 -23.5 -92t-72.5 -88q-13 -11 -28.5 -23t-32.5 -24l-121 -82l-85 -64l-23 -15h207q77 -1 99.5 19t33.5 79q1 7 2.5 13.5t2.5 13.5l40 1v-268v0z" />
    <glyph glyph-name="three" unicode="3" horiz-adv-x="574" 
d="M362 390q79 -14 136 -62t57 -135q0 -91 -75.5 -148.5t-194.5 -57.5q-102 0 -177.5 52.5t-75.5 125.5q0 41 25 68.5t62 27.5q38 0 64.5 -27.5t26.5 -67.5q0 -22 -8 -36.5t-18 -23.5t-18 -13.5t-8 -6.5q0 -4 5.5 -10.5t14.5 -14.5q3 -1 5 -3t5 -4q15 -11 34 -17t39 -6
q59 0 91 43.5t32 124.5q0 76 -24 116.5t-68 40.5q-9 0 -17 -1t-16 -3q-9 -1 -17 -2.5t-17 -1.5q-15 0 -25 10t-10 25t8 23t22 8q8 0 16 -1.5t16 -3.5q7 -3 15 -4.5t16 -1.5q41 0 64.5 42.5t23.5 115.5q0 61 -28.5 96t-76.5 35q-7 0 -18 -2.5t-23 -7.5q-19 -7 -34.5 -18.5
t-15.5 -23.5v-1t1 -1q0 -1 1 -2t2 -1q1 -1 2.5 -1.5t3.5 -1.5q13 -7 23.5 -24t14.5 -35q0 -4 0.5 -7.5t0.5 -6.5q0 -32 -20.5 -54.5t-49.5 -22.5q-37 0 -61.5 26.5t-24.5 66.5q0 70 64.5 114.5t164.5 44.5q102 0 164 -48t62 -126q0 -73 -47.5 -115t-113.5 -56v1z" />
    <glyph glyph-name="four" unicode="4" horiz-adv-x="574" 
d="M557 174h-126v-25q0 -57 6 -74.5t26 -24.5q7 -2 15 -3.5t17 -1.5h12h13q6 -1 12 -1h12v-44h-381v45h20q45 1 60 4.5t22 15.5q1 1 1.5 2.5t1.5 2.5q5 10 6.5 25t1.5 53v26h-276v63l371 474h60v-483h126v-54v0zM276 228v284l-224 -284h224v0z" />
    <glyph glyph-name="five" unicode="5" horiz-adv-x="574" 
d="M129 416q26 24 71.5 38.5t96.5 14.5q110 0 179 -63.5t69 -163.5q0 -106 -81 -180.5t-196 -74.5q-97 0 -168 53t-71 126q0 41 27.5 69t67.5 28q38 0 62.5 -25.5t24.5 -63.5q0 -28 -11.5 -43.5t-25.5 -23.5q-14 -7 -25 -9.5t-13 -4.5v0v0q0 -1 2.5 -4.5t6.5 -10.5
q17 -23 44 -36.5t58 -13.5q64 0 96.5 51t32.5 150q0 97 -32 142.5t-100 45.5q-8 0 -15.5 -0.5t-15.5 -2.5q-21 -4 -42 -13t-38 -23q-8 -5 -12 -13.5t-6 -17.5q0 -2 -0.5 -3t-0.5 -2q-3 -14 -9 -24t-23 -10q-13 0 -21.5 9.5t-8.5 24.5q0 13 6.5 22.5t19.5 16.5l10 341
q62 -17 110.5 -25t93.5 -9h7.5h7.5q74 0 114 7t72 26q-24 -85 -73 -123t-140 -38q-33 0 -59 3t-51 10q-10 2 -20 5.5t-21 7.5v-170v0z" />
    <glyph glyph-name="six" unicode="6" horiz-adv-x="574" 
d="M167 334q28 54 75 85t109 31q86 0 147.5 -64t61.5 -154q0 -100 -77.5 -172.5t-184.5 -72.5q-128 0 -207.5 100t-79.5 263q0 131 53 223t153 135q20 9 40.5 14.5t41.5 8.5q10 2 20.5 2.5t20.5 0.5q78 0 130 -38t52 -96q0 -40 -25 -66.5t-63 -26.5q-35 0 -60.5 25t-25.5 60
v4.5t1 4.5q1 16 9 30.5t19 22.5l4.5 3t1.5 2q1 1 1 1.5v1.5q0 8 -13 15.5t-28 11.5q-6 1 -12.5 2t-11.5 1q-41 0 -75.5 -30.5t-50.5 -80.5q-12 -36 -17 -74.5t-6 -77.5q-1 -13 -1 -26.5t-1 -26.5q0 -11 -0.5 -21.5t-0.5 -21.5v1zM292 378q-49 -1 -77.5 -47t-28.5 -126
q0 -76 30.5 -125t77.5 -49q48 0 73 46t25 136q0 76 -26.5 120t-73.5 44v1z" />
    <glyph glyph-name="seven" unicode="7" horiz-adv-x="574" 
d="M541 659q-82 -132 -125.5 -248t-43.5 -202q0 -12 1 -24.5t2 -24.5q0 -13 1 -25.5t1 -24.5q0 -57 -26.5 -90t-71.5 -33q-41 0 -67.5 27t-26.5 70q0 52 24 101t52 95q9 14 17.5 27.5t16.5 26.5l74 120q12 19 21 33.5t17 26.5q1 1 1.5 2.5t1.5 2.5q7 11 15 22.5t18 26.5
l-240 1q-62 -1 -83 -16t-35 -76q-1 -6 -2.5 -13t-2.5 -14q0 -2 -0.5 -4.5t-1.5 -6.5q0 -2 -0.5 -4t-0.5 -4l-45 1l34 290q54 -7 108.5 -11t109.5 -5q32 0 64 1t65 3q32 2 64 4.5t64 6.5v-62v0z" />
    <glyph glyph-name="eight" unicode="8" horiz-adv-x="574" 
d="M409 418q69 -27 106 -77t37 -125q0 -107 -77.5 -168t-211.5 -61q-14 0 -29 1t-30 3q-73 9 -133.5 49.5t-60.5 125.5q0 65 44.5 105.5t99.5 61.5q-56 29 -82.5 70.5t-26.5 105.5q0 100 68 162.5t176 62.5q95 0 160 -47t65 -115q0 -34 -12.5 -61.5t-40.5 -54.5
q-11 -9 -24 -19t-28 -20v1zM213 309q-6 -5 -11.5 -9t-11.5 -8q-29 -24 -41 -49t-12 -61q0 -69 41 -110t109 -41q65 0 107.5 36t42.5 90q0 64 -44 89t-98 39q-5 1 -11 2.5t-12 2.5q-15 4 -30.5 8.5t-28.5 9.5v1zM346 441q18 25 28 44.5t15 38.5q3 10 4 21t1 23
q0 54 -33.5 87.5t-88.5 33.5q-50 0 -83.5 -31.5t-33.5 -78.5q0 -59 40.5 -84t89.5 -38q7 -2 14.5 -4t15.5 -4t16 -4.5t15 -4.5v1z" />
    <glyph glyph-name="nine" unicode="9" horiz-adv-x="574" 
d="M407 393q-29 -62 -76.5 -92.5t-112.5 -30.5q-90 0 -148.5 63.5t-58.5 161.5q0 104 72.5 171.5t184.5 67.5q128 0 210 -100.5t82 -257.5q0 -163 -95 -276t-232 -113q-79 0 -132 39.5t-53 98.5q0 40 25.5 66t63.5 26t62.5 -25t24.5 -63q0 -15 -4 -27.5t-9 -21.5
q-5 -10 -9 -16t-4 -9q0 -7 9.5 -11.5t21.5 -8.5q9 -2 16.5 -3t11.5 -1q44 0 73.5 29.5t43.5 87.5q10 37 16 75.5t9 76.5q3 23 4.5 46t3.5 46v1zM274 693q-48 -1 -73 -42t-25 -121q0 -85 28 -136t74 -51q47 0 71 41.5t24 118.5q0 89 -26 139t-73 50v1z" />
    <glyph glyph-name="colon" unicode=":" horiz-adv-x="278" 
d="M139 164q38 -1 64 -27t26 -63t-26 -63t-64 -26q-37 0 -63 26t-26 63t26 63t63 26v1zM139 475q37 -1 63 -27t26 -63t-26 -63t-63 -26t-63 26t-26 63t26 63t63 26v1z" />
    <glyph glyph-name="semicolon" unicode=";" horiz-adv-x="278" 
d="M68 -156l-25 35q8 4 19 10.5t22 14.5q23 16 42 37.5t19 45.5q0 5 -4.5 7.5t-11.5 4.5q-6 1 -12.5 2.5t-13.5 5.5q-16 6 -29.5 21.5t-13.5 49.5q0 37 24.5 62t60.5 25q39 0 64.5 -28.5t25.5 -71.5q0 -68 -46.5 -130.5t-120.5 -90.5v0zM146 474q37 -1 63 -27t26 -63
t-26 -63t-63 -26t-63 26t-26 63t26 63t63 26v1z" />
    <glyph glyph-name="less" unicode="&#x3c;" horiz-adv-x="606" 
d="M555 184v-119l-503 242v105l503 245v-120l-357 -179l357 -174v0z" />
    <glyph glyph-name="equal" unicode="=" horiz-adv-x="606" 
d="M551 314v-123h-497v123h497v0zM551 524v-123h-497v123h497v0z" />
    <glyph glyph-name="greater" unicode="&#x3e;" horiz-adv-x="606" 
d="M53 184l354 174l-354 179v120l498 -245v-105l-498 -242v119v0z" />
    <glyph glyph-name="question" unicode="?" horiz-adv-x="500" 
d="M228 157q36 -1 61 -26t25 -61q0 -35 -25.5 -60t-60.5 -25t-60.5 25t-25.5 60q0 36 25.5 61t60.5 25v1zM240 222h-44q0 53 17 95.5t38 80.5q3 6 6.5 12t6.5 12q17 32 29.5 65.5t12.5 72.5q0 56 -28 91.5t-72 35.5q-5 0 -13.5 -2t-17.5 -5q-14 -5 -25 -13t-11 -18
q0 -1 8 -7t18 -16q10 -11 18 -26t8 -35q0 -37 -22 -59t-58 -22q-35 0 -58.5 27t-23.5 67q0 65 64 110.5t158 45.5q92 0 152.5 -51t60.5 -128q0 -64 -33 -100t-73 -66q-2 -1 -3.5 -2.5l-2.5 -2.5q-40 -29 -73.5 -65t-38.5 -98v1z" />
    <glyph glyph-name="at" unicode="@" horiz-adv-x="747" 
d="M644 189h81q-10 -19 -18.5 -33t-17.5 -26q-9 -13 -18.5 -23.5t-21.5 -20.5q-7 -6 -14.5 -12t-16.5 -13q-50 -38 -103.5 -56t-112.5 -18q-164 0 -273 105t-109 264q0 160 108 269t265 109q140 0 237 -86.5t97 -211.5v-8.5v-8.5q-3 -40 -14 -77.5t-29 -65.5q-3 -4 -6 -8.5
t-6 -8.5q-31 -41 -79 -75.5t-100 -34.5q-34 0 -51.5 20.5t-25.5 67.5q-22 -33 -51.5 -57.5t-71.5 -24.5q-57 0 -96.5 43.5t-39.5 104.5q0 92 67.5 164t153.5 72q33 0 55 -16.5t30 -48.5l15 57h119l-79 -293q-1 -4 -2 -7.5t-2 -6.5q0 -3 -0.5 -6.5t-0.5 -6.5q0 -13 3 -18.5
t11 -5.5q11 0 25.5 10.5t30.5 27.5q11 13 22 28.5t20 32.5q9 16 16 33t12 35q6 20 9 39.5t3 38.5q0 94 -77.5 163t-184.5 69q-136 0 -223 -85t-87 -221q0 -132 90.5 -217t230.5 -85q73 0 131 38t99 94v1zM396 502q-32 -1 -57 -43t-41 -92q-10 -33 -15.5 -63.5t-5.5 -49.5
q0 -28 10.5 -44.5t28.5 -16.5q35 0 61.5 40t41.5 87q11 33 16.5 62.5t5.5 47.5q0 32 -12.5 51.5t-32.5 19.5v1z" />
    <glyph glyph-name="A" unicode="A" horiz-adv-x="759" 
d="M460 220h-264q-3 -10 -7.5 -20.5t-8.5 -21.5q-2 -5 -4 -9.5t-3 -9.5q-6 -15 -10 -30t-4 -27q0 -30 21 -41t47 -14l18 -2t17 -1h0.5h1.5v-44h-257v45q31 1 52.5 18t34.5 49l250 625h63l276 -651q11 -26 27 -34t41 -8v-44h-321v45q2 -1 4 -1h4q24 1 44.5 8.5t20.5 38.5
q0 11 -5.5 28.5t-12.5 36.5q-1 3 -2.5 6.5t-2.5 7.5q-6 14 -11.5 27t-8.5 22v1zM441 270l-115 299l-111 -299h226v0z" />
    <glyph glyph-name="B" unicode="B" horiz-adv-x="778" 
d="M505 377q16 -3 33.5 -6t34.5 -7q68 -15 124.5 -53.5t56.5 -117.5q0 -89 -65 -131t-143 -55q-25 -4 -49.5 -5.5t-47.5 -1.5h-433v45q74 -1 89.5 15.5t15.5 87.5v425q0 77 -18 90t-87 13v46h415q143 -1 209 -41.5t66 -127.5q0 -72 -49.5 -115t-151.5 -62v1zM286 350v-244
q0 -39 10 -50.5t44 -11.5l76 1q73 -1 115.5 40.5t42.5 111.5q0 74 -46 113t-132 39l-110 1v0zM286 400h108q69 -1 111.5 34t42.5 107q0 65 -36.5 100t-105.5 35l-67 1q-37 -1 -45 -9t-8 -45v-223v0z" />
    <glyph glyph-name="C" unicode="C" horiz-adv-x="778" 
d="M734 244q-3 -15 -6.5 -27t-6.5 -23q-6 -21 -12.5 -36.5t-15.5 -29.5q-4 -7 -9 -14t-11 -15q-43 -55 -108.5 -83.5t-150.5 -28.5q-167 0 -274.5 99t-107.5 270q0 161 110.5 269.5t273.5 108.5q52 0 92 -8.5t77 -28.5q6 -3 11.5 -6t11.5 -7l55 51h40l15 -289h-42
q-3 7 -5.5 15t-5.5 16q-30 81 -83 148t-151 67q-100 0 -156 -86t-56 -241q0 -17 0.5 -35t2.5 -36q8 -99 53 -182.5t167 -83.5q54 0 103.5 23t83.5 64l10 12t9 12q9 14 16 28.5t14 33.5q3 9 6 19.5t6 22.5l44 1v0z" />
    <glyph glyph-name="D" unicode="D" horiz-adv-x="833" 
d="M14 677v45h417q176 -1 272.5 -92.5t96.5 -257.5q0 -175 -95.5 -273.5t-264.5 -98.5h-426v45q73 -1 89 16t16 87v425q0 77 -18 90t-87 13v1zM342 677q-40 -1 -50.5 -8.5t-10.5 -37.5v-528q0 -38 9.5 -48.5t42.5 -10.5l62 1q112 -1 171 77.5t59 226.5q0 18 -1 37t-3 39
q-12 94 -60.5 172.5t-158.5 78.5l-60 1v0z" />
    <glyph glyph-name="E" unicode="E" horiz-adv-x="759" 
d="M702 0h-689v45q73 -1 89 16t16 87v425q0 77 -18 90t-87 13v46h681l8 -237h-41q-28 103 -71.5 147t-117.5 44l-89 1q-67 -1 -85 -9.5t-18 -40.5v-229h83q50 -1 81 35.5t41 109.5l41 1v-345h-41q-5 46 -17 76.5t-33 51.5q-3 3 -5.5 5t-5.5 4q-12 10 -26.5 13t-40.5 3l-77 1
v-246q0 -41 17.5 -52t78.5 -11l99 1q81 -1 121.5 54.5t63.5 121.5q4 12 7.5 24t6.5 23l42 1l-14 -269v0z" />
    <glyph glyph-name="F" unicode="F" horiz-adv-x="722" 
d="M278 352v-203q0 -56 6 -74.5t26 -24.5q8 -2 16 -3.5t17 -1.5h12h12q6 -1 12 -1h12v-44h-380v45q73 -1 89 16t16 87v425q0 77 -18 90t-87 13v46h678l19 -244h-48q-1 2 -2.5 5.5t-2.5 7.5q-24 69 -64 127t-126 58l-122 1q-43 -1 -54 -9.5t-11 -43.5v-227q82 -1 131 25.5
t56 116.5l52 1v-349h-52q-12 74 -44 117t-115 43l-28 1v0z" />
    <glyph glyph-name="G" unicode="G" horiz-adv-x="833" 
d="M740 0h-44l-47 91q-46 -55 -103.5 -79.5t-134.5 -24.5q-12 0 -23.5 0.5t-22.5 2.5q-56 6 -110 26t-97 52q-61 45 -93 116.5t-32 162.5q0 170 106.5 278.5t274.5 108.5q62 0 120.5 -12.5t114.5 -38.5l31 52h39l21 -283h-44q-31 91 -87.5 165.5t-166.5 74.5
q-125 0 -176.5 -88t-58.5 -193q-1 -11 -1.5 -23t-0.5 -23q0 -160 54.5 -248.5t154.5 -88.5q75 0 126.5 45.5t51.5 111.5v48q0 33 -6.5 41.5t-33.5 8.5l-58 1v45h329v-45h-36q-32 -1 -39.5 -9.5t-7.5 -45.5v-229v0z" />
    <glyph glyph-name="H" unicode="H" horiz-adv-x="870" 
d="M593 350h-319v-201q0 -75 16 -90t86 -15v-44h-369v45q74 -1 89.5 15.5t15.5 87.5v425q0 66 -11 83.5t-53 18.5h-10t-10 1h-11h-10v46h369v-45q-4 -1 -8.5 -1h-9.5q-4 -1 -8.5 -1h-9.5q-43 -1 -54.5 -18.5t-11.5 -84.5v-172h319v173q0 67 -11 84t-53 18h-9.5t-9.5 1h-9.5
h-9.5v46h372v-45q-5 -1 -10 -1h-10q-5 -1 -10 -1h-10q-43 -1 -54 -18.5t-11 -84.5v-423q0 -67 11 -85t54 -19h10h10q5 -1 10 -1h10v-44h-372v45h6q72 1 84 17t12 86v202v0z" />
    <glyph glyph-name="I" unicode="I" horiz-adv-x="444" 
d="M35 677v45h375v-45q-5 -1 -10 -1h-10q-5 -1 -10 -1h-10q-43 -1 -54 -18.5t-11 -84.5v-423q0 -78 17.5 -91.5t87.5 -13.5v-44h-375v45q74 -1 89.5 15.5t15.5 87.5v425q0 66 -11 83.5t-54 18.5h-10t-10 1h-10h-10v1z" />
    <glyph glyph-name="J" unicode="J" horiz-adv-x="648" 
d="M240 722h398v-45h-14q-60 -1 -74 -17.5t-14 -87.5v-315q0 -138 -88 -204t-218 -66q-116 0 -183 51.5t-67 139.5q0 64 33 103.5t86 39.5q44 0 72.5 -27t28.5 -68q0 -40 -27 -65.5t-69 -25.5h-6.5t-7.5 1q-7 1 -14 3t-11 4q-6 2 -9 3.5t-5 1.5h-0.5h-1.5q-2 -1 -3.5 -2.5
t-1.5 -3.5q0 -44 34 -71t74 -37q12 -3 24 -4.5t23 -1.5q92 0 132 54.5t40 138.5v352q0 64 -16 83.5t-69 19.5l-46 1v45v0z" />
    <glyph glyph-name="K" unicode="K" horiz-adv-x="815" 
d="M359 354l-82 -81v-124q0 -74 16.5 -89.5t85.5 -15.5v-44h-369v45q73 -1 89 16t16 87v425q0 77 -18 90t-87 13v46h369v-45q-4 -1 -9 -1h-9q-5 -1 -9.5 -1h-9.5q-42 -1 -53.5 -19t-11.5 -84v-232l244 243q14 13 20.5 25.5t6.5 24.5q0 25 -19.5 33t-43.5 9q-5 0 -10.5 0.5
t-10.5 0.5h-1.5h-1.5h-8h-8v46h320v-45l-22 -3q-24 -4 -40.5 -8.5t-30.5 -13.5q-9 -5 -18.5 -13.5t-21.5 -19.5l-163 -156l247 -369q2 -3 3.5 -5.5t2.5 -4.5q17 -22 36 -30.5t55 -9.5v-44h-368v45h18q41 0 55 5t14 19q0 6 -4.5 15t-16.5 28l-152 242v0z" />
    <glyph glyph-name="L" unicode="L" horiz-adv-x="722" 
d="M703 0h-692v45q73 -1 89 16t16 87v425q0 77 -18 90t-87 13v46h374v-45h-12q-46 -2 -61 -5.5t-23 -16.5q-1 -1 -2 -2.5t-1 -3.5q-6 -10 -7 -24.5t-1 -52.5v-457q0 -46 19 -58.5t88 -12.5l73 1q101 -1 150 66.5t71 154.5l40 1l-16 -267v0z" />
    <glyph glyph-name="M" unicode="M" horiz-adv-x="981" 
d="M187 666v-479q0 -77 26.5 -109t90.5 -34v-44h-267v45q53 1 76.5 34t23.5 107v387q0 76 -16.5 89.5t-85.5 13.5v46h296l182 -465l159 465h300v-45h-14q-65 -2 -78 -17t-13 -88v-423q0 -67 11.5 -85t53.5 -19h10h10q5 -1 10 -1h10v-44h-362v45q75 -1 88.5 17.5t13.5 85.5
v518l-229 -666h-33l-263 666v0z" />
    <glyph glyph-name="N" unicode="N" horiz-adv-x="833" 
d="M300 0h-293v45q71 3 98.5 37t27.5 104v354q0 85 -22.5 110t-99.5 26v46h262l381 -470v283q0 77 -25 108t-92 33v46h284v-45q-61 -5 -89 -38.5t-28 -104.5v-534h-50l-471 582v-395q0 -65 23.5 -104t93.5 -39v-44v0z" />
    <glyph glyph-name="O" unicode="O" horiz-adv-x="833" 
d="M417 735q153 -1 266.5 -115t113.5 -268q0 -101 -54.5 -191.5t-143.5 -135.5q-38 -19 -84.5 -28.5t-97.5 -9.5q-108 0 -188.5 41.5t-133.5 125.5q-29 45 -44 95.5t-15 102.5q0 154 113.5 268t267.5 114v1zM419 693q-103 -1 -153 -87t-50 -262q0 -160 49.5 -238t152.5 -78
q111 0 150 76t46 166q2 23 2.5 45.5t0.5 43.5q0 166 -50 249.5t-148 83.5v1z" />
    <glyph glyph-name="P" unicode="P" horiz-adv-x="759" 
d="M276 312v-163q0 -77 17 -91t88 -14v-44h-372v45q73 -1 89 16t16 87v425q0 77 -18 90t-87 13v46h445q84 -1 133 -8.5t89 -26.5q52 -24 80.5 -65t28.5 -92q0 -105 -74.5 -151.5t-163.5 -60.5q-27 -4 -53.5 -5.5t-50.5 -1.5l-167 1v0zM276 362h89q61 -1 97 5t67 22
q36 18 58.5 55t22.5 79q0 71 -51.5 112t-141.5 41l-72 1q-43 -1 -56 -12t-13 -46v-257v0z" />
    <glyph glyph-name="Q" unicode="Q" horiz-adv-x="833" 
d="M816 -12q-10 -62 -42.5 -107.5t-105.5 -45.5q-74 0 -105 49t-41 114q-12 -3 -21.5 -5.5t-17.5 -3.5t-17 -1.5t-20 -0.5q-14 0 -29 1t-31 3q-25 3 -48.5 7.5t-41.5 10.5q-114 38 -188.5 141.5t-74.5 223.5q0 154 110.5 257t265.5 103q164 0 280.5 -99.5t116.5 -239.5
q0 -116 -41 -205t-121 -143q5 -10 11 -26t14 -33q13 -26 28.5 -48.5t35.5 -22.5q16 0 25.5 15.5t16.5 55.5h41v0zM513 49q1 10 1 17v13v1.5v1.5v6.5v6.5q-1 57 -18.5 104.5t-89.5 47.5q-53 0 -85.5 -31t-32.5 -83t35.5 -78.5t104.5 -26.5q17 0 28 1t22 4q7 2 15.5 5.5
t19.5 9.5v1zM606 146q13 49 19 104t6 116q0 20 -1 41.5t-3 43.5q-10 90 -53.5 165.5t-150.5 75.5t-161 -82t-54 -246q0 -60 5.5 -108t17.5 -94q1 -4 2.5 -8.5t2.5 -8.5q7 74 52 113t122 39q73 0 122 -38t74 -114v1z" />
    <glyph glyph-name="R" unicode="R" horiz-adv-x="815" 
d="M833 163q-3 -73 -39.5 -124.5t-118.5 -51.5q-44 0 -80.5 21t-52.5 57q-5 10 -8.5 19.5t-5.5 19.5q-8 27 -10.5 53t-4.5 50q-4 63 -24 105.5t-117 42.5l-94 1v-207q0 -75 17.5 -90t87.5 -15v-44h-372v45q73 -1 89 14.5t16 88.5v425q0 77 -17.5 90t-87.5 13v46h467
q19 -1 40 -2t42 -4q72 -9 132.5 -45.5t60.5 -122.5q0 -82 -58.5 -123t-128.5 -55q-6 -1 -12.5 -2t-12.5 -2q64 -8 96.5 -43t47.5 -95q2 -10 6 -29t9 -39q8 -29 20 -53.5t30 -24.5q19 0 29 20t14 60l40 1v0zM278 406h118q97 -1 139.5 33.5t42.5 113.5q0 62 -30.5 92.5
t-92.5 30.5l-72 1q-69 -1 -87 -10.5t-18 -45.5v-215v0z" />
    <glyph glyph-name="S" unicode="S" horiz-adv-x="667" 
d="M585 460h-41q-45 124 -97.5 178t-129.5 54q-60 0 -100.5 -31.5t-40.5 -78.5q0 -57 53 -81.5t122 -42.5q9 -2 17.5 -4.5t16.5 -4.5q45 -12 87.5 -27.5t72.5 -41.5t45.5 -66t15.5 -91q0 -103 -67.5 -169.5t-171.5 -66.5q-56 0 -108.5 19t-98.5 51l-62 -57h-44v279h44
q10 -29 18.5 -51t16.5 -40q13 -27 26.5 -46.5t31.5 -37.5l2 -2l2 -2q29 -29 65 -47t74 -23q7 -1 14 -1.5t14 -0.5q58 0 97.5 33t39.5 81q0 44 -29.5 73t-88.5 44l-106 28q-100 24 -153 81.5t-53 139.5q0 94 67 160t163 66q59 0 107 -15t92 -47l46 50h41v-262v0z" />
    <glyph glyph-name="T" unicode="T" horiz-adv-x="722" 
d="M670 451q-4 14 -9 30.5t-11 33.5q-21 61 -59.5 112t-110.5 51q-25 0 -33 -10t-8 -42v-477q0 -73 15.5 -88t90.5 -17l25 1v-45h-424v45h36q67 0 81 15.5t14 87.5v479q0 31 -8 41t-34 10q-72 0 -110.5 -51t-59.5 -112q-6 -17 -11 -33.5t-9 -31.5l-41 1l14 271h680l14 -271
h-42v0z" />
    <glyph glyph-name="U" unicode="U" horiz-adv-x="833" 
d="M548 677v45h276v-45h-8q-56 -1 -74 -28.5t-18 -114.5v-271q0 -60 -7.5 -97.5t-26.5 -67.5q-33 -54 -99.5 -82.5t-157.5 -28.5q-89 0 -162 26.5t-109 72.5q-24 31 -35.5 76t-11.5 108v303q0 75 -17 89t-85 14v46h366v-45h-13q-61 -1 -75 -17.5t-14 -87.5v-274
q0 -104 38 -185.5t160 -81.5q101 0 150 58t49 153v293q0 79 -20 110t-106 31v1z" />
    <glyph glyph-name="V" unicode="V" horiz-adv-x="759" 
d="M411 -10h-56l-264 630q-1 1 -2 3l-2 4q-13 30 -30 37.5t-50 11.5h-1.5h-1.5v46h331v-45q-3 -1 -7 -1t-9 -1h-10t-10 -1q-16 -1 -28.5 -5.5t-12.5 -17.5q0 -6 3.5 -18t10.5 -30l166 -429l155 371q2 3 3 7t3 8q4 14 6.5 27t2.5 22q0 37 -27 52t-91 15v46h265v-45
q-29 -3 -53 -24t-39 -57l-252 -606v0z" />
    <glyph glyph-name="W" unicode="W" horiz-adv-x="981" 
d="M691 -9h-53l-154 484l-152 -484h-53l-195 619q-2 5 -3.5 9.5t-3.5 9.5q-10 27 -24.5 36t-48.5 11v46h294v-45h-13q-27 -2 -38 -9t-11 -25v-3.5v-3.5q1 -7 3.5 -16.5t8.5 -30.5l109 -370l99 338q-4 12 -7.5 23.5t-6.5 21.5q-11 35 -29.5 52t-71.5 22v46h318v-45l-17 -2
q-27 -3 -39 -12t-12 -26v-3.5v-3.5q1 -6 3.5 -14.5t8.5 -27.5l115 -369l90 309q8 26 11 42t3 29v1.5v1.5q0 42 -20.5 56t-45.5 17q-8 1 -16 1h-15v46h253v-45q-43 -10 -63.5 -30t-36.5 -69q-1 -1 -1.5 -2.5t-0.5 -2.5l-185 -582v0z" />
    <glyph glyph-name="X" unicode="X" horiz-adv-x="722" 
d="M324 288l-103 -145q-9 -13 -13.5 -24t-4.5 -21q0 -29 20.5 -39.5t45.5 -12.5q7 -1 14 -1t14 -1h4h4v-44h-303v45q37 1 60.5 9.5t43.5 28.5q6 5 12 12.5t13 15.5l167 218l-200 307q-1 1 -2 2.5t-2 2.5q-14 20 -32.5 27t-59.5 8v46h332v-45q-3 -1 -6 -1t-5 1h-6h-6
q-19 0 -29 -5t-10 -15q0 -7 3 -15t9 -18l105 -166l94 129q4 4 7 10.5t6 12.5q2 6 3.5 12.5t1.5 11.5q0 21 -16.5 29t-36.5 10q-7 1 -13.5 1.5t-12.5 0.5q-4 0 -7 0.5t-6 0.5v46h290v-45q-42 -6 -67 -15t-47 -30q-7 -7 -14 -15.5t-15 -19.5l-137 -179l209 -321q2 -4 4 -7
t4 -5q15 -21 33 -29.5t51 -11.5v-44h-331v45q9 -1 18 -0.5t18 1.5q17 1 24 6t7 14q0 4 -1.5 10t-4.5 13q-2 4 -4 7.5t-4 6.5l-118 185v0z" />
    <glyph glyph-name="Y" unicode="Y" horiz-adv-x="722" 
d="M440 329v-180v-49q0 -33 17.5 -43.5t74.5 -12.5l21 1v-45h-381v45h19q3 -1 6.5 -1h6.5q31 1 54 8.5t26 46.5v8t1 11v13.5v16.5v181l-211 319q-10 14 -26.5 19.5t-33.5 6.5q-4 0 -8 0.5t-6 0.5q-5 0 -9 0.5t-8 0.5l-1 46h349v-45h-10q-36 -1 -49.5 -5.5t-13.5 -15.5
q0 -5 3 -12t9 -18l148 -242l123 213q2 3 3.5 6.5t3.5 7.5q2 7 3.5 13.5t1.5 11.5q0 24 -21.5 30.5t-46.5 7.5q-5 1 -9 1h-8h-15t-13 1v46h300v-45q-49 -1 -81 -17.5t-58 -60.5l-161 -270v0z" />
    <glyph glyph-name="Z" unicode="Z" horiz-adv-x="667" 
d="M598 0h-540v45l373 632h-134q-74 -1 -118 -50t-69 -159l-41 1l14 253h515v-45l-367 -632h102q69 -1 107.5 16t66.5 60q19 29 35 68.5t27 82.5l40 1l-11 -273v0z" />
    <glyph glyph-name="bracketleft" unicode="[" horiz-adv-x="389" 
d="M356 -96v-50h-264v868h264v-55h-124v-763h124v0z" />
    <glyph glyph-name="backslash" unicode="\" horiz-adv-x="606" 
d="M80 722h118l400 -868h-118l-400 868v0z" />
    <glyph glyph-name="bracketright" unicode="]" horiz-adv-x="389" 
d="M33 668v50h265v-864h-265v55h125v759h-125v0z" />
    <glyph glyph-name="asciicircum" unicode="^" horiz-adv-x="606" 
d="M367 722l202 -388h-147l-119 243l-119 -243h-147l202 388h128v0z" />
    <glyph glyph-name="underscore" unicode="_" horiz-adv-x="500" 
d="M500 -168h-500v95h500v-95v0z" />
    <glyph glyph-name="grave" unicode="`" horiz-adv-x="333" 
d="M168 540l-127 49q-9 2 -16 5.5t-14 6.5q-22 12 -32 25t-10 30q0 21 15.5 37.5t34.5 16.5q14 0 29 -8t31 -24l113 -116l-24 -22v0z" />
    <glyph glyph-name="a" unicode="a" horiz-adv-x="611" 
d="M370 64q-4 -6 -8.5 -10t-8.5 -8q-35 -34 -74.5 -46.5t-99.5 -12.5q-70 0 -114 32.5t-44 85.5q0 71 60 106.5t132 52.5q39 10 75.5 16t64.5 12h0.5h1.5v59q0 47 -26.5 71.5t-79.5 24.5q-3 0 -16.5 -1.5t-28.5 -4.5q-17 -4 -31.5 -10t-14.5 -15l4.5 -5.5t10.5 -14.5
q5 -9 9.5 -20t4.5 -23q0 -30 -20.5 -50t-50.5 -20t-51.5 21t-21.5 49q0 56 65 96t157 40q64 0 116 -15.5t83 -44.5q4 -3 7 -6.5t6 -6.5q15 -17 20.5 -37t5.5 -54v-214q0 -23 8 -33.5t25 -10.5h5.5t4.5 1q10 2 20.5 8t22.5 17l27 -22q-25 -42 -58.5 -63t-71.5 -21
q-42 0 -70.5 18.5t-45.5 57.5v1zM355 248q-17 -3 -30 -5t-23 -3q-19 -4 -31.5 -7t-23.5 -8q-3 -2 -5.5 -3t-5.5 -3q-23 -13 -39.5 -35.5t-20.5 -46.5q0 -4 -0.5 -7.5t-0.5 -7.5q0 -30 21.5 -49.5t55.5 -19.5q45 0 74 33t29 84v78v0z" />
    <glyph glyph-name="b" unicode="b" horiz-adv-x="648" 
d="M125 0h-49v2t1 3v2v2q4 10 6 28t3 38q0 17 0.5 33t0.5 27v484q0 37 -15.5 48.5t-65.5 11.5l-6 1v42q57 -1 114 3t113 9v-333q29 44 71 66t98 22q101 0 162 -64.5t61 -169.5q0 -121 -69.5 -194.5t-183.5 -73.5q-58 0 -104 21.5t-85 67.5l-52 -76v0zM356 425
q-61 -1 -96.5 -58t-35.5 -156q0 -83 34 -133t92 -50t86.5 53t28.5 161q0 89 -28 135.5t-81 46.5v1z" />
    <glyph glyph-name="c" unicode="c" horiz-adv-x="556" 
d="M542 160q-30 -86 -94 -129.5t-158 -43.5q-117 0 -189 67.5t-72 176.5q0 114 79.5 186t206.5 72q92 0 150.5 -37.5t58.5 -96.5q0 -36 -22 -59t-55 -23t-55 22.5t-22 54.5q0 26 15.5 44t42.5 23q3 1 4.5 2t1.5 2l-0.5 1t-0.5 2q-1 0 -2 1t-2 1q-22 13 -46 19t-50 6
q-88 0 -121 -53.5t-33 -134.5q0 -108 36.5 -162.5t109.5 -54.5q64 0 107.5 38.5t70.5 91.5l39 -16v0z" />
    <glyph glyph-name="d" unicode="d" horiz-adv-x="667" 
d="M583 735v-632q0 -39 10 -50.5t43 -11.5l15 1v-42q-52 0 -104 -3t-104 -10v88q-31 -47 -72 -67.5t-98 -20.5q-106 0 -177 72t-71 180q0 110 71.5 180t182.5 70q57 0 94.5 -16.5t69.5 -55.5v202q0 34 -11 45.5t-49 13.5q-7 1 -13.5 1h-13.5v43q29 -1 57 0t57 3q21 2 42 3.5
t43 3.5q7 0 14 0.5t14 1.5v1zM309 435q-62 -1 -98 -54.5t-36 -146.5q0 -83 34.5 -133t92.5 -50q62 0 99.5 56t37.5 149q0 84 -34 131t-96 47v1z" />
    <glyph glyph-name="e" unicode="e" horiz-adv-x="574" 
d="M541 144q-47 -81 -108.5 -119t-143.5 -38q-112 0 -186 71t-74 180q0 111 76.5 181t197.5 70q104 0 171.5 -63t67.5 -161v-6.5v-7.5q-1 -4 -1 -8v-9l-357 1q4 -72 29.5 -130.5t112.5 -58.5q60 0 104 36t74 84l37 -22v0zM393 277q0 12 -0.5 26t-1.5 28q-5 45 -25.5 82.5
t-74.5 37.5q-55 0 -76.5 -38t-27.5 -84q-1 -13 -2 -27t-2 -26l210 1v0z" />
    <glyph glyph-name="f" unicode="f" horiz-adv-x="389" 
d="M220 435v-291q0 -68 12 -85.5t80 -17.5v-41h-312v42h6q51 -1 62.5 15t11.5 86v292h-76v42h76v37q0 98 59 159t153 61q59 0 96 -30.5t37 -78.5q0 -33 -20 -54.5t-51 -21.5q-30 0 -51 23t-21 54q0 4 0.5 8t1.5 8q2 12 7.5 23t12.5 16q3 2 4 3t2 1v1.5v0.5q0 2 -2.5 3.5
t-7.5 1.5q-41 0 -60.5 -29.5t-19.5 -91.5v-94h120v-42h-120v0z" />
    <glyph glyph-name="g" unicode="g" horiz-adv-x="611" 
d="M122 22q-45 11 -67.5 32.5t-22.5 54.5q0 35 28 60.5t83 42.5q-55 23 -79 52.5t-24 73.5q0 65 61.5 108t154.5 43q53 0 91 -5.5t72 -17.5q26 43 53 62t61 19q32 0 53.5 -17.5t21.5 -43.5q0 -23 -16.5 -39.5t-39.5 -16.5t-38 14.5t-15 36.5v2t1 2v2v2q1 2 1 2.5v1.5
q0 2 -1 3t-3 1q-4 0 -12.5 -9t-16.5 -23q-4 -5 -7 -10.5t-6 -11.5q29 -20 42 -44t13 -55q0 -64 -64.5 -106.5t-164.5 -42.5h-5.5h-8.5q-8 0 -17 -0.5t-19 -1.5q-21 -3 -38.5 -10.5t-17.5 -24.5q0 -14 15 -21.5t43 -7.5q12 0 24 0.5t24 1.5q12 0 24 0.5t24 0.5q18 0 38.5 -1
t41.5 -4q57 -9 104 -37.5t47 -92.5q0 -75 -77 -117t-214 -42q-115 0 -177.5 26.5t-62.5 75.5q0 31 21 49.5t72 31.5v1zM295 11q-76 -1 -117.5 -18.5t-41.5 -50.5q0 -31 39.5 -48.5t107.5 -17.5q69 0 109.5 19.5t40.5 53.5q0 30 -35.5 45.5t-102.5 15.5v1zM276 455
q-43 -1 -68 -32t-25 -84q0 -46 24.5 -74.5t64.5 -28.5q42 0 68.5 31.5t26.5 80.5q0 48 -25 77t-66 29v1z" />
    <glyph glyph-name="h" unicode="h" horiz-adv-x="685" 
d="M325 0h-286v42h9q44 -1 54 15.5t10 85.5v476q0 45 -15 52.5t-53 7.5v43q53 -1 104.5 2.5t103.5 9.5v-354q32 55 79 82t111 27q82 0 126 -45t44 -129v-171q0 -70 10.5 -86.5t55.5 -16.5l14 1v-42h-273v42q35 -1 43.5 14t8.5 47l1 41v166q0 52 -19.5 74.5t-64.5 22.5
q-57 0 -96.5 -43t-39.5 -105v-115v-14v-12q1 -38 11 -57.5t62 -19.5v-41v0z" />
    <glyph glyph-name="i" unicode="i" horiz-adv-x="370" 
d="M45 0v42h14q45 -1 55.5 15.5t10.5 85.5v231q0 40 -10 50t-50 10l-20 1v42q27 -1 54.5 0t55.5 3q28 1 55.5 3.5t54.5 5.5v-345q0 -71 10.5 -87t54.5 -16l15 1v-42h-300v0zM193 735q33 -1 56.5 -24.5t23.5 -56.5q0 -32 -23.5 -55.5t-56.5 -23.5t-56 23.5t-23 56.5
q0 32 23.5 55.5t55.5 23.5v1z" />
    <glyph glyph-name="j" unicode="j" horiz-adv-x="352" 
d="M268 490v-313q0 -85 -14 -147.5t-42 -104.5q-21 -32 -52.5 -56.5t-65.5 -35.5q-12 -5 -24 -7t-24 -2q-34 0 -56 18.5t-22 47.5q0 26 20 43t51 17q26 0 42.5 -13.5t16.5 -35.5q0 -3 -0.5 -5.5t-1.5 -4.5q-2 -4 -4.5 -7.5t-7.5 -7.5q30 0 44 20.5t14 48.5v10.5t-1 10.5
q-3 27 -5.5 53t-3.5 53q-2 27 -3 53.5t-1 53.5v195q0 39 -12.5 49.5t-59.5 10.5l-15 1v42q28 -1 56.5 0t57.5 3q28 1 56.5 3.5t56.5 5.5v1zM193 735q33 -1 56.5 -24.5t23.5 -56.5q0 -32 -23.5 -55.5t-56.5 -23.5q-32 0 -55.5 23t-23.5 55q0 33 22.5 57t56.5 24v1z" />
    <glyph glyph-name="k" unicode="k" horiz-adv-x="667" 
d="M297 236l-65 -58v-34q0 -70 10.5 -86.5t54.5 -16.5l15 1v-42h-300v42q60 -1 70 22t10 79v476q0 31 -6 43t-23 13q-13 2 -25.5 3t-25.5 1v43q27 -1 54.5 0t55.5 2q28 2 55.5 4.5t54.5 5.5v-498l145 148q3 2 5.5 5.5t4.5 7.5q1 4 2 7.5t1 6.5q0 13 -11.5 18t-40.5 5l-16 1
v42h298v-42q-51 -4 -87.5 -18.5t-71.5 -38.5q-16 -11 -32 -24t-34 -28l181 -230q3 -4 5.5 -7.5t4.5 -5.5q13 -14 27 -22.5t38 -15.5l6 -2l6 -2v-41h-312v42h17q16 -1 26 5t10 15v2q0 3 -1.5 6.5t-3.5 6.5q0 2 -3 6.5t-8 11.5l-91 141v0z" />
    <glyph glyph-name="l" unicode="l" horiz-adv-x="352" 
d="M252 735v-591q0 -70 10.5 -86.5t55.5 -16.5l14 1v-42h-300v42h16q44 -1 54 15t10 86v476q0 39 -11 49.5t-52 10.5l-17 1v42q56 -1 110.5 3t109.5 9v1z" />
    <glyph glyph-name="m" unicode="m" horiz-adv-x="963" 
d="M248 490v-101q32 49 74 74.5t91 25.5q51 0 85 -28t48 -81q25 49 67.5 79t98.5 30q69 0 106.5 -42.5t37.5 -119.5v-183q0 -71 10.5 -87t54.5 -16l15 1v-42h-273v42q35 -1 43.5 14t9.5 47v41v136q0 73 -12.5 100t-47.5 27q-43 0 -71 -43.5t-28 -110.5v-109v-40
q1 -35 9.5 -49t30.5 -14l13 1v-42h-246v42q35 -1 43.5 14t9.5 47v41v119q0 75 -16 109.5t-51 34.5q-40 0 -66 -41t-26 -106v-116v-40q1 -34 10 -48.5t43 -14.5v-41h-273v42h14q45 -1 55.5 15.5t10.5 85.5v231q0 45 -21 52.5t-59 7.5v43q53 -1 105.5 2t104.5 10v1z" />
    <glyph glyph-name="n" unicode="n" horiz-adv-x="685" 
d="M674 0h-273v42q35 -1 43.5 14t9.5 47v41v170q0 49 -19 71t-63 22q-56 0 -90 -38t-34 -100v-125l1 -40q0 -32 10.5 -47.5t41.5 -15.5v-41h-273v42h15q44 -1 54.5 15t10.5 86v231q0 39 -11 49.5t-52 10.5l-17 1v42q53 -1 106.5 3t106.5 10v-95q30 44 78.5 69t105.5 25
q83 0 126 -48t43 -128v-169q0 -71 10.5 -87t54.5 -16l15 1v-42v0z" />
    <glyph glyph-name="o" unicode="o" horiz-adv-x="611" 
d="M306 490q123 -1 200 -70t77 -179q0 -112 -78 -183t-200 -71q-121 0 -199 70.5t-78 181.5q0 112 77 181t201 69v1zM309 448q-61 -1 -92 -50t-31 -148q0 -112 29.5 -167t87.5 -55q57 0 82.5 45t33.5 100q4 26 5 51.5t1 45.5q0 87 -29.5 132t-86.5 45v1z" />
    <glyph glyph-name="p" unicode="p" horiz-adv-x="667" 
d="M253 41v-121q0 -26 18 -37t62 -11h10v-42h-320v42q65 0 77.5 17t12.5 85v400q0 39 -16 49.5t-52 10.5v43q53 -1 104.5 3t103.5 10v-69q7 6 13.5 12.5t13.5 12.5q28 23 57.5 33t69.5 10q105 0 168 -65.5t63 -174.5q0 -119 -66.5 -190.5t-176.5 -71.5q-48 0 -81 12.5
t-61 40.5v1zM374 431q-63 -1 -95 -51.5t-32 -149.5q0 -94 31.5 -146.5t88.5 -52.5q59 0 86.5 55t27.5 170q0 87 -27 130.5t-80 43.5v1z" />
    <glyph glyph-name="q" unicode="q" horiz-adv-x="648" 
d="M566 477q-3 -13 -5 -29.5t-4 -33.5q-2 -18 -3.5 -35.5t-1.5 -29.5v-375q0 -70 12.5 -86t67.5 -16h12v-42h-323v42q68 0 79.5 17.5t11.5 84.5v90q-12 -15 -23.5 -26t-23.5 -20q-24 -18 -50 -24.5t-61 -6.5q-99 0 -162 68.5t-63 176.5q0 116 69.5 186.5t181.5 70.5
q56 0 103 -15.5t90 -47.5l51 51h42v0zM298 445q-61 -1 -90 -48.5t-29 -150.5q0 -15 1 -32.5t4 -35.5q8 -48 33 -87.5t79 -39.5q56 0 86.5 58.5t30.5 165.5q0 83 -29 126t-86 43v1z" />
    <glyph glyph-name="r" unicode="r" horiz-adv-x="519" 
d="M250 490v-139q17 52 52.5 95t96.5 43q44 0 72 -25t28 -64q0 -36 -23 -61t-56 -25q-31 0 -51.5 21t-20.5 52q0 3 0.5 6.5t1.5 6.5q1 4 1.5 7t0.5 6q2 3 3 5t1 3q0 2 -1.5 2.5t-3.5 0.5q-4 0 -12 -7t-17 -19q-2 -2 -4 -4.5t-4 -5.5q-6 -8 -10.5 -16t-9.5 -15
q-16 -32 -23.5 -64.5t-7.5 -73.5v-129q2 -17 9.5 -28.5t24.5 -16.5q1 0 2 -0.5t2 -0.5q8 -2 17 -2.5t25 -0.5l12 1v-42h-312v42h15q44 -1 54.5 15t10.5 86v231q0 44 -20.5 52t-59.5 8v43q52 -1 103.5 2.5t103.5 9.5v1z" />
    <glyph glyph-name="s" unicode="s" horiz-adv-x="500" 
d="M426 326h-37q-27 45 -64 81.5t-96 36.5q-34 0 -55 -15t-21 -41q0 -35 32.5 -49t77.5 -24q10 -3 20.5 -5t21.5 -5q56 -14 103.5 -43.5t47.5 -106.5q0 -73 -53.5 -120.5t-134.5 -47.5q-34 0 -66 8.5t-61 25.5l-47 -34h-40v177h40q2 -4 4 -7.5t4 -6.5q29 -46 68 -84t98 -38
q37 0 59 18t22 47q0 33 -31 46.5t-75 22.5q-11 3 -23 5.5t-24 5.5q-57 14 -105 45.5t-48 111.5q0 68 52 113.5t128 45.5q14 0 27.5 -1.5t26.5 -4.5q17 -4 34 -11t36 -18l42 36h37v-164v0z" />
    <glyph glyph-name="t" unicode="t" horiz-adv-x="426" 
d="M96 434h-60v34q59 19 91.5 68t44.5 108l64 1v-168h126v-43h-126v-307q0 -41 9 -59t29 -18q30 0 44.5 28.5t18.5 96.5l42 1q-3 -56 -8.5 -82.5t-19.5 -47.5q-2 -2 -3 -4t-3 -4q-19 -25 -49 -38t-66 -13q-53 0 -88.5 24.5t-41.5 65.5q-2 13 -3 29.5t-1 35.5v292v0z" />
    <glyph glyph-name="u" unicode="u" horiz-adv-x="685" 
d="M605 490v-387q0 -41 11.5 -51.5t56.5 -10.5l12 1v-42q-27 0 -54.5 -1t-55.5 -3q-21 -2 -41.5 -3.5t-41.5 -3.5q-6 0 -13 -0.5t-14 -1.5v92q-43 -46 -95 -69t-108 -23q-8 0 -16.5 1t-16.5 2q-33 6 -64 22t-49 38q-22 27 -30.5 63t-8.5 101v160q0 39 -7 49.5t-33 10.5
l-40 1v42q28 -1 55.5 0t54.5 3q21 2 41.5 3.5t40.5 3.5q7 0 14 0.5t14 1.5v-287q0 -69 25.5 -101.5t78.5 -32.5q57 0 100.5 45t43.5 103v158q0 35 -14 47.5t-54 12.5l-19 1v42q29 -1 57 0t57 3q21 2 42 3.5t43 3.5q7 0 14 0.5t14 1.5v1z" />
    <glyph glyph-name="v" unicode="v" horiz-adv-x="611" 
d="M349 -13h-50l-209 373q-11 19 -19.5 32t-16.5 21q-10 11 -22 15t-29 6v43h279v-42q-28 -2 -40.5 -9t-12.5 -21q0 -4 1 -8.5t3 -9.5q2 -3 4 -7t4 -7q2 -4 4 -7.5t4 -6.5l117 -226l82 212q5 14 7.5 25t2.5 20q0 25 -16.5 33.5t-70.5 10.5v43h237v-42q-39 -3 -57.5 -15
t-32.5 -44q-1 -1 -1.5 -2t-0.5 -2l-167 -385v0z" />
    <glyph glyph-name="w" unicode="w" horiz-adv-x="889" 
d="M624 -13h-44l-136 274l-132 -274h-44l-192 394q-5 9 -9 16t-7 13q-9 11 -19 15.5t-32 7.5q-1 0 -2.5 0.5t-3.5 0.5v43h265v-42q-22 -5 -30.5 -11.5t-8.5 -18.5q0 -10 2 -19.5t6 -18.5l92 -224l90 173l-34 70q-4 7 -7 13t-6 10q-10 15 -22.5 19.5t-37.5 5.5v43h283v-42
q-28 -2 -41 -10t-13 -25q0 -7 3.5 -18t10.5 -27l90 -212l69 173q10 25 14.5 41.5t4.5 27.5q0 26 -18 36t-70 13v43h242v-42q-4 1 -7.5 1h-5.5q-25 0 -42.5 -13t-33.5 -44l-4 -8t-4 -9l-166 -375v0z" />
    <glyph glyph-name="x" unicode="x" horiz-adv-x="611" 
d="M257 182q-6 -8 -15 -17t-18 -19q-8 -8 -15 -16t-13 -17q-7 -9 -11 -18.5t-4 -18.5q0 -19 15.5 -26t60.5 -9v-41h-255v42q28 1 41.5 4t23.5 12q2 1 3.5 2.5l3.5 3.5l157 154l-156 179l-6 6l-6 6q-10 9 -20.5 14t-29.5 9q-2 0 -5 0.5t-6 1.5v43h290v-42q-23 -2 -34.5 -7.5
t-11.5 -15.5v-2v-1q1 -4 3.5 -8t7.5 -11l66 -79q6 6 14 13.5t17 16.5q3 4 7 8t8 9q12 13 20.5 26t8.5 23q0 14 -13.5 19.5t-48.5 7.5v43h233v-42q-6 -2 -11.5 -3t-10.5 -3q-23 -5 -44.5 -13.5t-38.5 -25.5l-111 -113l167 -195q4 -6 8 -10t7 -8q8 -6 16 -10t21 -7q5 -2 11 -3
t14 -3v-41h-305v42q38 1 49.5 5t11.5 14q0 4 -1.5 8.5l-3.5 10.5q-3 4 -6 8.5t-6 7.5l-79 86v0z" />
    <glyph glyph-name="y" unicode="y" horiz-adv-x="611" 
d="M136 -118q53 14 90.5 49.5t64.5 81.5l-214 388q-11 18 -27.5 23.5t-36.5 9.5q-2 0 -4.5 0.5t-4.5 0.5v43h287v-42q-6 -2 -10 -2h-7q-26 -1 -35 -5t-9 -15v-3.5v-2.5q1 -5 3 -10t7 -15l118 -230l96 205q1 1 1.5 2.5t0.5 3.5q3 8 5 15.5t2 13.5q0 20 -15.5 29t-61.5 13v43
h222v-42q-34 -3 -52 -11.5t-32 -32.5q-4 -5 -7 -11t-6 -13l-142 -295q-57 -119 -122 -179t-137 -60q-42 0 -72 23.5t-30 57.5q0 28 19 45.5t50 17.5q29 0 48 -18.5t19 -47.5v-1.5v-1.5q0 -5 -2 -11t-6 -16v0z" />
    <glyph glyph-name="z" unicode="z" horiz-adv-x="537" 
d="M497 184l-11 -184h-446v32l291 403h-88q-68 -1 -92.5 -34.5t-40.5 -89.5q-2 -5 -3.5 -10t-2.5 -10l-42 1l11 185h413v-42l-281 -393h94q76 -1 104 28t47 90q2 6 3.5 11.5t3.5 11.5l40 1v0z" />
    <glyph glyph-name="braceleft" unicode="{" horiz-adv-x="389" 
d="M153 286q51 -14 71.5 -42.5t20.5 -86.5v-206q0 -39 21 -66t59 -37q-4 0 -9 -0.5t-9 -0.5h-9.5h-9.5q-81 0 -115.5 32.5t-34.5 108.5v197q0 43 -21 68t-63 32q41 9 62.5 34.5t21.5 64.5v221q0 74 47.5 98.5t111.5 24.5l28 1q-3 -2 -5 -3l-4 -2q-37 -13 -54 -37.5
t-17 -63.5v-219q0 -53 -21 -80t-71 -39v1z" />
    <glyph glyph-name="bar" unicode="|" horiz-adv-x="606" 
d="M241 -146v868h124v-868h-124v0z" />
    <glyph glyph-name="braceright" unicode="}" horiz-adv-x="389" 
d="M236 286q-49 11 -70 38t-21 79v221q0 41 -14 59t-40 31q-6 4 -13 7t-14 7h5.5h5.5q66 0 121.5 -18.5t55.5 -105.5v-219q0 -40 21.5 -65.5t61.5 -34.5q-41 -7 -62 -32t-21 -69v-196q0 -76 -35 -108.5t-115 -32.5h-9.5h-9.5t-9.5 0.5t-9.5 0.5q39 10 60 36.5t21 66.5v207
q0 57 20.5 85.5t70.5 41.5v1z" />
    <glyph glyph-name="asciitilde" unicode="~" horiz-adv-x="541" 
d="M451 402l33 -37q-19 -49 -49 -73t-70 -24q-26 0 -49 11t-45 24q-23 13 -46 24t-49 11q-11 0 -19.5 -2.5t-16.5 -8.5q-10 -8 -20.5 -24.5t-26.5 -45.5l-36 38q24 46 53.5 69.5t64.5 23.5q12 0 24 -3t23 -7q13 -5 26 -11.5t26 -13.5q24 -13 47 -24t42 -11q11 0 19.5 2.5
t16.5 8.5q11 9 23 26t29 46v1z" />
    <glyph glyph-name="glyph98" unicode="&#xa1;" horiz-adv-x="296" 
d="M127 506h41q1 -77 6.5 -130.5t18.5 -95.5l6 -20t7 -20q12 -38 22 -77t10 -78q0 -43 -26 -70.5t-65 -27.5t-64.5 28t-25.5 71q0 21 6.5 54.5t18.5 73.5t20.5 73t13.5 64q6 35 8.5 71.5t2.5 82.5v1zM149 734q37 -1 63 -27t26 -63t-26 -63.5t-64 -26.5q-37 0 -63 26.5
t-26 63.5t26.5 63t63.5 26v1z" />
    <glyph glyph-name="cent" unicode="&#xa2;" horiz-adv-x="574" 
d="M265 194q6 -5 11 -7.5t10 -4.5q7 -3 15.5 -4.5t20.5 -1.5q56 0 94 37.5t59 84.5l35 -19q-22 -75 -77.5 -122t-120.5 -47q-8 0 -19.5 1t-23.5 3q-11 1 -21 3t-18 4l-45 -89h-48l51 105q-63 28 -96 83.5t-33 132.5q0 113 71 186t182 73q9 0 19 -1t20 -3q16 -2 32 -7t30 -12
l44 89h48l-56 -112q23 -21 33.5 -42.5t10.5 -44.5q0 -33 -18 -53t-49 -20q-13 0 -21 1.5t-15 6.5l-4.5 4.5l-5.5 5.5l-115 -230v0zM233 227l161 325q-17 10 -35.5 13t-38.5 3q-58 0 -86.5 -49t-28.5 -148q0 -49 7 -84.5t21 -60.5v1z" />
    <glyph glyph-name="sterling" unicode="&#xa3;" horiz-adv-x="574" 
d="M560 261q-3 -137 -43 -205.5t-117 -68.5q-34 0 -60.5 12.5t-51.5 30.5q-6 4 -12 8.5t-12 8.5l-8 6l-8 6q-13 -13 -25 -24t-24 -19q-23 -16 -45.5 -22.5t-48.5 -6.5q-45 0 -73 25.5t-28 66.5q0 47 36.5 81t85.5 34h13.5t11.5 -1q9 -1 20.5 -3t32.5 -7q0 12 -1 24t-3 23
q-4 33 -13.5 66t-23.5 70l-114 1v55h95q-8 25 -12 41.5t-6 31.5q0 7 -0.5 14.5t-0.5 15.5q0 98 58.5 153.5t161.5 55.5q85 0 139.5 -39t54.5 -100q0 -36 -22 -59.5t-56 -23.5q-31 0 -51.5 19.5t-20.5 47.5q0 19 9.5 36t24.5 27q3 2 5 3.5t3 2.5t1.5 2.5t0.5 3.5
q0 17 -19.5 29.5t-46.5 12.5q-47 0 -78 -37t-31 -93q0 -32 9 -63.5t19 -62.5q2 -5 3.5 -9.5t3.5 -9.5l140 1v-55h-130q1 -4 1.5 -7t0.5 -6q3 -15 5 -30.5t2 -31.5q0 -34 -2 -59t-7 -48q-2 -9 -4.5 -18t-5.5 -19q12 -5 25.5 -9.5t26.5 -8.5q18 -4 35 -6.5t31 -2.5
q47 0 69.5 32t29.5 107l50 1v0zM194 100q-21 19 -42 29t-44 10q-22 0 -36.5 -15.5t-14.5 -40.5t13.5 -38.5t37.5 -13.5q28 0 50 17t36 51v1z" />
    <glyph glyph-name="Idieresis" unicode="&#xa4;" horiz-adv-x="606" 
d="M31 200l47 47q-13 24 -21 42.5t-12 36.5q-3 14 -4.5 28t-1.5 30q0 22 2.5 40.5t7.5 36.5q5 15 12 30.5t17 32.5l-47 47l84 86l47 -47q17 9 33 16t32 12q19 6 38 8.5t39 2.5q18 0 35.5 -2.5t34.5 -6.5q17 -5 34.5 -12.5t35.5 -18.5l48 48l83 -86l-47 -46q9 -17 16 -32
t12 -29q6 -19 9 -38.5t3 -41.5q0 -32 -6 -59t-19 -53q-3 -6 -7 -12.5t-8 -13.5l47 -46l-83 -85l-48 47q-23 -14 -42 -22.5t-38 -13.5q-14 -4 -29 -5.5t-31 -1.5q-23 0 -43 3.5t-40 10.5q-14 5 -29 12t-30 16l-47 -46l-84 85v0zM304 517q-54 -1 -92.5 -39.5t-38.5 -93.5
q0 -54 38.5 -93t92.5 -39t92.5 39t38.5 93q0 55 -38.5 93.5t-92.5 38.5v1z" />
    <glyph glyph-name="ae" unicode="&#xa5;" horiz-adv-x="722" 
d="M473 380l-33 -51v-14h207v-74h-207v-141q0 -33 18 -43.5t76 -12.5l19 1v-45h-382v45h19q1 -1 2 -1h2h8t7 1q28 1 51 10t23 44q1 7 1 19v30v93h-211v74h211v14l-40 51h-206v72h149l-149 196q-13 16 -29.5 20t-34.5 5q-7 1 -13.5 1.5t-13.5 1.5l-1 46h382v-45h-10
q-36 -1 -49.5 -5.5t-13.5 -15.5q0 -5 3 -12.5t9 -17.5l151 -246l139 217q1 1 2 2.5t2 3.5q5 9 8 17.5t3 14.5q0 21 -20 29t-43 10q-9 1 -18 1h-16q-5 1 -9 1h-7v46h309v-45q-35 -1 -55.5 -5.5t-38.5 -19.5q-10 -8 -21 -21t-24 -32l-104 -147h156v-72h-208v0z" />
    <glyph glyph-name="brokenbar" unicode="&#xa6;" 
 />
    <glyph glyph-name="section" unicode="&#xa7;" horiz-adv-x="500" 
d="M365 228q35 -32 52 -66.5t17 -74.5q0 -71 -52 -115t-135 -44q-70 0 -119.5 35.5t-49.5 84.5q0 29 17 46t45 17q25 0 41 -14t16 -35q0 -8 -3.5 -14.5t-8.5 -11.5q-1 -2 -2 -3l-2 -2q-3 -4 -5.5 -9t-2.5 -10q0 -15 12.5 -26t28.5 -16q5 -2 10.5 -3t10.5 -1q33 0 55 26
t22 65q0 42 -30 71.5t-70 56.5q-6 4 -12.5 8.5t-12.5 8.5q-48 31 -87 70t-39 101q0 21 5 39t16 35q12 17 30.5 34t45.5 37q-12 13 -21 24.5t-16 23.5q-10 18 -14.5 36.5t-4.5 40.5q0 65 48 107.5t121 42.5q65 0 110.5 -34.5t45.5 -82.5q0 -27 -16.5 -45t-42.5 -18
q-22 0 -38 15t-16 37v3.5v3.5q1 6 3 11.5t5 8.5l2.5 2.5t2.5 3.5q3 3 5 6.5t2 6.5q0 12 -11 22.5t-25 16.5q-5 2 -10.5 3.5t-10.5 1.5q-25 0 -42.5 -21t-17.5 -53q0 -46 33 -76t74 -57q4 -2 8 -4.5t8 -5.5q46 -29 84.5 -65t38.5 -94q0 -21 -4 -38t-14 -33
q-11 -18 -30.5 -37.5t-49.5 -43.5v1zM330 254q3 2 5 5t5 6q8 12 11.5 24t3.5 28q0 35 -29.5 68t-65.5 60q-18 13 -36 25t-31 22q-5 -7 -9 -13.5t-7 -12.5q-5 -11 -7 -22t-2 -23q0 -11 2 -20t6 -18q9 -16 28.5 -34t55.5 -44q9 -6 18 -12.5t17 -13.5q9 -7 17.5 -13.5
t17.5 -12.5v1z" />
    <glyph glyph-name="dieresis" unicode="&#xa8;" horiz-adv-x="333" 
d="M64 693q30 -1 51 -22t21 -51t-21 -51t-51 -21t-50.5 21t-20.5 51t20.5 51t50.5 21v1zM270 694q30 -1 51 -22.5t21 -50.5q0 -30 -21 -51t-51 -21t-51 21t-21 51q0 29 21 50.5t51 21.5v1z" />
    <glyph glyph-name="copyright" unicode="&#xa9;" horiz-adv-x="747" 
d="M376 735q153 -1 261.5 -110.5t108.5 -264.5t-109 -264t-263 -109t-263 109t-109 263t110 264.5t264 110.5v1zM374 670q-125 -1 -214 -91.5t-89 -218.5t89 -218.5t214 -90.5t214 90.5t89 218.5t-89 218.5t-214 90.5v1zM530 531v-107h-41q-15 50 -38.5 74t-58.5 24
q-49 0 -78 -39.5t-29 -106.5q0 -81 34 -130.5t90 -49.5q34 0 58.5 15t43.5 46l33 -11q-18 -44 -64.5 -69.5t-105.5 -25.5q-88 0 -142 56.5t-54 147.5q0 90 57.5 147.5t148.5 57.5q11 0 22 -0.5t23 -2.5q26 -3 51.5 -10t49.5 -17v1z" />
    <glyph glyph-name="ellipsis" unicode="&#xaa;" horiz-adv-x="367" 
d="M352 363v-67h-338v67h338v0zM344 458q-2 -3 -3.5 -5.5t-2.5 -4.5q-12 -17 -26.5 -31t-36.5 -14q-21 0 -36 13.5t-24 40.5q-1 -1 -2 -2.5t-2 -2.5q-19 -27 -40.5 -38t-55.5 -11q-37 0 -60 22t-23 57q0 48 36 73.5t79 37.5q16 4 31 7.5t29 5.5v40q0 31 -13 47t-39 16
q-3 0 -9 -0.5t-12 -2.5q-9 -2 -16.5 -6.5t-7.5 -10.5q0 -1 2.5 -5.5t5.5 -10.5q2 -4 4 -8.5t3 -8.5q0 -3 0.5 -5.5t0.5 -4.5q0 -19 -11.5 -32t-28.5 -13q-16 0 -28.5 13t-12.5 32q0 37 35 62.5t84 25.5q62 0 94 -27t32 -79v-141q0 -18 4 -26t12 -8q2 0 3 0.5t3 0.5
q4 2 8.5 7t10.5 14l13 -17v0zM207 578q-49 -10 -69.5 -29.5t-20.5 -57.5q0 -21 11 -34.5t27 -13.5q23 0 37.5 23.5t14.5 59.5v52v0z" />
    <glyph glyph-name="ydieresis" unicode="&#xab;" horiz-adv-x="500" 
d="M167 254q9 -14 24.5 -35t31.5 -45l10 -16l10 -16q19 -30 32.5 -58t13.5 -46q0 -7 -3 -11.5t-8 -4.5q-7 0 -20 10t-33 32q-15 16 -27 29t-24 25l-2.5 2.5l-2.5 2.5q-16 16 -34 33.5t-44 42.5q-2 2 -10 9t-18 15q0 1 -1 1.5t-2 1.5q-10 9 -17.5 16.5t-7.5 10.5q0 2 2.5 5.5
t8.5 8.5q14 11 29 24t30 27l28.5 28.5l28.5 28.5q17 17 33 34t30 33q20 22 33 32t20 10q5 0 8 -4.5t3 -11.5q0 -16 -14 -45t-33 -61l-10 -16l-10 -16q-16 -24 -30.5 -44.5t-24.5 -32.5v1zM334 254q9 -14 24.5 -35t31.5 -45q5 -8 10 -15.5t10 -15.5q19 -31 32.5 -59t13.5 -46
q0 -7 -3 -11.5t-8 -4.5q-7 0 -20 10t-33 32q-15 16 -27 29t-24 25l-2.5 2.5l-2.5 2.5q-16 16 -34 33.5t-44 42.5q-2 2 -10 8.5t-18 14.5l-2.5 2.5t-3.5 2.5q-9 8 -15.5 15t-6.5 11q0 2 2.5 5.5t8.5 8.5q14 11 29 24t30 27l28.5 28.5l28.5 28.5q17 17 33 34t30 33
q20 22 33 32t20 10q5 0 8 -4.5t3 -11.5q0 -16 -14 -45.5t-34 -61.5q-4 -8 -9 -15.5t-10 -14.5q-16 -25 -30.5 -45.5t-24.5 -32.5v1z" />
    <glyph glyph-name="emdash" unicode="&#xac;" 
 />
    <glyph glyph-name="uni00AD" unicode="&#xad;" horiz-adv-x="500" 
 />
    <glyph glyph-name="registered" unicode="&#xae;" horiz-adv-x="747" 
d="M376 735q152 -1 261 -110.5t109 -264.5t-109 -264t-263 -109t-263 109t-109 263t110 264.5t264 110.5v1zM374 670q-125 -1 -214 -91.5t-89 -218.5t89 -218.5t214 -90.5t214 90.5t89 218.5t-89 218.5t-214 90.5v1zM202 540v27h175q79 -1 116 -25t37 -76q0 -38 -24 -63.5
t-73 -39.5q28 -6 46 -30t31 -52q5 -11 10 -21.5t10 -19.5q9 -18 18.5 -30t21.5 -12l5 1v-25h-75q-13 -1 -22 2.5t-17 13.5q-7 9 -15 25t-19 42q-9 20 -14.5 34.5t-10.5 24.5q-10 18 -23 24.5t-45 6.5v-110q0 -25 4.5 -32t17.5 -7l5 1h10h6v-25h-175v25h6q25 -1 31.5 3
t6.5 18v9v277q0 22 -3.5 27t-20.5 6l-20 1v0zM334 379q4 -2 6.5 -2.5t5.5 -0.5h5.5h6.5q41 0 61.5 21t20.5 61q0 38 -18.5 58.5t-52.5 20.5q-23 0 -29 -1.5t-6 -7.5v-14v-135v0z" />
    <glyph glyph-name="glyph263" unicode="&#xaf;" 
 />
    <glyph glyph-name="glyph264" unicode="&#xb0;" 
 />
    <glyph glyph-name="mu" unicode="&#xb1;" horiz-adv-x="606" 
d="M551 123v-123h-497v123h497v0zM240 427v205h125v-205h186v-124h-186v-126h-125v126h-186v124h186v0z" />
    <glyph glyph-name="uni00B2" unicode="&#xb2;" 
 />
    <glyph glyph-name="uni00B3" unicode="&#xb3;" 
 />
    <glyph glyph-name="acute" unicode="&#xb4;" horiz-adv-x="333" 
d="M166 540l-24 22l113 117q5 4 10 8.5t10 8.5q10 7 20.5 10.5t19.5 3.5q20 0 35.5 -16.5t15.5 -37.5q0 -17 -10 -30t-34 -25q-6 -3 -13.5 -6.5t-16.5 -6.5l-126 -48v0z" />
    <glyph glyph-name="oslash" unicode="&#xb5;" horiz-adv-x="586" 
d="M501 482v-332q0 -53 6.5 -69.5t26.5 -16.5h4h3q5 1 12 3.5t21 8.5v-38l-122 -48q-5 -2 -9.5 -3t-8.5 -1q-21 0 -37 13.5t-27 40.5q-20 -17 -35.5 -28t-30.5 -16q-13 -6 -26.5 -8t-29.5 -2q-31 0 -49 4.5t-34 17.5q-7 6 -14.5 15t-16.5 21q1 -5 1.5 -9t1.5 -8
q2 -12 4 -21.5t4 -19.5q4 -15 9.5 -32t14.5 -41q6 -16 9.5 -29.5t3.5 -20.5q0 -26 -19.5 -42.5t-48.5 -16.5q-37 0 -57.5 16t-20.5 46q0 10 2.5 25t7.5 41q17 74 26.5 151t9.5 154v245h145v-302q0 -66 11 -90.5t41 -24.5q6 0 11 0.5t10 2.5q13 3 26 11t30 22v381h145v0z" />
    <glyph glyph-name="paragraph" unicode="&#xb6;" horiz-adv-x="747" 
d="M614 677v-733h72v-45h-432v45h91v400q-13 -3 -27.5 -4t-28.5 -1q-90 0 -160 47t-70 147q0 62 37 109t99 64q12 3 21.5 5.5t18.5 4.5q20 3 46.5 4t81.5 1l323 1v-45h-72v0zM519 677h-79v-733h79v733v0zM345 677q-43 -1 -60.5 -24.5t-17.5 -69.5v-106q0 -43 15 -69.5
t63 -26.5v296v0z" />
    <glyph glyph-name="glyph265" unicode="&#xb7;" 
 />
    <glyph glyph-name="glyph121" unicode="&#xb8;" horiz-adv-x="333" 
d="M206 37l-22 -84q49 0 74 -19t25 -56q0 -38 -34 -63t-87 -25q-13 0 -24 1t-22 3q-15 4 -30.5 10.5t-35.5 16.5l19 35q12 -6 22.5 -10.5t20.5 -6.5q8 -2 16 -3t17 -1q29 0 47 11.5t18 31.5q0 17 -14 27t-39 10q-9 0 -18 -1l-18 -2l41 125h44v0z" />
    <glyph glyph-name="uni00B9" unicode="&#xb9;" 
 />
    <glyph glyph-name="Agrave" unicode="&#xba;" horiz-adv-x="367" 
d="M352 363v-67h-338v67h338v0zM179 735q65 -1 106 -46.5t41 -118.5t-41 -120.5t-106 -47.5q-64 0 -106 47t-42 118q0 75 40.5 121t107.5 46v1zM180 705q-30 -1 -44.5 -33t-14.5 -97q0 -72 14 -107.5t42 -35.5q29 0 44 39.5t15 118.5q0 56 -14 85t-42 29v1z" />
    <glyph glyph-name="Ydieresis" unicode="&#xbb;" horiz-adv-x="500" 
d="M166 254q-9 12 -24.5 33t-31.5 46q-5 8 -10 15.5t-10 15.5q-19 30 -32.5 58t-13.5 46q0 7 3.5 11.5t7.5 4.5q7 0 20 -10t33 -32q16 -17 35 -37t39 -41l12 -12l12 -12q22 -21 42.5 -40t38.5 -33q6 -5 8.5 -8.5t2.5 -5.5t-2.5 -5.5t-8.5 -8.5q-25 -20 -48 -42t-46 -45
l-8.5 -8.5l-9.5 -9.5q-7 -7 -20.5 -22t-28.5 -32l-6 -6l-6 -6q-18 -18 -34 -32t-25 -14q-4 0 -7.5 4.5t-3.5 11.5q0 16 13.5 45t32.5 60q5 8 10 16.5t11 15.5q16 25 31 46t24 32v1zM333 254q-9 11 -24.5 32.5t-32.5 47.5q-4 7 -9 14.5t-9 14.5q-19 31 -33 59.5t-14 45.5
q0 7 3.5 11.5t7.5 4.5q7 0 20 -10t33 -32q16 -17 35 -37t39 -41l12 -12l12 -12q22 -21 42.5 -40t38.5 -33q6 -5 8.5 -8.5t2.5 -5.5t-2.5 -5.5t-8.5 -8.5q-25 -20 -48 -42t-46 -45l-8.5 -8.5l-9.5 -9.5q-7 -7 -20.5 -22t-29.5 -32q-2 -3 -5 -6l-6 -6q-18 -19 -34 -32.5
t-25 -13.5q-4 0 -7.5 4.5t-3.5 11.5q0 16 13.5 45t32.5 60l10 16l10 16q16 25 31.5 46t24.5 32v1z" />
    <glyph glyph-name="onequarter" unicode="&#xbc;" 
 />
    <glyph glyph-name="glyph243" unicode="&#xbd;" horiz-adv-x="833" 
d="M176 0l434 711h53l-437 -711h-50v0zM836 0h-335v31l124 129q56 57 78.5 94t22.5 69q0 34 -18 51.5t-53 17.5q-22 0 -40.5 -9.5t-31.5 -28.5l-3 -5q0 -2 2 -2.5t5 -0.5l2 1h1q19 -1 33 -15.5t14 -34.5q0 -22 -17 -37.5t-41 -15.5q-28 0 -46 18t-18 46q0 50 45.5 84.5
t112.5 34.5q74 0 118.5 -32.5t44.5 -87.5q0 -27 -12 -51t-38 -47q-10 -9 -21.5 -18t-25.5 -18q-11 -7 -21.5 -14t-21.5 -15q-5 -3 -10.5 -7t-10.5 -7q-16 -12 -32 -22.5t-33 -21.5l114 1q44 -1 57.5 8.5t20.5 47.5q1 1 1 1.5v1.5l2 14h31v-160v0zM226 711v-346
q0 -29 3.5 -36t16.5 -9q11 -1 28.5 -2.5t36.5 -1.5l2 1v-33h-278v33q5 -1 9.5 -0.5t9.5 0.5h9h9q34 1 42.5 7.5t8.5 33.5v240q0 28 -7.5 35t-41.5 7h-11.5h-9.5q-4 0 -8 0.5t-10 0.5v33q7 0 13.5 0.5t12.5 1.5q34 4 66.5 10t63.5 24l35 1v0z" />
    <glyph glyph-name="threequarters" unicode="&#xbe;" 
 />
    <glyph glyph-name="oe" unicode="&#xbf;" horiz-adv-x="500" 
d="M253 501h44q1 -7 1 -11v-7q0 -45 -17.5 -84t-37.5 -77q-21 -38 -38.5 -77t-17.5 -84q0 -55 28.5 -91.5t71.5 -36.5h4h4q13 2 25.5 7t21.5 14l2.5 2.5l2.5 2.5q3 4 5 7t2 5v2t-1 2q-1 0 -2.5 1t-3.5 2q-18 9 -30.5 29.5t-13.5 43.5v2v2q0 37 22 59t57 22q36 0 59 -26.5
t23 -67.5q0 -65 -64.5 -110t-157.5 -45q-91 0 -152 51t-61 128q0 64 33 100t74 67q1 1 2.5 2t2.5 2q40 30 73.5 65.5t38.5 97.5v1zM262 736q38 -1 63 -26t25 -61q0 -35 -25 -60t-60 -25q-36 0 -61 25t-25 61t24 60.5t59 24.5v1z" />
    <glyph glyph-name="currency" unicode="&#xc0;" horiz-adv-x="759" 
d="M460 220h-264q-3 -10 -7.5 -20.5t-8.5 -21.5q-2 -5 -4 -9.5t-3 -9.5q-6 -15 -10 -30t-4 -27q0 -30 21 -41t47 -14l18 -2t17 -1h0.5h1.5v-44h-257v45q31 1 52.5 18t34.5 49l250 625h63l276 -651q11 -26 27 -34t41 -8v-44h-321v45q2 -1 4 -1h4q24 1 44.5 8.5t20.5 38.5
q0 11 -5.5 28.5t-12.5 36.5q-1 3 -2.5 6.5t-2.5 7.5q-6 14 -11.5 27t-8.5 22v1zM441 270l-115 299l-111 -299h226v0zM381 786l-127 49q-9 2 -16 5.5t-14 6.5q-23 12 -33 25t-10 30q0 21 15.5 37.5t35.5 16.5q14 0 29 -8t31 -24l113 -116l-24 -22v0z" />
    <glyph glyph-name="breve" unicode="&#xc1;" horiz-adv-x="759" 
d="M460 220h-264q-3 -10 -7.5 -20.5t-8.5 -21.5q-2 -5 -4 -9.5t-3 -9.5q-6 -15 -10 -30t-4 -27q0 -30 21 -41t47 -14l18 -2t17 -1h0.5h1.5v-44h-257v45q31 1 52.5 18t34.5 49l250 625h63l276 -651q11 -26 27 -34t41 -8v-44h-321v45q2 -1 4 -1h4q24 1 44.5 8.5t20.5 38.5
q0 11 -5.5 28.5t-12.5 36.5q-1 3 -2.5 6.5t-2.5 7.5q-6 14 -11.5 27t-8.5 22v1zM441 270l-115 299l-111 -299h226v0zM379 786l-24 22l113 117q5 4 10 8.5t10 8.5q10 7 20.5 10.5t19.5 3.5q20 0 35.5 -16.5t15.5 -37.5q0 -17 -10 -30t-34 -25q-6 -3 -13.5 -6.5t-16.5 -6.5
l-126 -48v0z" />
    <glyph glyph-name="tilde" unicode="&#xc2;" horiz-adv-x="759" 
d="M460 220h-264q-3 -10 -7.5 -20.5t-8.5 -21.5q-2 -5 -4 -9.5t-3 -9.5q-6 -15 -10 -30t-4 -27q0 -30 21 -41t47 -14l18 -2t17 -1h0.5h1.5v-44h-257v45q31 1 52.5 18t34.5 49l250 625h63l276 -651q11 -26 27 -34t41 -8v-44h-321v45q2 -1 4 -1h4q24 1 44.5 8.5t20.5 38.5
q0 11 -5.5 28.5t-12.5 36.5q-1 3 -2.5 6.5t-2.5 7.5q-6 14 -11.5 27t-8.5 22v1zM441 270l-115 299l-111 -299h226v0zM557 794h-63l-115 83l-118 -83h-59l138 152h84l133 -152v0z" />
    <glyph glyph-name="guilsinglleft" unicode="&#xc3;" horiz-adv-x="759" 
d="M460 220h-264q-3 -10 -7.5 -20.5t-8.5 -21.5q-2 -5 -4 -9.5t-3 -9.5q-6 -15 -10 -30t-4 -27q0 -30 21 -41t47 -14l18 -2t17 -1h0.5h1.5v-44h-257v45q31 1 52.5 18t34.5 49l250 625h63l276 -651q11 -26 27 -34t41 -8v-44h-321v45q2 -1 4 -1h4q24 1 44.5 8.5t20.5 38.5
q0 11 -5.5 28.5t-12.5 36.5q-1 3 -2.5 6.5t-2.5 7.5q-6 14 -11.5 27t-8.5 22v1zM441 270l-115 299l-111 -299h226v0zM550 922q-12 -65 -35.5 -93t-67.5 -28q-11 0 -23 3t-24 8q-10 4 -20.5 9.5t-20.5 10.5q-22 12 -41.5 21.5t-34.5 9.5q-14 0 -22.5 -11t-14.5 -39l-38 1
q8 56 34 87.5t64 31.5q24 0 45 -9.5t41 -21.5q5 -3 10.5 -6.5t11.5 -6.5q14 -7 28.5 -12.5t29.5 -5.5q17 0 26 11.5t16 38.5l36 1v0z" />
    <glyph glyph-name="Adieresis" unicode="&#xc4;" horiz-adv-x="759" 
d="M460 220h-264q-3 -10 -7.5 -20.5t-8.5 -21.5q-2 -5 -4 -9.5t-3 -9.5q-6 -15 -10 -30t-4 -27q0 -30 21 -41t47 -14l18 -2t17 -1h0.5h1.5v-44h-257v45q31 1 52.5 18t34.5 49l250 625h63l276 -651q11 -26 27 -34t41 -8v-44h-321v45q2 -1 4 -1h4q24 1 44.5 8.5t20.5 38.5
q0 11 -5.5 28.5t-12.5 36.5q-1 3 -2.5 6.5t-2.5 7.5q-6 14 -11.5 27t-8.5 22v1zM441 270l-115 299l-111 -299h226v0zM277 939q30 -1 51 -22t21 -51t-21 -51t-51 -21t-51 21t-21 51t21 51t51 21v1zM483 940q30 -1 51 -22.5t21 -50.5q0 -30 -21 -51t-51 -21t-51 21t-21 51
q0 29 21 50.5t51 21.5v1z" />
    <glyph glyph-name="Aring" unicode="&#xc5;" horiz-adv-x="759" 
d="M460 220h-264q-3 -10 -7.5 -20.5t-8.5 -21.5q-2 -5 -4 -9.5t-3 -9.5q-6 -15 -10 -30t-4 -27q0 -30 21 -41t47 -14l18 -2t17 -1h0.5h1.5v-44h-257v45q31 1 52.5 18t34.5 49l250 625h63l276 -651q11 -26 27 -34t41 -8v-44h-321v45q2 -1 4 -1h4q24 1 44.5 8.5t20.5 38.5
q0 11 -5.5 28.5t-12.5 36.5q-1 3 -2.5 6.5t-2.5 7.5q-6 14 -11.5 27t-8.5 22v1zM441 270l-115 299l-111 -299h226v0zM379 967q40 -1 68 -29t28 -68t-28 -68t-68 -28t-68 28t-28 68t28 68t68 28v1zM379 922q-19 -1 -33.5 -16.5t-14.5 -36.5q0 -22 14.5 -37.5t33.5 -15.5
q20 0 34 15.5t14 36.5q0 22 -14 37.5t-34 15.5v1z" />
    <glyph glyph-name="Oslash" unicode="&#xc6;" horiz-adv-x="981" 
d="M927 0h-554v45q76 -1 89 17.5t13 85.5v206h-193l-122 -227q-8 -16 -11 -23.5t-4 -14.5q-1 -2 -1 -4.5v-5.5q0 -17 16 -24t64 -11v-44h-209v45q24 6 46 19t34 35l285 518q2 2 3.5 5t3.5 6q5 7 8.5 15t3.5 16t-6.5 12.5t-19.5 4.5l-42 1v45h596v-240h-33q-3 14 -6.5 30.5
t-8.5 33.5q-14 49 -43 89.5t-84 40.5l-88 1q-27 -1 -34 -10t-7 -44v-224h25q47 -1 70.5 32.5t33.5 113.5l33 1v-347h-33q-11 87 -33 120.5t-67 33.5l-29 1v-265q0 -25 8.5 -35t28.5 -10l80 1q64 -1 98 46.5t50 104.5q5 19 9 37.5t7 35.5l34 1l-11 -270v0zM475 399v262
q0 5 -2.5 8t-10.5 5l-153 -275h166v0z" />
    <glyph glyph-name="Ccedilla" unicode="&#xc7;" horiz-adv-x="778" 
d="M410 -13l-10 -33h9t9 -1q31 -3 56.5 -19t25.5 -52q0 -40 -34 -65t-88 -25q-12 0 -23 1t-21 3q-15 3 -30.5 9.5t-36.5 16.5l18 36q12 -6 23 -10.5t21 -6.5q8 -2 16 -3t17 -1q29 0 47 11.5t18 31.5q0 17 -14 27t-39 10h-8.5h-9.5q-5 -1 -9.5 -1.5t-8.5 -1.5l27 73
q-151 13 -242 114.5t-91 253.5q0 161 110.5 270t273.5 109q52 0 92 -8.5t77 -28.5q6 -3 11.5 -6t11.5 -7l55 51h40l15 -290h-42q-3 8 -6.5 17.5t-6.5 19.5q-30 79 -84 144.5t-148 65.5q-100 0 -156 -86t-56 -240q0 -17 0.5 -34t2.5 -35q8 -99 53.5 -182t166.5 -83
q54 0 103.5 22.5t83.5 63.5q6 7 11 13t9 13q9 13 15.5 26.5t13.5 32.5q3 9 6 19t6 22l44 1q-36 -130 -110.5 -194t-213.5 -64v0z" />
    <glyph glyph-name="ring" unicode="&#xc8;" horiz-adv-x="759" 
d="M702 0h-689v45q73 -1 89 16t16 87v425q0 77 -18 90t-87 13v46h681l8 -237h-41q-28 103 -71.5 147t-117.5 44l-89 1q-67 -1 -85 -9.5t-18 -40.5v-229h83q50 -1 81 35.5t41 109.5l41 1v-345h-41q-5 46 -17 76.5t-33 51.5q-3 3 -5.5 5t-5.5 4q-12 10 -26.5 13t-40.5 3l-77 1
v-246q0 -41 17.5 -52t78.5 -11l99 1q81 -1 121.5 54.5t63.5 121.5q4 12 7.5 24t6.5 23l42 1l-14 -269v0zM381 786l-127 49q-9 2 -16 5.5t-14 6.5q-23 12 -33 25t-10 30q0 21 15.5 37.5t35.5 16.5q14 0 29 -8t31 -24l113 -116l-24 -22v0z" />
    <glyph glyph-name="Eacute" unicode="&#xc9;" horiz-adv-x="759" 
d="M702 0h-689v45q73 -1 89 16t16 87v425q0 77 -18 90t-87 13v46h681l8 -237h-41q-28 103 -71.5 147t-117.5 44l-89 1q-67 -1 -85 -9.5t-18 -40.5v-229h83q50 -1 81 35.5t41 109.5l41 1v-345h-41q-5 46 -17 76.5t-33 51.5q-3 3 -5.5 5t-5.5 4q-12 10 -26.5 13t-40.5 3l-77 1
v-246q0 -41 17.5 -52t78.5 -11l99 1q81 -1 121.5 54.5t63.5 121.5q4 12 7.5 24t6.5 23l42 1l-14 -269v0zM379 786l-24 22l113 117q5 4 10 8.5t10 8.5q10 7 20.5 10.5t19.5 3.5q20 0 35.5 -16.5t15.5 -37.5q0 -17 -10 -30t-34 -25q-6 -3 -13.5 -6.5t-16.5 -6.5l-126 -48v0z
" />
    <glyph glyph-name="macron" unicode="&#xca;" horiz-adv-x="759" 
d="M702 0h-689v45q73 -1 89 16t16 87v425q0 77 -18 90t-87 13v46h681l8 -237h-41q-28 103 -71.5 147t-117.5 44l-89 1q-67 -1 -85 -9.5t-18 -40.5v-229h83q50 -1 81 35.5t41 109.5l41 1v-345h-41q-5 46 -17 76.5t-33 51.5q-3 3 -5.5 5t-5.5 4q-12 10 -26.5 13t-40.5 3l-77 1
v-246q0 -41 17.5 -52t78.5 -11l99 1q81 -1 121.5 54.5t63.5 121.5q4 12 7.5 24t6.5 23l42 1l-14 -269v0zM557 794h-63l-115 83l-118 -83h-59l138 152h84l133 -152v0z" />
    <glyph glyph-name="dotaccent" unicode="&#xcb;" horiz-adv-x="759" 
d="M702 0h-689v45q73 -1 89 16t16 87v425q0 77 -18 90t-87 13v46h681l8 -237h-41q-28 103 -71.5 147t-117.5 44l-89 1q-67 -1 -85 -9.5t-18 -40.5v-229h83q50 -1 81 35.5t41 109.5l41 1v-345h-41q-5 46 -17 76.5t-33 51.5q-3 3 -5.5 5t-5.5 4q-12 10 -26.5 13t-40.5 3l-77 1
v-246q0 -41 17.5 -52t78.5 -11l99 1q81 -1 121.5 54.5t63.5 121.5q4 12 7.5 24t6.5 23l42 1l-14 -269v0zM277 939q30 -1 51 -22t21 -51t-21 -51t-51 -21t-51 21t-21 51t21 51t51 21v1zM483 940q30 -1 51 -22.5t21 -50.5q0 -30 -21 -51t-51 -21t-51 21t-21 51q0 29 21 50.5
t51 21.5v1z" />
    <glyph glyph-name="caron" unicode="&#xcc;" horiz-adv-x="444" 
d="M35 677v45h375v-45q-5 -1 -10 -1h-10q-5 -1 -10 -1h-10q-43 -1 -54 -18.5t-11 -84.5v-423q0 -78 17.5 -91.5t87.5 -13.5v-44h-375v45q74 -1 89.5 15.5t15.5 87.5v425q0 66 -11 83.5t-54 18.5h-10t-10 1h-10h-10v1zM224 786l-127 49q-9 2 -16 5.5t-14 6.5q-23 12 -33 25
t-10 30q0 21 15.5 37.5t35.5 16.5q14 0 29 -8t31 -24l113 -116l-24 -22v0z" />
    <glyph glyph-name="cedilla" unicode="&#xcd;" horiz-adv-x="444" 
d="M35 677v45h375v-45q-5 -1 -10 -1h-10q-5 -1 -10 -1h-10q-43 -1 -54 -18.5t-11 -84.5v-423q0 -78 17.5 -91.5t87.5 -13.5v-44h-375v45q74 -1 89.5 15.5t15.5 87.5v425q0 66 -11 83.5t-54 18.5h-10t-10 1h-10h-10v1zM222 786l-24 22l113 117q5 4 10 8.5t10 8.5
q10 7 20.5 10.5t19.5 3.5q20 0 35.5 -16.5t15.5 -37.5q0 -17 -10 -30t-34 -25q-6 -3 -13.5 -6.5t-16.5 -6.5l-126 -48v0z" />
    <glyph glyph-name="hungarumlaut" unicode="&#xce;" horiz-adv-x="444" 
d="M35 677v45h375v-45q-5 -1 -10 -1h-10q-5 -1 -10 -1h-10q-43 -1 -54 -18.5t-11 -84.5v-423q0 -78 17.5 -91.5t87.5 -13.5v-44h-375v45q74 -1 89.5 15.5t15.5 87.5v425q0 66 -11 83.5t-54 18.5h-10t-10 1h-10h-10v1zM400 794h-63l-115 83l-118 -83h-59l138 152h84l133 -152
v0z" />
    <glyph glyph-name="ogonek" unicode="&#xcf;" horiz-adv-x="444" 
d="M35 677v45h375v-45q-5 -1 -10 -1h-10q-5 -1 -10 -1h-10q-43 -1 -54 -18.5t-11 -84.5v-423q0 -78 17.5 -91.5t87.5 -13.5v-44h-375v45q74 -1 89.5 15.5t15.5 87.5v425q0 66 -11 83.5t-54 18.5h-10t-10 1h-10h-10v1zM120 939q30 -1 51 -22t21 -51t-21 -51t-51 -21t-51 21
t-21 51t21 51t51 21v1zM326 940q30 -1 51 -22.5t21 -50.5q0 -30 -21 -51t-51 -21t-51 21t-21 51q0 29 21 50.5t51 21.5v1z" />
    <glyph glyph-name="glyph232" unicode="&#xd0;" horiz-adv-x="833" 
d="M119 432h-105v45h105v96q0 77 -18 90t-87 13v46h417q176 -1 272.5 -92.5t96.5 -257.5q0 -175 -95.5 -273.5t-264.5 -98.5h-426v45q73 -1 89 16t16 87v284v0zM281 432v-329q0 -38 9.5 -48.5t42.5 -10.5l62 1q112 -1 171 77.5t59 226.5q0 18 -1 37t-3 39
q-12 94 -60.5 172.5t-158.5 78.5l-60 1q-40 -1 -50.5 -8.5t-10.5 -37.5v-154h190v-45h-190v0z" />
    <glyph glyph-name="Ntilde" unicode="&#xd1;" horiz-adv-x="833" 
d="M300 0h-293v45q71 3 98.5 37t27.5 104v354q0 85 -22.5 110t-99.5 26v46h262l381 -470v283q0 77 -25 108t-92 33v46h284v-45q-61 -5 -89 -38.5t-28 -104.5v-534h-50l-471 582v-395q0 -65 23.5 -104t93.5 -39v-44v0zM587 922q-12 -65 -35.5 -93t-67.5 -28q-11 0 -23 3
t-24 8q-10 4 -20.5 9.5t-20.5 10.5q-22 12 -41.5 21.5t-34.5 9.5q-14 0 -22.5 -11t-14.5 -39l-38 1q8 56 34 87.5t64 31.5q24 0 45 -9.5t41 -21.5q5 -3 10.5 -6.5t11.5 -6.5q14 -7 28.5 -12.5t29.5 -5.5q17 0 26 11.5t16 38.5l36 1v0z" />
    <glyph glyph-name="scaron" unicode="&#xd2;" 
 />
    <glyph glyph-name="Lslash" unicode="&#xd3;" horiz-adv-x="833" 
d="M417 735q153 -1 266.5 -115t113.5 -268q0 -101 -54.5 -191.5t-143.5 -135.5q-38 -19 -84.5 -28.5t-97.5 -9.5q-108 0 -188.5 41.5t-133.5 125.5q-29 45 -44 95.5t-15 102.5q0 154 113.5 268t267.5 114v1zM419 693q-103 -1 -153 -87t-50 -262q0 -160 49.5 -238t152.5 -78
q111 0 150 76t46 166q2 23 2.5 45.5t0.5 43.5q0 166 -50 249.5t-148 83.5v1zM416 786l-24 22l113 117q5 4 10 8.5t10 8.5q10 7 20.5 10.5t19.5 3.5q20 0 35.5 -16.5t15.5 -37.5q0 -17 -10 -30t-34 -25q-6 -3 -13.5 -6.5t-16.5 -6.5l-126 -48v0z" />
    <glyph glyph-name="lslash" unicode="&#xd4;" horiz-adv-x="833" 
d="M417 735q153 -1 266.5 -115t113.5 -268q0 -101 -54.5 -191.5t-143.5 -135.5q-38 -19 -84.5 -28.5t-97.5 -9.5q-108 0 -188.5 41.5t-133.5 125.5q-29 45 -44 95.5t-15 102.5q0 154 113.5 268t267.5 114v1zM419 693q-103 -1 -153 -87t-50 -262q0 -160 49.5 -238t152.5 -78
q111 0 150 76t46 166q2 23 2.5 45.5t0.5 43.5q0 166 -50 249.5t-148 83.5v1zM594 794h-63l-115 83l-118 -83h-59l138 152h84l133 -152v0z" />
    <glyph glyph-name="guilsinglright" unicode="&#xd5;" horiz-adv-x="833" 
d="M417 735q153 -1 266.5 -115t113.5 -268q0 -101 -54.5 -191.5t-143.5 -135.5q-38 -19 -84.5 -28.5t-97.5 -9.5q-108 0 -188.5 41.5t-133.5 125.5q-29 45 -44 95.5t-15 102.5q0 154 113.5 268t267.5 114v1zM419 693q-103 -1 -153 -87t-50 -262q0 -160 49.5 -238t152.5 -78
q111 0 150 76t46 166q2 23 2.5 45.5t0.5 43.5q0 166 -50 249.5t-148 83.5v1zM587 922q-12 -65 -35.5 -93t-67.5 -28q-11 0 -23 3t-24 8q-10 4 -20.5 9.5t-20.5 10.5q-22 12 -41.5 21.5t-34.5 9.5q-14 0 -22.5 -11t-14.5 -39l-38 1q8 56 34 87.5t64 31.5q24 0 45 -9.5
t41 -21.5q5 -3 10.5 -6.5t11.5 -6.5q14 -7 28.5 -12.5t29.5 -5.5q17 0 26 11.5t16 38.5l36 1v0z" />
    <glyph glyph-name="Odieresis" unicode="&#xd6;" horiz-adv-x="833" 
d="M417 735q153 -1 266.5 -115t113.5 -268q0 -101 -54.5 -191.5t-143.5 -135.5q-38 -19 -84.5 -28.5t-97.5 -9.5q-108 0 -188.5 41.5t-133.5 125.5q-29 45 -44 95.5t-15 102.5q0 154 113.5 268t267.5 114v1zM419 693q-103 -1 -153 -87t-50 -262q0 -160 49.5 -238t152.5 -78
q111 0 150 76t46 166q2 23 2.5 45.5t0.5 43.5q0 166 -50 249.5t-148 83.5v1zM314 939q30 -1 51 -22t21 -51t-21 -51t-51 -21t-51 21t-21 51t21 51t51 21v1zM520 940q30 -1 51 -22.5t21 -50.5q0 -30 -21 -51t-51 -21t-51 21t-21 51q0 29 21 50.5t51 21.5v1z" />
    <glyph glyph-name="multiply" unicode="&#xd7;" 
 />
    <glyph glyph-name="plusminus" unicode="&#xd8;" horiz-adv-x="833" 
d="M168 62l-66 -75h-61l94 107q-32 38 -52 67.5t-31 57.5q-12 29 -16 59.5t-4 71.5q0 156 114 270t270 114q68 0 124.5 -23t110.5 -61l73 85h60l-101 -114q25 -30 44 -56t32 -52q18 -36 26 -74t8 -85q0 -103 -55 -193.5t-144 -135.5q-39 -19 -85.5 -28.5t-99.5 -9.5
q-51 0 -90.5 6.5t-76.5 23.5q-18 8 -36 19t-38 25v1zM246 149q27 -65 66.5 -93t103.5 -28q109 0 148 74.5t46 164.5q2 18 2.5 36.5t0.5 36.5q0 46 -5 91t-13 90l-349 -372v0zM230 201l351 373q-25 60 -66 89t-100 29q-97 0 -141 -69.5t-56 -153.5q-3 -22 -4.5 -43.5
t-1.5 -41.5q0 -23 2 -46t5 -46q1 -8 2 -15.5t2 -15.5l4 -30t3 -31v1z" />
    <glyph glyph-name="Thorn" unicode="&#xd9;" horiz-adv-x="833" 
d="M548 677v45h276v-45h-8q-56 -1 -74 -28.5t-18 -114.5v-271q0 -60 -7.5 -97.5t-26.5 -67.5q-33 -54 -99.5 -82.5t-157.5 -28.5q-89 0 -162 26.5t-109 72.5q-24 31 -35.5 76t-11.5 108v303q0 75 -17 89t-85 14v46h366v-45h-13q-61 -1 -75 -17.5t-14 -87.5v-274
q0 -104 38 -185.5t160 -81.5q101 0 150 58t49 153v293q0 79 -20 110t-106 31v1zM418 786l-127 49q-9 2 -16 5.5t-14 6.5q-23 12 -33 25t-10 30q0 21 15.5 37.5t35.5 16.5q14 0 29 -8t31 -24l113 -116l-24 -22v0z" />
    <glyph glyph-name="Eth" unicode="&#xda;" horiz-adv-x="833" 
d="M548 677v45h276v-45h-8q-56 -1 -74 -28.5t-18 -114.5v-271q0 -60 -7.5 -97.5t-26.5 -67.5q-33 -54 -99.5 -82.5t-157.5 -28.5q-89 0 -162 26.5t-109 72.5q-24 31 -35.5 76t-11.5 108v303q0 75 -17 89t-85 14v46h366v-45h-13q-61 -1 -75 -17.5t-14 -87.5v-274
q0 -104 38 -185.5t160 -81.5q101 0 150 58t49 153v293q0 79 -20 110t-106 31v1zM416 786l-24 22l113 117q5 4 10 8.5t10 8.5q10 7 20.5 10.5t19.5 3.5q20 0 35.5 -16.5t15.5 -37.5q0 -17 -10 -30t-34 -25q-6 -3 -13.5 -6.5t-16.5 -6.5l-126 -48v0z" />
    <glyph glyph-name="eth" unicode="&#xdb;" horiz-adv-x="833" 
d="M548 677v45h276v-45h-8q-56 -1 -74 -28.5t-18 -114.5v-271q0 -60 -7.5 -97.5t-26.5 -67.5q-33 -54 -99.5 -82.5t-157.5 -28.5q-89 0 -162 26.5t-109 72.5q-24 31 -35.5 76t-11.5 108v303q0 75 -17 89t-85 14v46h366v-45h-13q-61 -1 -75 -17.5t-14 -87.5v-274
q0 -104 38 -185.5t160 -81.5q101 0 150 58t49 153v293q0 79 -20 110t-106 31v1zM594 794h-63l-115 83l-118 -83h-59l138 152h84l133 -152v0z" />
    <glyph glyph-name="Udieresis" unicode="&#xdc;" horiz-adv-x="833" 
d="M548 677v45h276v-45h-8q-56 -1 -74 -28.5t-18 -114.5v-271q0 -60 -7.5 -97.5t-26.5 -67.5q-33 -54 -99.5 -82.5t-157.5 -28.5q-89 0 -162 26.5t-109 72.5q-24 31 -35.5 76t-11.5 108v303q0 75 -17 89t-85 14v46h366v-45h-13q-61 -1 -75 -17.5t-14 -87.5v-274
q0 -104 38 -185.5t160 -81.5q101 0 150 58t49 153v293q0 79 -20 110t-106 31v1zM314 939q30 -1 51 -22t21 -51t-21 -51t-51 -21t-51 21t-21 51t21 51t51 21v1zM520 940q30 -1 51 -22.5t21 -50.5q0 -30 -21 -51t-51 -21t-51 21t-21 51q0 29 21 50.5t51 21.5v1z" />
    <glyph glyph-name="Yacute" unicode="&#xdd;" 
 />
    <glyph glyph-name="glyph236" unicode="&#xde;" horiz-adv-x="759" 
d="M276 163q0 -79 13 -99t92 -20v-44h-372v45q73 -1 89 16t16 87v425q0 77 -18 90t-87 13v46h372v-45h-13q-4 -1 -7.5 -1h-7.5h-2.5h-2.5q-27 -1 -49 -9t-22 -46l-1 -48h178q84 -1 133 -8.5t89 -26.5q52 -24 80.5 -65.5t28.5 -91.5q0 -105 -75 -152t-165 -60
q-27 -4 -52.5 -5.5t-49.5 -1.5l-167 1v0zM276 213h89q61 -1 97 5t67 21q36 19 58.5 56t22.5 79q0 71 -51.5 112t-141.5 41l-72 1q-43 -1 -56 -12t-13 -47v-256v0z" />
    <glyph glyph-name="germandbls" unicode="&#xdf;" horiz-adv-x="611" 
d="M419 450q29 -5 46.5 -10t32.5 -14q4 -3 8 -5.5t8 -5.5q40 -30 60 -77.5t20 -110.5q0 -105 -55 -172.5t-140 -67.5q-54 0 -88 28.5t-34 74.5q0 34 18.5 55.5t46.5 21.5q26 0 42.5 -16.5t16.5 -43.5q0 -9 -2.5 -16t-5.5 -13q-2 -3 -3.5 -6.5t-2.5 -6.5q-2 -3 -2.5 -6
t-0.5 -6q0 -5 4 -9.5t10 -6.5q1 0 2.5 -0.5t2.5 -0.5q22 0 35 41.5t13 111.5q0 107 -31.5 167.5t-150.5 60.5v60q2 -1 3.5 -1h2.5q2 -1 3 -1h2q63 0 96 31t33 89q0 47 -21 72t-60 25q-46 0 -70 -31t-24 -91v-570h-220v42h13q44 -1 55.5 16.5t11.5 84.5v374q0 103 60.5 160
t169.5 57q98 0 151.5 -41.5t53.5 -115.5q0 -56 -23.5 -83.5t-86.5 -44.5v1z" />
    <glyph glyph-name="agrave" unicode="&#xe0;" horiz-adv-x="611" 
d="M370 64q-4 -6 -8.5 -10t-8.5 -8q-35 -34 -74.5 -46.5t-99.5 -12.5q-70 0 -114 32.5t-44 85.5q0 71 60 106.5t132 52.5q39 10 75.5 16t64.5 12h0.5h1.5v59q0 47 -26.5 71.5t-79.5 24.5q-3 0 -16.5 -1.5t-28.5 -4.5q-17 -4 -31.5 -10t-14.5 -15l4.5 -5.5t10.5 -14.5
q5 -9 9.5 -20t4.5 -23q0 -30 -20.5 -50t-50.5 -20t-51.5 21t-21.5 49q0 56 65 96t157 40q64 0 116 -15.5t83 -44.5q4 -3 7 -6.5t6 -6.5q15 -17 20.5 -37t5.5 -54v-214q0 -23 8 -33.5t25 -10.5h5.5t4.5 1q10 2 20.5 8t22.5 17l27 -22q-25 -42 -58.5 -63t-71.5 -21
q-42 0 -70.5 18.5t-45.5 57.5v1zM355 248q-17 -3 -30 -5t-23 -3q-19 -4 -31.5 -7t-23.5 -8q-3 -2 -5.5 -3t-5.5 -3q-23 -13 -39.5 -35.5t-20.5 -46.5q0 -4 -0.5 -7.5t-0.5 -7.5q0 -30 21.5 -49.5t55.5 -19.5q45 0 74 33t29 84v78v0zM307 540l-127 49q-9 2 -16 5.5t-14 6.5
q-23 12 -33 25t-10 30q0 21 15.5 37.5t35.5 16.5q14 0 29 -8t31 -24l113 -116l-24 -22v0z" />
    <glyph glyph-name="aacute" unicode="&#xe1;" horiz-adv-x="611" 
d="M370 64q-4 -6 -8.5 -10t-8.5 -8q-35 -34 -74.5 -46.5t-99.5 -12.5q-70 0 -114 32.5t-44 85.5q0 71 60 106.5t132 52.5q39 10 75.5 16t64.5 12h0.5h1.5v59q0 47 -26.5 71.5t-79.5 24.5q-3 0 -16.5 -1.5t-28.5 -4.5q-17 -4 -31.5 -10t-14.5 -15l4.5 -5.5t10.5 -14.5
q5 -9 9.5 -20t4.5 -23q0 -30 -20.5 -50t-50.5 -20t-51.5 21t-21.5 49q0 56 65 96t157 40q64 0 116 -15.5t83 -44.5q4 -3 7 -6.5t6 -6.5q15 -17 20.5 -37t5.5 -54v-214q0 -23 8 -33.5t25 -10.5h5.5t4.5 1q10 2 20.5 8t22.5 17l27 -22q-25 -42 -58.5 -63t-71.5 -21
q-42 0 -70.5 18.5t-45.5 57.5v1zM355 248q-17 -3 -30 -5t-23 -3q-19 -4 -31.5 -7t-23.5 -8q-3 -2 -5.5 -3t-5.5 -3q-23 -13 -39.5 -35.5t-20.5 -46.5q0 -4 -0.5 -7.5t-0.5 -7.5q0 -30 21.5 -49.5t55.5 -19.5q45 0 74 33t29 84v78v0zM305 540l-24 22l113 117q5 4 10 8.5
t10 8.5q10 7 20.5 10.5t19.5 3.5q20 0 35.5 -16.5t15.5 -37.5q0 -17 -10 -30t-34 -25q-6 -3 -13.5 -6.5t-16.5 -6.5l-126 -48v0z" />
    <glyph glyph-name="acircumflex" unicode="&#xe2;" horiz-adv-x="611" 
d="M370 64q-4 -6 -8.5 -10t-8.5 -8q-35 -34 -74.5 -46.5t-99.5 -12.5q-70 0 -114 32.5t-44 85.5q0 71 60 106.5t132 52.5q39 10 75.5 16t64.5 12h0.5h1.5v59q0 47 -26.5 71.5t-79.5 24.5q-3 0 -16.5 -1.5t-28.5 -4.5q-17 -4 -31.5 -10t-14.5 -15l4.5 -5.5t10.5 -14.5
q5 -9 9.5 -20t4.5 -23q0 -30 -20.5 -50t-50.5 -20t-51.5 21t-21.5 49q0 56 65 96t157 40q64 0 116 -15.5t83 -44.5q4 -3 7 -6.5t6 -6.5q15 -17 20.5 -37t5.5 -54v-214q0 -23 8 -33.5t25 -10.5h5.5t4.5 1q10 2 20.5 8t22.5 17l27 -22q-25 -42 -58.5 -63t-71.5 -21
q-42 0 -70.5 18.5t-45.5 57.5v1zM355 248q-17 -3 -30 -5t-23 -3q-19 -4 -31.5 -7t-23.5 -8q-3 -2 -5.5 -3t-5.5 -3q-23 -13 -39.5 -35.5t-20.5 -46.5q0 -4 -0.5 -7.5t-0.5 -7.5q0 -30 21.5 -49.5t55.5 -19.5q45 0 74 33t29 84v78v0zM483 549h-63l-115 83l-118 -83h-59
l138 152h84l133 -152v0z" />
    <glyph glyph-name="atilde" unicode="&#xe3;" horiz-adv-x="611" 
d="M370 64q-4 -6 -8.5 -10t-8.5 -8q-35 -34 -74.5 -46.5t-99.5 -12.5q-70 0 -114 32.5t-44 85.5q0 71 60 106.5t132 52.5q39 10 75.5 16t64.5 12h0.5h1.5v59q0 47 -26.5 71.5t-79.5 24.5q-3 0 -16.5 -1.5t-28.5 -4.5q-17 -4 -31.5 -10t-14.5 -15l4.5 -5.5t10.5 -14.5
q5 -9 9.5 -20t4.5 -23q0 -30 -20.5 -50t-50.5 -20t-51.5 21t-21.5 49q0 56 65 96t157 40q64 0 116 -15.5t83 -44.5q4 -3 7 -6.5t6 -6.5q15 -17 20.5 -37t5.5 -54v-214q0 -23 8 -33.5t25 -10.5h5.5t4.5 1q10 2 20.5 8t22.5 17l27 -22q-25 -42 -58.5 -63t-71.5 -21
q-42 0 -70.5 18.5t-45.5 57.5v1zM355 248q-17 -3 -30 -5t-23 -3q-19 -4 -31.5 -7t-23.5 -8q-3 -2 -5.5 -3t-5.5 -3q-23 -13 -39.5 -35.5t-20.5 -46.5q0 -4 -0.5 -7.5t-0.5 -7.5q0 -30 21.5 -49.5t55.5 -19.5q45 0 74 33t29 84v78v0zM476 679q-12 -65 -35.5 -93t-67.5 -28
q-11 0 -23 3t-24 8q-10 4 -20.5 9.5t-20.5 10.5q-22 12 -41.5 21.5t-34.5 9.5q-14 0 -22.5 -11t-14.5 -39l-38 1q8 56 34 87.5t64 31.5q24 0 45 -9.5t41 -21.5q5 -3 10.5 -6.5t11.5 -6.5q14 -7 28.5 -12.5t29.5 -5.5q17 0 26 11.5t16 38.5l36 1v0z" />
    <glyph glyph-name="adieresis" unicode="&#xe4;" horiz-adv-x="611" 
d="M370 64q-4 -6 -8.5 -10t-8.5 -8q-35 -34 -74.5 -46.5t-99.5 -12.5q-70 0 -114 32.5t-44 85.5q0 71 60 106.5t132 52.5q39 10 75.5 16t64.5 12h0.5h1.5v59q0 47 -26.5 71.5t-79.5 24.5q-3 0 -16.5 -1.5t-28.5 -4.5q-17 -4 -31.5 -10t-14.5 -15l4.5 -5.5t10.5 -14.5
q5 -9 9.5 -20t4.5 -23q0 -30 -20.5 -50t-50.5 -20t-51.5 21t-21.5 49q0 56 65 96t157 40q64 0 116 -15.5t83 -44.5q4 -3 7 -6.5t6 -6.5q15 -17 20.5 -37t5.5 -54v-214q0 -23 8 -33.5t25 -10.5h5.5t4.5 1q10 2 20.5 8t22.5 17l27 -22q-25 -42 -58.5 -63t-71.5 -21
q-42 0 -70.5 18.5t-45.5 57.5v1zM355 248q-17 -3 -30 -5t-23 -3q-19 -4 -31.5 -7t-23.5 -8q-3 -2 -5.5 -3t-5.5 -3q-23 -13 -39.5 -35.5t-20.5 -46.5q0 -4 -0.5 -7.5t-0.5 -7.5q0 -30 21.5 -49.5t55.5 -19.5q45 0 74 33t29 84v78v0zM203 693q30 -1 51 -22t21 -51t-21 -51
t-51 -21t-51 21t-21 51t21 51t51 21v1zM409 694q30 -1 51 -22.5t21 -50.5q0 -30 -21 -51t-51 -21t-51 21t-21 51q0 29 21 50.5t51 21.5v1z" />
    <glyph glyph-name="aring" unicode="&#xe5;" horiz-adv-x="611" 
d="M370 64q-4 -6 -8.5 -10t-8.5 -8q-35 -34 -74.5 -46.5t-99.5 -12.5q-70 0 -114 32.5t-44 85.5q0 71 60 106.5t132 52.5q39 10 75.5 16t64.5 12h0.5h1.5v59q0 47 -26.5 71.5t-79.5 24.5q-3 0 -16.5 -1.5t-28.5 -4.5q-17 -4 -31.5 -10t-14.5 -15l4.5 -5.5t10.5 -14.5
q5 -9 9.5 -20t4.5 -23q0 -30 -20.5 -50t-50.5 -20t-51.5 21t-21.5 49q0 56 65 96t157 40q64 0 116 -15.5t83 -44.5q4 -3 7 -6.5t6 -6.5q15 -17 20.5 -37t5.5 -54v-214q0 -23 8 -33.5t25 -10.5h5.5t4.5 1q10 2 20.5 8t22.5 17l27 -22q-25 -42 -58.5 -63t-71.5 -21
q-42 0 -70.5 18.5t-45.5 57.5v1zM355 248q-17 -3 -30 -5t-23 -3q-19 -4 -31.5 -7t-23.5 -8q-3 -2 -5.5 -3t-5.5 -3q-23 -13 -39.5 -35.5t-20.5 -46.5q0 -4 -0.5 -7.5t-0.5 -7.5q0 -30 21.5 -49.5t55.5 -19.5q45 0 74 33t29 84v78v0zM305 722q40 -1 68 -29t28 -68t-28 -68
t-68 -28t-68 28t-28 68t28 68t68 28v1zM305 677q-19 -1 -33.5 -16.5t-14.5 -36.5q0 -22 14.5 -37.5t33.5 -15.5q20 0 34 15.5t14 36.5q0 22 -14 37.5t-34 15.5v1z" />
    <glyph glyph-name="Otilde" unicode="&#xe6;" horiz-adv-x="870" 
d="M837 143q-43 -72 -103 -114t-147 -42q-65 0 -119 30.5t-90 82.5q-35 -57 -82.5 -85t-115.5 -28q-73 0 -117.5 32t-44.5 84q0 71 59 107t130 54q37 10 73 15.5t63 10.5v43q0 63 -22.5 90.5t-75.5 27.5q-4 0 -16.5 -1.5t-26.5 -5.5q-17 -4 -31 -10.5t-14 -15.5
q0 -2 4.5 -7.5t10.5 -13.5q5 -9 9.5 -19t4.5 -21q0 -31 -20 -52.5t-51 -21.5q-29 0 -51 22t-22 50q0 57 64.5 95.5t158.5 38.5q36 0 63 -4t53 -14q14 -5 28 -12t30 -17q13 8 25.5 14.5t24.5 11.5q26 11 53.5 16t59.5 5q103 0 169.5 -62t66.5 -157v-12t-1 -20l-343 1
q2 -57 7 -84.5t20 -48.5q3 -4 6 -7.5t6 -7.5q20 -22 44.5 -33.5t51.5 -11.5q59 0 101 37t72 82l35 -22v0zM343 239q-12 -2 -25.5 -4.5t-26.5 -5.5q-43 -11 -79 -35.5t-36 -74.5q0 -29 20 -49t48 -20q45 0 72 32t27 84v73v0zM694 281q-1 94 -22 132t-73 38q-50 0 -71 -36
t-28 -79q-2 -14 -3.5 -28.5t-2.5 -27.5l200 1v0z" />
    <glyph glyph-name="ccedilla" unicode="&#xe7;" horiz-adv-x="556" 
d="M311 -12l-8 -32h6h6q33 -3 60 -19t27 -54q0 -40 -34 -65t-88 -25q-12 0 -23 1t-21 3q-15 4 -30.5 10t-36.5 17l19 36q10 -6 19.5 -10t18.5 -7t18.5 -4t19.5 -1q29 0 47 11.5t18 31.5q0 17 -14 27t-39 10q-4 0 -8.5 -0.5t-9.5 -0.5q-4 0 -8.5 -0.5t-9.5 -0.5l24 72
q-104 12 -169.5 72t-65.5 171q0 115 79.5 186.5t206.5 71.5q92 0 150 -38t58 -97q0 -35 -21.5 -58t-55.5 -23q-32 0 -54 22.5t-22 54.5q0 26 15 44t43 23q3 1 4.5 2t1.5 2l-0.5 1t-0.5 2q-1 0 -2 1t-2 1q-22 13 -46 19t-50 6q-88 0 -121 -51.5t-33 -133.5
q0 -106 36.5 -159.5t108.5 -53.5q62 0 106.5 35.5t72.5 87.5l39 -16q-28 -81 -86.5 -124t-144.5 -48v0z" />
    <glyph glyph-name="egrave" unicode="&#xe8;" horiz-adv-x="574" 
d="M541 144q-47 -81 -108.5 -119t-143.5 -38q-112 0 -186 71t-74 180q0 111 76.5 181t197.5 70q104 0 171.5 -63t67.5 -161v-6.5v-7.5q-1 -4 -1 -8v-9l-357 1q4 -72 29.5 -130.5t112.5 -58.5q60 0 104 36t74 84l37 -22v0zM393 277q0 12 -0.5 26t-1.5 28q-5 45 -25.5 82.5
t-74.5 37.5q-55 0 -76.5 -38t-27.5 -84q-1 -13 -2 -27t-2 -26l210 1v0zM288 540l-127 49q-9 2 -16 5.5t-14 6.5q-23 12 -33 25t-10 30q0 21 15.5 37.5t35.5 16.5q14 0 29 -8t31 -24l113 -116l-24 -22v0z" />
    <glyph glyph-name="eacute" unicode="&#xe9;" horiz-adv-x="574" 
d="M541 144q-47 -81 -108.5 -119t-143.5 -38q-112 0 -186 71t-74 180q0 111 76.5 181t197.5 70q104 0 171.5 -63t67.5 -161v-6.5v-7.5q-1 -4 -1 -8v-9l-357 1q4 -72 29.5 -130.5t112.5 -58.5q60 0 104 36t74 84l37 -22v0zM393 277q0 12 -0.5 26t-1.5 28q-5 45 -25.5 82.5
t-74.5 37.5q-55 0 -76.5 -38t-27.5 -84q-1 -13 -2 -27t-2 -26l210 1v0zM287 540l-24 22l113 117q5 4 10 8.5t10 8.5q10 7 20.5 10.5t19.5 3.5q20 0 35.5 -16.5t15.5 -37.5q0 -17 -10 -30t-34 -25q-6 -3 -13.5 -6.5t-16.5 -6.5l-126 -48v0z" />
    <glyph glyph-name="ecircumflex" unicode="&#xea;" horiz-adv-x="574" 
d="M541 144q-47 -81 -108.5 -119t-143.5 -38q-112 0 -186 71t-74 180q0 111 76.5 181t197.5 70q104 0 171.5 -63t67.5 -161v-6.5v-7.5q-1 -4 -1 -8v-9l-357 1q4 -72 29.5 -130.5t112.5 -58.5q60 0 104 36t74 84l37 -22v0zM393 277q0 12 -0.5 26t-1.5 28q-5 45 -25.5 82.5
t-74.5 37.5q-55 0 -76.5 -38t-27.5 -84q-1 -13 -2 -27t-2 -26l210 1v0zM465 549h-63l-115 83l-118 -83h-59l138 152h84l133 -152v0z" />
    <glyph glyph-name="edieresis" unicode="&#xeb;" horiz-adv-x="574" 
d="M541 144q-47 -81 -108.5 -119t-143.5 -38q-112 0 -186 71t-74 180q0 111 76.5 181t197.5 70q104 0 171.5 -63t67.5 -161v-6.5v-7.5q-1 -4 -1 -8v-9l-357 1q4 -72 29.5 -130.5t112.5 -58.5q60 0 104 36t74 84l37 -22v0zM393 277q0 12 -0.5 26t-1.5 28q-5 45 -25.5 82.5
t-74.5 37.5q-55 0 -76.5 -38t-27.5 -84q-1 -13 -2 -27t-2 -26l210 1v0zM185 693q30 -1 51 -22t21 -51t-21 -51t-51 -21t-51 21t-21 51t21 51t51 21v1zM391 694q30 -1 51 -22.5t21 -50.5q0 -30 -21 -51t-51 -21t-51 21t-21 51q0 29 21 50.5t51 21.5v1z" />
    <glyph glyph-name="igrave" unicode="&#xec;" horiz-adv-x="370" 
d="M45 0v42h14q45 -1 55.5 15.5t10.5 85.5v231q0 40 -10 50t-50 10l-20 1v42q27 -1 54.5 0t55.5 3q28 1 55.5 3.5t54.5 5.5v-345q0 -71 10.5 -87t54.5 -16l15 1v-42h-300v0zM187 540l-127 49q-9 2 -16 5.5t-14 6.5q-23 12 -32.5 25t-9.5 30q0 21 15 37.5t35 16.5q14 0 29 -8
t31 -24l113 -116l-24 -22v0z" />
    <glyph glyph-name="iacute" unicode="&#xed;" horiz-adv-x="370" 
d="M45 0v42h14q45 -1 55.5 15.5t10.5 85.5v231q0 40 -10 50t-50 10l-20 1v42q27 -1 54.5 0t55.5 3q28 1 55.5 3.5t54.5 5.5v-345q0 -71 10.5 -87t54.5 -16l15 1v-42h-300v0zM185 540l-24 22l113 117q5 4 10 8.5t10 8.5q10 7 20.5 10.5t19.5 3.5q20 0 35.5 -16.5t15.5 -37.5
q0 -17 -10 -30t-34 -25q-6 -3 -13.5 -6.5t-16.5 -6.5l-126 -48v0z" />
    <glyph glyph-name="icircumflex" unicode="&#xee;" horiz-adv-x="370" 
d="M45 0v42h14q45 -1 55.5 15.5t10.5 85.5v231q0 40 -10 50t-50 10l-20 1v42q27 -1 54.5 0t55.5 3q28 1 55.5 3.5t54.5 5.5v-345q0 -71 10.5 -87t54.5 -16l15 1v-42h-300v0zM363 549h-63l-115 83l-118 -83h-59l138 152h84l133 -152v0z" />
    <glyph glyph-name="idieresis" unicode="&#xef;" horiz-adv-x="370" 
d="M45 0v42h14q45 -1 55.5 15.5t10.5 85.5v231q0 40 -10 50t-50 10l-20 1v42q27 -1 54.5 0t55.5 3q28 1 55.5 3.5t54.5 5.5v-345q0 -71 10.5 -87t54.5 -16l15 1v-42h-300v0zM82 693q30 -1 51 -22t21 -51t-21 -51t-51 -21t-51 21t-21 51t21 51t51 21v1zM288 694
q30 -1 51 -22.5t21 -50.5q0 -30 -21 -51t-51 -21t-51 21t-21 51q0 29 21 50.5t51 21.5v1z" />
    <glyph glyph-name="glyph233" unicode="&#xf0;" horiz-adv-x="611" 
d="M330 489q-5 5 -9 11t-9 11q-3 4 -6.5 7.5t-6.5 7.5q-12 13 -26.5 27t-36.5 33l-112 -65l-34 56l89 51q-22 16 -44 29t-47 23l34 51q29 -7 61 -21.5t67 -37.5l139 85l34 -59l-100 -61q19 -14 34 -24.5t28 -21.5q12 -9 22.5 -19t20.5 -21q15 -16 32 -37.5t38 -50.5
q35 -48 60 -101.5t25 -114.5q0 -117 -76.5 -188.5t-201.5 -71.5q-121 0 -199 70.5t-78 181.5q0 112 76.5 181t200.5 69h6h5q3 0 6.5 -0.5t7.5 -0.5v1zM309 448q-61 -1 -92 -50t-31 -148q0 -112 29.5 -167t87.5 -55q57 0 82.5 45t33.5 100q4 26 5 51.5t1 45.5q0 87 -29.5 132
t-86.5 45v1z" />
    <glyph glyph-name="ntilde" unicode="&#xf1;" horiz-adv-x="685" 
d="M674 0h-273v42q35 -1 43.5 14t9.5 47v41v170q0 49 -19 71t-63 22q-56 0 -90 -38t-34 -100v-125l1 -40q0 -32 10.5 -47.5t41.5 -15.5v-41h-273v42h15q44 -1 54.5 15t10.5 86v231q0 39 -11 49.5t-52 10.5l-17 1v42q53 -1 106.5 3t106.5 10v-95q30 44 78.5 69t105.5 25
q83 0 126 -48t43 -128v-169q0 -71 10.5 -87t54.5 -16l15 1v-42v0zM513 679q-12 -65 -35.5 -93t-67.5 -28q-11 0 -23 3t-24 8q-10 4 -20.5 9.5t-20.5 10.5q-22 12 -41.5 21.5t-34.5 9.5q-14 0 -22.5 -11t-14.5 -39l-38 1q8 56 34 87.5t64 31.5q24 0 45 -9.5t41 -21.5
q5 -3 10.5 -6.5t11.5 -6.5q14 -7 28.5 -12.5t29.5 -5.5q17 0 26 11.5t16 38.5l36 1v0z" />
    <glyph glyph-name="ograve" unicode="&#xf2;" horiz-adv-x="611" 
d="M306 490q123 -1 200 -70t77 -179q0 -112 -78 -183t-200 -71q-121 0 -199 70.5t-78 181.5q0 112 77 181t201 69v1zM309 448q-61 -1 -92 -50t-31 -148q0 -112 29.5 -167t87.5 -55q57 0 82.5 45t33.5 100q4 26 5 51.5t1 45.5q0 87 -29.5 132t-86.5 45v1zM307 540l-127 49
q-9 2 -16 5.5t-14 6.5q-23 12 -33 25t-10 30q0 21 15.5 37.5t35.5 16.5q14 0 29 -8t31 -24l113 -116l-24 -22v0z" />
    <glyph glyph-name="oacute" unicode="&#xf3;" horiz-adv-x="611" 
d="M306 490q123 -1 200 -70t77 -179q0 -112 -78 -183t-200 -71q-121 0 -199 70.5t-78 181.5q0 112 77 181t201 69v1zM309 448q-61 -1 -92 -50t-31 -148q0 -112 29.5 -167t87.5 -55q57 0 82.5 45t33.5 100q4 26 5 51.5t1 45.5q0 87 -29.5 132t-86.5 45v1zM305 540l-24 22
l113 117q5 4 10 8.5t10 8.5q10 7 20.5 10.5t19.5 3.5q20 0 35.5 -16.5t15.5 -37.5q0 -17 -10 -30t-34 -25q-6 -3 -13.5 -6.5t-16.5 -6.5l-126 -48v0z" />
    <glyph glyph-name="ocircumflex" unicode="&#xf4;" horiz-adv-x="611" 
d="M306 490q123 -1 200 -70t77 -179q0 -112 -78 -183t-200 -71q-121 0 -199 70.5t-78 181.5q0 112 77 181t201 69v1zM309 448q-61 -1 -92 -50t-31 -148q0 -112 29.5 -167t87.5 -55q57 0 82.5 45t33.5 100q4 26 5 51.5t1 45.5q0 87 -29.5 132t-86.5 45v1zM483 549h-63
l-115 83l-118 -83h-59l138 152h84l133 -152v0z" />
    <glyph glyph-name="otilde" unicode="&#xf5;" horiz-adv-x="611" 
d="M306 490q123 -1 200 -70t77 -179q0 -112 -78 -183t-200 -71q-121 0 -199 70.5t-78 181.5q0 112 77 181t201 69v1zM309 448q-61 -1 -92 -50t-31 -148q0 -112 29.5 -167t87.5 -55q57 0 82.5 45t33.5 100q4 26 5 51.5t1 45.5q0 87 -29.5 132t-86.5 45v1zM476 679
q-12 -65 -35.5 -93t-67.5 -28q-11 0 -23 3t-24 8q-10 4 -20.5 9.5t-20.5 10.5q-22 12 -41.5 21.5t-34.5 9.5q-14 0 -22.5 -11t-14.5 -39l-38 1q8 56 34 87.5t64 31.5q24 0 45 -9.5t41 -21.5q5 -3 10.5 -6.5t11.5 -6.5q14 -7 28.5 -12.5t29.5 -5.5q17 0 26 11.5t16 38.5l36 1
v0z" />
    <glyph glyph-name="odieresis" unicode="&#xf6;" horiz-adv-x="611" 
d="M306 490q123 -1 200 -70t77 -179q0 -112 -78 -183t-200 -71q-121 0 -199 70.5t-78 181.5q0 112 77 181t201 69v1zM309 448q-61 -1 -92 -50t-31 -148q0 -112 29.5 -167t87.5 -55q57 0 82.5 45t33.5 100q4 26 5 51.5t1 45.5q0 87 -29.5 132t-86.5 45v1zM203 693
q30 -1 51 -22t21 -51t-21 -51t-51 -21t-51 21t-21 51t21 51t51 21v1zM409 694q30 -1 51 -22.5t21 -50.5q0 -30 -21 -51t-51 -21t-51 21t-21 51q0 29 21 50.5t51 21.5v1z" />
    <glyph glyph-name="Aacute" unicode="&#xf7;" 
 />
    <glyph glyph-name="OE" unicode="&#xf8;" horiz-adv-x="611" 
d="M513 418q2 -5 3.5 -7t2.5 -4q32 -32 47 -75t17 -88v-4.5v-4.5q0 -106 -78.5 -177t-197.5 -71q-45 0 -86 11t-80 33l-50 -51h-51l70 74q-43 38 -62.5 82.5t-19.5 103.5q0 115 79.5 180.5t188.5 68.5l1 1q50 -1 96 -13.5t84 -35.5l36 44h58l-58 -67v0zM422 326l-213 -223
q14 -38 37.5 -56.5t57.5 -18.5q58 0 83 45t32 99q4 26 5 51t1 45v17v14q-1 6 -1.5 12t-1.5 14v1zM196 145l215 227q-17 39 -41.5 57t-60.5 18q-61 0 -92 -49t-31 -147q0 -19 0.5 -32.5t1.5 -25.5q1 -11 3 -22.5t5 -26.5v1z" />
    <glyph glyph-name="ugrave" unicode="&#xf9;" horiz-adv-x="685" 
d="M605 490v-387q0 -41 11.5 -51.5t56.5 -10.5l12 1v-42q-27 0 -54.5 -1t-55.5 -3q-21 -2 -41.5 -3.5t-41.5 -3.5q-6 0 -13 -0.5t-14 -1.5v92q-43 -46 -95 -69t-108 -23q-8 0 -16.5 1t-16.5 2q-33 6 -64 22t-49 38q-22 27 -30.5 63t-8.5 101v160q0 39 -7 49.5t-33 10.5
l-40 1v42q28 -1 55.5 0t54.5 3q21 2 41.5 3.5t40.5 3.5q7 0 14 0.5t14 1.5v-287q0 -69 25.5 -101.5t78.5 -32.5q57 0 100.5 45t43.5 103v158q0 35 -14 47.5t-54 12.5l-19 1v42q29 -1 57 0t57 3q21 2 42 3.5t43 3.5q7 0 14 0.5t14 1.5v1zM344 540l-127 49q-9 2 -16 5.5
t-14 6.5q-23 12 -33 25t-10 30q0 21 15.5 37.5t35.5 16.5q14 0 29 -8t31 -24l113 -116l-24 -22v0z" />
    <glyph glyph-name="uacute" unicode="&#xfa;" horiz-adv-x="685" 
d="M605 490v-387q0 -41 11.5 -51.5t56.5 -10.5l12 1v-42q-27 0 -54.5 -1t-55.5 -3q-21 -2 -41.5 -3.5t-41.5 -3.5q-6 0 -13 -0.5t-14 -1.5v92q-43 -46 -95 -69t-108 -23q-8 0 -16.5 1t-16.5 2q-33 6 -64 22t-49 38q-22 27 -30.5 63t-8.5 101v160q0 39 -7 49.5t-33 10.5
l-40 1v42q28 -1 55.5 0t54.5 3q21 2 41.5 3.5t40.5 3.5q7 0 14 0.5t14 1.5v-287q0 -69 25.5 -101.5t78.5 -32.5q57 0 100.5 45t43.5 103v158q0 35 -14 47.5t-54 12.5l-19 1v42q29 -1 57 0t57 3q21 2 42 3.5t43 3.5q7 0 14 0.5t14 1.5v1zM342 540l-24 22l113 117q5 4 10 8.5
t10 8.5q10 7 20.5 10.5t19.5 3.5q20 0 35.5 -16.5t15.5 -37.5q0 -17 -10 -30t-34 -25q-6 -3 -13.5 -6.5t-16.5 -6.5l-126 -48v0z" />
    <glyph glyph-name="ucircumflex" unicode="&#xfb;" horiz-adv-x="685" 
d="M605 490v-387q0 -41 11.5 -51.5t56.5 -10.5l12 1v-42q-27 0 -54.5 -1t-55.5 -3q-21 -2 -41.5 -3.5t-41.5 -3.5q-6 0 -13 -0.5t-14 -1.5v92q-43 -46 -95 -69t-108 -23q-8 0 -16.5 1t-16.5 2q-33 6 -64 22t-49 38q-22 27 -30.5 63t-8.5 101v160q0 39 -7 49.5t-33 10.5
l-40 1v42q28 -1 55.5 0t54.5 3q21 2 41.5 3.5t40.5 3.5q7 0 14 0.5t14 1.5v-287q0 -69 25.5 -101.5t78.5 -32.5q57 0 100.5 45t43.5 103v158q0 35 -14 47.5t-54 12.5l-19 1v42q29 -1 57 0t57 3q21 2 42 3.5t43 3.5q7 0 14 0.5t14 1.5v1zM520 549h-63l-115 83l-118 -83h-59
l138 152h84l133 -152v0z" />
    <glyph glyph-name="udieresis" unicode="&#xfc;" horiz-adv-x="685" 
d="M605 490v-387q0 -41 11.5 -51.5t56.5 -10.5l12 1v-42q-27 0 -54.5 -1t-55.5 -3q-21 -2 -41.5 -3.5t-41.5 -3.5q-6 0 -13 -0.5t-14 -1.5v92q-43 -46 -95 -69t-108 -23q-8 0 -16.5 1t-16.5 2q-33 6 -64 22t-49 38q-22 27 -30.5 63t-8.5 101v160q0 39 -7 49.5t-33 10.5
l-40 1v42q28 -1 55.5 0t54.5 3q21 2 41.5 3.5t40.5 3.5q7 0 14 0.5t14 1.5v-287q0 -69 25.5 -101.5t78.5 -32.5q57 0 100.5 45t43.5 103v158q0 35 -14 47.5t-54 12.5l-19 1v42q29 -1 57 0t57 3q21 2 42 3.5t43 3.5q7 0 14 0.5t14 1.5v1zM240 693q30 -1 51 -22t21 -51
t-21 -51t-51 -21t-51 21t-21 51t21 51t51 21v1zM446 694q30 -1 51 -22.5t21 -50.5q0 -30 -21 -51t-51 -21t-51 21t-21 51q0 29 21 50.5t51 21.5v1z" />
    <glyph glyph-name="yacute" unicode="&#xfd;" 
 />
    <glyph glyph-name="glyph237" unicode="&#xfe;" horiz-adv-x="667" 
d="M256 41v-121q0 -26 18 -37t62 -11h10v-42h-320v42q65 0 77.5 17t12.5 85v645q0 40 -16.5 50t-51.5 10v43q53 -1 104.5 3t103.5 10v-314q7 6 13.5 12.5t13.5 12.5q28 23 57.5 33t69.5 10q105 0 168 -65.5t63 -174.5q0 -119 -66.5 -190.5t-176.5 -71.5q-48 0 -81 12.5
t-61 40.5v1zM377 431q-63 -1 -95 -51.5t-32 -149.5q0 -94 31.5 -146.5t88.5 -52.5q59 0 86.5 55t27.5 170q0 87 -27 130.5t-80 43.5v1z" />
    <glyph glyph-name="Egrave" unicode="&#xff;" horiz-adv-x="611" 
d="M136 -118q53 14 90.5 49.5t64.5 81.5l-214 388q-11 18 -27.5 23.5t-36.5 9.5q-2 0 -4.5 0.5t-4.5 0.5v43h287v-42q-6 -2 -10 -2h-7q-26 -1 -35 -5t-9 -15v-3.5v-2.5q1 -5 3 -10t7 -15l118 -230l96 205q1 1 1.5 2.5t0.5 3.5q3 8 5 15.5t2 13.5q0 20 -15.5 29t-61.5 13v43
h222v-42q-34 -3 -52 -11.5t-32 -32.5q-4 -5 -7 -11t-6 -13l-142 -295q-57 -119 -122 -179t-137 -60q-42 0 -72 23.5t-30 57.5q0 28 19 45.5t50 17.5q29 0 48 -18.5t19 -47.5v-1.5v-1.5q0 -5 -2 -11t-6 -16v0zM203 694q30 -1 51 -22t21 -51t-21 -51t-51 -21t-51 21t-21 51
t21 51t51 21v1zM409 695q30 -1 51 -22.5t21 -50.5q0 -30 -21 -51t-51 -21t-51 21t-21 51q0 29 21 50.5t51 21.5v1z" />
    <glyph glyph-name="Abreve" unicode="&#x102;" 
 />
    <glyph glyph-name="abreve" unicode="&#x103;" 
 />
    <glyph glyph-name="Aogonek" unicode="&#x104;" 
 />
    <glyph glyph-name="aogonek" unicode="&#x105;" 
 />
    <glyph glyph-name="Cacute" unicode="&#x106;" 
 />
    <glyph glyph-name="cacute" unicode="&#x107;" 
 />
    <glyph glyph-name="Ccaron" unicode="&#x10c;" 
 />
    <glyph glyph-name="ccaron" unicode="&#x10d;" 
 />
    <glyph glyph-name="Dcaron" unicode="&#x10e;" 
 />
    <glyph glyph-name="dcaron" unicode="&#x10f;" 
 />
    <glyph glyph-name="Dcroat" unicode="&#x110;" 
 />
    <glyph glyph-name="dcroat" unicode="&#x111;" 
 />
    <glyph glyph-name="Eogonek" unicode="&#x118;" 
 />
    <glyph glyph-name="eogonek" unicode="&#x119;" 
 />
    <glyph glyph-name="Ecaron" unicode="&#x11a;" 
 />
    <glyph glyph-name="ecaron" unicode="&#x11b;" 
 />
    <glyph glyph-name="Gbreve" unicode="&#x11e;" 
 />
    <glyph glyph-name="gbreve" unicode="&#x11f;" 
 />
    <glyph glyph-name="Idotaccent" unicode="&#x130;" 
 />
    <glyph glyph-name="thorn" unicode="&#x131;" horiz-adv-x="370" 
d="M45 0v42h14q45 -1 55.5 15.5t10.5 85.5v231q0 40 -10 50t-50 10l-20 1v42q27 -1 54.5 0t55.5 3q28 1 55.5 3.5t54.5 5.5v-345q0 -71 10.5 -87t54.5 -16l15 1v-42h-300v0z" />
    <glyph glyph-name="Lacute" unicode="&#x139;" 
 />
    <glyph glyph-name="lacute" unicode="&#x13a;" 
 />
    <glyph glyph-name="Lcaron" unicode="&#x13d;" 
 />
    <glyph glyph-name="lcaron" unicode="&#x13e;" 
 />
    <glyph glyph-name="Ldot" unicode="&#x13f;" 
 />
    <glyph glyph-name="ldot" unicode="&#x140;" 
 />
    <glyph glyph-name="glyph225" unicode="&#x141;" horiz-adv-x="722" 
d="M116 318v255q0 77 -18 90t-87 13v46h374v-45h-12q-46 -2 -61 -5.5t-23 -16.5q-1 -1 -2 -2.5t-1 -3.5q-6 -10 -7 -24.5t-1 -52.5v-140l157 111v-103l-157 -110v-215q0 -46 19 -58.5t88 -12.5l73 1q101 -1 150 66.5t71 154.5l40 1l-16 -267h-692v45q73 -1 89 16t16 87v68
l-72 -51v102l72 51v0z" />
    <glyph glyph-name="glyph226" unicode="&#x142;" horiz-adv-x="352" 
d="M253 466l77 76v-104l-77 -76v-218q0 -70 10.5 -86.5t55.5 -16.5l14 1v-42h-300v42h16q44 -1 54 15t10 86v99l-64 -62v104l64 62v273q0 39 -11 49.5t-53 10.5l-16 1v42q56 -1 110.5 2t109.5 10v-268v0z" />
    <glyph glyph-name="Nacute" unicode="&#x143;" 
 />
    <glyph glyph-name="nacute" unicode="&#x144;" 
 />
    <glyph glyph-name="Ncaron" unicode="&#x147;" 
 />
    <glyph glyph-name="ncaron" unicode="&#x148;" 
 />
    <glyph glyph-name="Ohungarumlaut" unicode="&#x150;" 
 />
    <glyph glyph-name="ohungarumlaut" unicode="&#x151;" 
 />
    <glyph glyph-name="fi" unicode="&#x152;" horiz-adv-x="1000" 
d="M947 0h-528q-10 -4 -18 -6.5t-15 -3.5q-9 -2 -18 -2.5t-22 -0.5q-61 0 -104 14.5t-82 49.5q-61 56 -94 135.5t-33 169.5q0 153 91 265.5t213 112.5q15 0 30 -2.5t30 -4.5q8 -2 16.5 -3.5t16.5 -2.5l506 1v-239h-36q-21 100 -62 146.5t-111 46.5l-67 1q-28 -1 -36 -10.5
t-8 -42.5v-224h27q42 -1 63.5 32t31.5 115l30 1v-346h-30q-9 85 -30.5 119t-66.5 34l-25 1v-261q0 -31 8 -41t31 -10l70 1q90 -1 126 59t54 132q2 9 4 17.5t4 16.5l44 1l-10 -271v0zM468 626q0 39 -21 54.5t-74 15.5q-79 0 -119.5 -90t-40.5 -268q0 -157 38 -233.5
t117 -76.5q59 0 79.5 19t20.5 71v508v0z" />
    <glyph glyph-name="fl" unicode="&#x153;" horiz-adv-x="907" 
d="M873 146q-42 -80 -101 -119.5t-134 -39.5q-51 0 -91.5 15.5t-75.5 48.5q-19 -15 -36.5 -25.5t-34.5 -18.5q-25 -10 -51 -15t-58 -5q-117 0 -190 69.5t-73 181.5q0 116 71.5 183.5t195.5 67.5q39 0 69.5 -6t58.5 -21q12 -6 23.5 -14t24.5 -17q39 31 81.5 44.5t97.5 13.5
q99 0 161.5 -63.5t62.5 -163.5v-10.5t-1 -15.5l-329 1q3 -60 8 -87t19 -47q2 -4 4 -7t5 -6q17 -21 41 -32.5t51 -11.5q57 0 97 37.5t67 82.5l1.5 1.5t0.5 1.5l35 -23v0zM295 452q-53 -1 -75.5 -42t-28.5 -90q-4 -24 -4.5 -47t-0.5 -41q0 -105 24 -153t76 -48q55 0 80.5 58.5
t25.5 182.5q0 88 -25 133.5t-72 45.5v1zM727 279q-1 93 -21.5 132.5t-67.5 39.5t-69 -40.5t-25 -132.5l183 1v0z" />
    <glyph glyph-name="Racute" unicode="&#x154;" 
 />
    <glyph glyph-name="racute" unicode="&#x155;" 
 />
    <glyph glyph-name="Rcaron" unicode="&#x158;" 
 />
    <glyph glyph-name="rcaron" unicode="&#x159;" 
 />
    <glyph glyph-name="Sacute" unicode="&#x15a;" 
 />
    <glyph glyph-name="sacute" unicode="&#x15b;" 
 />
    <glyph glyph-name="Scedilla" unicode="&#x15e;" 
 />
    <glyph glyph-name="scedilla" unicode="&#x15f;" 
 />
    <glyph glyph-name="glyph227" unicode="&#x160;" horiz-adv-x="667" 
d="M585 460h-41q-45 124 -97.5 178t-129.5 54q-60 0 -100.5 -31.5t-40.5 -78.5q0 -57 53 -81.5t122 -42.5q9 -2 17.5 -4.5t16.5 -4.5q45 -12 87.5 -27.5t72.5 -41.5t45.5 -66t15.5 -91q0 -103 -67.5 -169.5t-171.5 -66.5q-56 0 -108.5 19t-98.5 51l-62 -57h-44v279h44
q10 -29 18.5 -51t16.5 -40q13 -27 26.5 -46.5t31.5 -37.5l2 -2l2 -2q29 -29 65 -47t74 -23q7 -1 14 -1.5t14 -0.5q58 0 97.5 33t39.5 81q0 44 -29.5 73t-88.5 44l-106 28q-100 24 -153 81.5t-53 139.5q0 94 67 160t163 66q59 0 107 -15t92 -47l46 50h41v-262v0zM156 946h64
l114 -83l119 83h58l-138 -152h-83l-134 152v0z" />
    <glyph glyph-name="glyph228" unicode="&#x161;" horiz-adv-x="500" 
d="M426 326h-37q-27 45 -64 81.5t-96 36.5q-34 0 -55 -15t-21 -41q0 -35 32.5 -49t77.5 -24q10 -3 20.5 -5t21.5 -5q56 -14 103.5 -43.5t47.5 -106.5q0 -73 -53.5 -120.5t-134.5 -47.5q-34 0 -66 8.5t-61 25.5l-47 -34h-40v177h40q2 -4 4 -7.5t4 -6.5q29 -46 68 -84t98 -38
q37 0 59 18t22 47q0 33 -31 46.5t-75 22.5q-11 3 -23 5.5t-24 5.5q-57 14 -105 45.5t-48 111.5q0 68 52 113.5t128 45.5q14 0 27.5 -1.5t26.5 -4.5q17 -4 34 -11t36 -18l42 36h37v-164v0zM73 701h64l114 -83l119 83h58l-138 -152h-83l-134 152v0z" />
    <glyph glyph-name="uni0162" unicode="&#x162;" 
 />
    <glyph glyph-name="uni0163" unicode="&#x163;" 
 />
    <glyph glyph-name="Tcaron" unicode="&#x164;" 
 />
    <glyph glyph-name="tcaron" unicode="&#x165;" 
 />
    <glyph glyph-name="Uring" unicode="&#x16e;" 
 />
    <glyph glyph-name="uring" unicode="&#x16f;" 
 />
    <glyph glyph-name="Uhungarumlaut" unicode="&#x170;" 
 />
    <glyph glyph-name="uhungarumlaut" unicode="&#x171;" 
 />
    <glyph glyph-name="Iacute" unicode="&#x178;" horiz-adv-x="722" 
d="M440 329v-180v-49q0 -33 17.5 -43.5t74.5 -12.5l21 1v-45h-381v45h19q3 -1 6.5 -1h6.5q31 1 54 8.5t26 46.5v8t1 11v13.5v16.5v181l-211 319q-10 14 -26.5 19.5t-33.5 6.5q-4 0 -8 0.5t-6 0.5q-5 0 -9 0.5t-8 0.5l-1 46h349v-45h-10q-36 -1 -49.5 -5.5t-13.5 -15.5
q0 -5 3 -12t9 -18l148 -242l123 213q2 3 3.5 6.5t3.5 7.5q2 7 3.5 13.5t1.5 11.5q0 24 -21.5 30.5t-46.5 7.5q-5 1 -9 1h-8h-15t-13 1v46h300v-45q-49 -1 -81 -17.5t-58 -60.5l-161 -270v0zM259 939q30 -1 51 -22t21 -51t-21 -51t-51 -21t-51 21t-21 51t21 51t51 21v1z
M465 940q30 -1 51 -22.5t21 -50.5q0 -30 -21 -51t-51 -21t-51 21t-21 51q0 29 21 50.5t51 21.5v1z" />
    <glyph glyph-name="Zacute" unicode="&#x179;" 
 />
    <glyph glyph-name="zacute" unicode="&#x17a;" 
 />
    <glyph glyph-name="Zdotaccent" unicode="&#x17b;" 
 />
    <glyph glyph-name="zdotaccent" unicode="&#x17c;" 
 />
    <glyph glyph-name="Zcaron" unicode="&#x17d;" 
 />
    <glyph glyph-name="zcaron" unicode="&#x17e;" 
 />
    <glyph glyph-name="quotedblright" unicode="&#x192;" horiz-adv-x="574" 
d="M249 393h-78v80h93q4 21 10.5 46t15.5 51q26 73 76 133.5t128 60.5q51 0 87.5 -26t36.5 -62q0 -25 -18.5 -42.5t-46.5 -17.5q-25 0 -41 12.5t-24 37.5q-4 16 -9 22.5t-12 6.5q-5 0 -10.5 -4t-11.5 -11q-13 -15 -24.5 -43t-17.5 -59q-2 -8 -3 -16.5t-3 -16.5
q0 -2 -0.5 -3.5t-0.5 -3.5l-6 -34t-9 -32l97 1v-80h-108q-3 -22 -6 -40t-6 -34q-1 -6 -2 -12.5t-2 -12.5q-5 -26 -11.5 -55t-15.5 -71q-8 -33 -18.5 -77t-25.5 -90q-29 -86 -79.5 -158.5t-134.5 -72.5q-49 0 -82 28t-33 69q0 26 17.5 44.5t42.5 18.5q24 0 36.5 -13.5
t20.5 -30.5q3 -7 5.5 -13.5t5.5 -12.5q3 -7 6.5 -12t8.5 -5t10 3t11 9q7 7 14 17.5t12 22.5q4 11 8.5 24.5t9.5 29.5q12 42 23.5 95t21.5 110q13 68 24 132t18 106v1z" />
    <glyph glyph-name="uni02BA" unicode="&#x2ba;" horiz-adv-x="333" 
d="M108 525l-39 40l81 110q19 24 32 37t25 18q5 2 9.5 3t9.5 1q20 0 33 -14t13 -34q0 -5 -0.5 -9t-2.5 -8q-4 -11 -16.5 -24t-40.5 -36l-104 -84v0zM275 525l-39 40l81 110q20 25 33 38.5t26 17.5q4 2 8 2.5t8 0.5q20 0 33 -14t13 -36q0 -5 -0.5 -9.5t-2.5 -8.5
q-4 -10 -16.5 -22.5t-39.5 -34.5l-104 -84v0z" />
    <glyph glyph-name="arrowright" unicode="&#x2c6;" horiz-adv-x="333" 
d="M337 679q-12 -65 -35.5 -93t-67.5 -28q-11 0 -23 3t-24 8q-10 4 -20.5 9.5t-20.5 10.5q-22 12 -41.5 21.5t-34.5 9.5q-14 0 -22.5 -11t-14.5 -39l-38 1q8 56 34 87.5t64 31.5q24 0 45 -9.5t41 -21.5q5 -3 10.5 -6.5t11.5 -6.5q14 -7 28.5 -12.5t29.5 -5.5q17 0 26 11.5
t16 38.5l36 1v0z" />
    <glyph glyph-name="glyph224" unicode="&#x2c7;" horiz-adv-x="333" 
d="M-11 701h64l114 -83l119 83h58l-138 -152h-83l-134 152v0z" />
    <glyph glyph-name="house" unicode="&#x2c9;" horiz-adv-x="333" 
d="M309 588h-284v73h284v-73v0z" />
    <glyph glyph-name="endash" unicode="&#x2d8;" horiz-adv-x="333" 
d="M272 699h44q-1 -75 -39.5 -114.5t-110.5 -39.5t-110.5 39.5t-39.5 113.5l44 1q3 -45 28 -64.5t78 -19.5t78.5 20t27.5 63v1z" />
    <glyph glyph-name="sfthyphen" unicode="&#x2d9;" horiz-adv-x="333" 
d="M168 694q30 -1 51 -22t21 -51t-21 -51t-51 -21t-51 21t-21 51t21 51t51 21v1z" />
    <glyph glyph-name="filledbox" unicode="&#x2da;" horiz-adv-x="333" 
d="M166 722q40 -1 68 -29t28 -68t-28 -68t-68 -28t-68 28t-28 68t28 68t68 28v1zM166 677q-19 -1 -33.5 -16.5t-14.5 -36.5q0 -22 14.5 -37.5t33.5 -15.5q20 0 34 15.5t14 36.5q0 22 -14 37.5t-34 15.5v1z" />
    <glyph glyph-name="glyph223" unicode="&#x2db;" horiz-adv-x="333" 
d="M193 0q-4 -2 -8 -3.5t-7 -3.5q-21 -11 -30.5 -22.5t-9.5 -25.5q0 -16 12.5 -26t31.5 -10q15 0 31.5 8.5t34.5 25.5l21 -22q-18 -20 -37.5 -34t-38.5 -22q-13 -6 -25.5 -8.5t-25.5 -2.5q-34 0 -55.5 19t-21.5 51q0 25 12.5 41t43.5 31q2 1 4.5 2t4.5 2h63v0z" />
    <glyph glyph-name="onehalf" unicode="&#x2dc;" horiz-adv-x="333" 
d="M344 549h-63l-115 83l-118 -83h-59l138 152h84l133 -152v0z" />
    <glyph glyph-name="Gamma" unicode="&#x393;" 
 />
    <glyph glyph-name="Theta" unicode="&#x398;" 
 />
    <glyph glyph-name="exclamdown" unicode="&#x3a3;" 
 />
    <glyph glyph-name="Phi" unicode="&#x3a6;" 
 />
    <glyph glyph-name="Atilde" unicode="&#x3a9;" 
 />
    <glyph glyph-name="alpha" unicode="&#x3b1;" 
 />
    <glyph glyph-name="delta" unicode="&#x3b4;" 
 />
    <glyph glyph-name="epsilon" unicode="&#x3b5;" 
 />
    <glyph glyph-name="guillemotleft" unicode="&#x3c0;" 
 />
    <glyph glyph-name="sigma" unicode="&#x3c3;" 
 />
    <glyph glyph-name="tau" unicode="&#x3c4;" 
 />
    <glyph glyph-name="phi" unicode="&#x3c6;" 
 />
    <glyph glyph-name="glyph259" unicode="&#x2013;" horiz-adv-x="500" 
d="M500 223h-500v118h500v-118v0z" />
    <glyph glyph-name="periodcentered" unicode="&#x2014;" horiz-adv-x="1000" 
d="M1000 223h-1000v118h1000v-118v0z" />
    <glyph glyph-name="underscoredbl" unicode="&#x2017;" 
 />
    <glyph glyph-name="Acircumflex" unicode="&#x2018;" horiz-adv-x="241" 
d="M187 735l24 -34q-25 -14 -44.5 -28.5t-32.5 -28.5q-10 -12 -15 -23t-5 -22q0 -4 2.5 -6t6.5 -3q34 -5 53 -25.5t19 -52.5q0 -35 -23 -58.5t-57 -23.5q-37 0 -61.5 27t-24.5 68q0 7 0.5 14t1.5 14q10 59 54 111t102 70v1z" />
    <glyph glyph-name="Ecircumflex" unicode="&#x2019;" horiz-adv-x="241" 
d="M53 430l-24 34q23 11 42.5 25.5t32.5 29.5q10 12 16 24t6 22q0 4 -2 6t-7 3q-34 5 -53 26.5t-19 52.5q0 35 23.5 58t57.5 23q37 0 61 -26.5t24 -67.5v-2.5v-2.5q-2 -64 -46 -122t-112 -84v1z" />
    <glyph glyph-name="Ugrave" unicode="&#x201a;" 
 />
    <glyph glyph-name="quotedblbase" unicode="&#x201c;" horiz-adv-x="481" 
d="M208 735l24 -34q-24 -10 -45 -27t-35 -35q-8 -10 -12.5 -20.5t-4.5 -19.5q0 -2 2 -3t5 -3q5 -2 14.5 -5t19.5 -8q15 -7 27.5 -22.5t12.5 -45.5q0 -35 -23 -58.5t-58 -23.5q-37 0 -61 27t-24 68q0 5 0.5 10.5t0.5 11.5q8 61 52.5 114.5t104.5 72.5v1zM407 735l24 -34
q-24 -10 -45 -27t-35 -35q-8 -10 -12.5 -20.5t-4.5 -19.5q0 -4 2.5 -6t6.5 -3q35 -5 54 -25.5t19 -52.5q0 -35 -23 -58.5t-58 -23.5q-37 0 -61.5 27t-24.5 68q0 5 0.5 10.5t0.5 11.5q8 61 53 114.5t104 72.5v1z" />
    <glyph glyph-name="perthousand" unicode="&#x201d;" horiz-adv-x="481" 
d="M74 430l-24 34q25 11 44.5 26.5t32.5 30.5q10 12 15 23.5t5 21.5q0 4 -2 5.5t-7 2.5q-34 5 -53 26.5t-19 52.5q0 35 23 58t57 23q38 0 62 -26.5t24 -67.5q0 -65 -44 -124t-114 -87v1zM273 430l-24 34q25 11 44.5 26.5t32.5 30.5q10 12 15 23.5t5 21.5q0 4 -3 6t-12 3
q-31 6 -48.5 26.5t-17.5 51.5q0 35 23.5 58t57.5 23q37 0 61 -26.5t24 -67.5q0 -66 -44 -125t-114 -86v1z" />
    <glyph glyph-name="dotlessi" unicode="&#x201e;" horiz-adv-x="481" 
d="M74 -142l-24 34q8 5 17.5 11t19.5 12q22 15 41 35t19 46q0 4 -2 5.5t-7 2.5q-34 5 -53 26t-19 52q0 35 23 58.5t57 23.5q38 0 62 -27t24 -68q0 -73 -48 -127.5t-110 -83.5v0zM273 -142l-24 34q23 11 42.5 26.5t32.5 31.5q10 12 16 24t6 22q0 3 -1 4t-5 3q-2 0 -4 0.5
t-5 1.5q-31 6 -48.5 26.5t-17.5 50.5q0 35 23.5 58.5t57.5 23.5q37 0 61 -27t24 -68q0 -73 -48 -127.5t-110 -83.5v0z" />
    <glyph glyph-name="dagger" unicode="&#x2020;" horiz-adv-x="500" 
d="M261 475q19 1 34 9t28 17q4 3 7.5 5t6.5 5q12 7 24.5 12.5t26.5 5.5q23 0 38 -17t15 -44q0 -31 -14.5 -48t-40.5 -17q-16 0 -32.5 7t-34.5 15q-14 7 -28.5 13t-29.5 8q2 -20 6.5 -35.5t11.5 -30.5q9 -17 23.5 -34.5t36.5 -40.5q-32 -59 -45.5 -126t-16.5 -136
q-2 -31 -2.5 -61t-1.5 -60v-13v-14l-3 -119h-41l-3 119v14v14q-1 27 -1.5 55t-1.5 56q-4 71 -16.5 140.5t-46.5 130.5q22 22 36 39.5t23 34.5q8 15 12.5 31t7.5 36q-19 -3 -34 -8.5t-28 -11.5q-7 -4 -14.5 -8t-14.5 -7q-8 -3 -16.5 -5.5t-18.5 -2.5q-24 0 -39.5 17t-15.5 42
q0 31 14.5 49t38.5 18q13 0 25 -5t24 -12q4 -3 8 -5.5t9 -5.5q13 -9 28.5 -17t33.5 -10q-1 27 -9.5 50.5t-18.5 45.5q-2 5 -4.5 10t-4.5 10q-8 18 -13.5 36t-5.5 38q0 30 19.5 50t47.5 20q29 0 48 -20t19 -50q0 -19 -5 -35.5t-13 -33.5q-2 -5 -4.5 -11t-5.5 -11
q-10 -22 -18.5 -46t-9.5 -53v1z" />
    <glyph glyph-name="Uacute" unicode="&#x2021;" horiz-adv-x="500" 
d="M235 45q-9 -5 -22 -12.5t-27 -15.5l-7 -3.5l-7 -3.5q-18 -10 -35.5 -16.5t-27.5 -6.5q-25 0 -41 18t-16 46q0 26 16 43t41 17q17 0 29 -5t23 -11q3 -2 5.5 -3.5t5.5 -3.5q12 -7 27 -13.5t36 -8.5q-4 28 -14.5 46t-33.5 34q-5 3 -10.5 6.5t-11.5 7.5q15 12 25.5 22
t16.5 20q8 11 11 23.5t3 29.5t-3 29t-11 24q-6 9 -16.5 19t-25.5 22q8 5 15 9.5t12 8.5q20 16 29.5 33t13.5 43q-21 -2 -36 -8.5t-27 -13.5q-3 -2 -6.5 -4t-7.5 -4q-10 -6 -21.5 -10.5t-25.5 -4.5q-26 0 -42.5 16.5t-16.5 43.5q0 29 16 47.5t41 18.5q16 0 32.5 -8.5
t34.5 -19.5q14 -7 28.5 -14.5t30.5 -10.5q-1 28 -9.5 52t-18.5 45q-4 7 -7.5 14t-6.5 14q-6 15 -10.5 30.5t-4.5 31.5q0 34 20 55t52 21t52.5 -20.5t20.5 -52.5q0 -10 -1.5 -19.5t-4.5 -18.5q-4 -14 -10.5 -28.5t-12.5 -28.5q-10 -23 -18.5 -46t-10.5 -49q18 4 33 10.5
t28 13.5q20 11 35.5 20t29.5 9q26 0 41.5 -18.5t15.5 -47.5q0 -26 -15.5 -43t-41.5 -17q-17 0 -29 5t-23 11q-2 2 -5 3.5t-6 3.5q-12 7 -26.5 13.5t-36.5 8.5q5 -26 14.5 -43t29.5 -33q5 -4 12 -8.5t15 -9.5q-15 -12 -25.5 -22t-16.5 -19q-8 -12 -11 -24t-3 -29t3 -29.5
t11 -23.5q6 -10 16.5 -20t25.5 -22q-8 -5 -15 -9.5t-12 -8.5q-20 -16 -29.5 -33t-14.5 -43q21 2 36 8.5t27 13.5l6 4l6 4q11 6 23 10.5t27 4.5q26 0 42 -16.5t16 -43.5q0 -28 -15.5 -46t-40.5 -18q-13 0 -30.5 9t-37.5 20q-5 3 -10.5 6.5t-10.5 5.5q-10 5 -19.5 9.5
t-18.5 6.5q2 -30 10.5 -53.5t17.5 -44.5q5 -11 10 -21.5t9 -21.5q5 -11 7.5 -23t2.5 -24q0 -35 -20 -56.5t-52 -21.5q-31 0 -51.5 21.5t-20.5 53.5q0 18 5 35t12 34q2 6 5 13t7 14q10 22 18.5 45t9.5 50v1z" />
    <glyph glyph-name="glyph262" unicode="&#x2022;" horiz-adv-x="600" 
d="M198 286q0 39 28 67t68 28q41 0 69.5 -28t28.5 -68t-28.5 -68t-69.5 -28q-40 0 -68 28t-28 68v1z" />
    <glyph glyph-name="fraction" unicode="&#x2026;" horiz-adv-x="1000" 
d="M166 163q37 -1 63 -27t26 -63t-26 -62.5t-63 -25.5t-63 25.5t-26 62.5t26 63t63 26v1zM499 163q37 -1 63 -27t26 -63t-26 -62.5t-63 -25.5t-63 25.5t-26 62.5t26 63t63 26v1zM833 163q37 -1 63 -27t26 -63t-26 -62.5t-63 -25.5t-63 25.5t-26 62.5t26 63t63 26v1z" />
    <glyph glyph-name="circumflex" unicode="&#x2030;" horiz-adv-x="1000" 
d="M523 425q60 -1 99.5 -64t39.5 -159q0 -91 -39 -153t-96 -62q-61 0 -101 63.5t-40 162.5q0 90 39.5 150.5t97.5 60.5v1zM522 390q-28 -1 -39.5 -38t-11.5 -124q0 -113 11 -158.5t39 -45.5t39.5 45.5t11.5 155.5q0 88 -11.5 126t-38.5 38v1zM833 425q60 -1 99 -64t39 -161
q0 -89 -39.5 -151t-95.5 -62q-61 0 -100.5 63.5t-39.5 162.5q0 90 39.5 150.5t97.5 60.5v1zM831 390q-27 -1 -38.5 -38.5t-11.5 -126.5q0 -111 11 -156t39 -45q27 0 38.5 46t11.5 155q0 88 -11.5 126t-38.5 38v1zM105 0l434 711h53l-435 -711h-52v0zM167 710q60 -1 99 -63.5
t39 -158.5q0 -90 -39 -152t-96 -62q-61 0 -100.5 63.5t-39.5 162.5q0 89 39.5 149t97.5 60v1zM167 675q-28 -1 -40 -38.5t-12 -126.5q0 -110 12 -155.5t40 -45.5q29 0 41 45.5t12 155.5q0 88 -12 126t-41 38v1z" />
    <glyph glyph-name="Igrave" unicode="&#x2039;" horiz-adv-x="333" 
d="M167 254q9 -14 24.5 -35t31.5 -45l10 -16l10 -16q19 -30 32.5 -58t13.5 -46q0 -7 -3 -11.5t-8 -4.5q-7 0 -20 10t-33 32q-15 16 -27 29t-24 25l-2.5 2.5l-2.5 2.5q-16 16 -34 33.5t-44 42.5q-2 2 -10 9t-18 15q0 1 -1 1.5t-2 1.5q-10 9 -17.5 16.5t-7.5 10.5q0 2 2.5 5.5
t8.5 8.5q14 11 29 24t30 27l28.5 28.5l28.5 28.5q17 17 33 34t30 33q20 22 33 32t20 10q5 0 8 -4.5t3 -11.5q0 -16 -14 -45t-33 -61l-10 -16l-10 -16q-16 -24 -30.5 -44.5t-24.5 -32.5v1z" />
    <glyph glyph-name="Oacute" unicode="&#x203a;" horiz-adv-x="333" 
d="M166 254q-9 12 -24.5 33t-31.5 46q-5 8 -10 15.5t-10 15.5q-19 30 -32.5 58t-13.5 46q0 7 3.5 11.5t7.5 4.5q7 0 20 -10t33 -32q16 -17 35 -37t39 -41l12 -12l12 -12q22 -21 42.5 -40t38.5 -33q6 -5 8.5 -8.5t2.5 -5.5t-2.5 -5.5t-8.5 -8.5q-25 -20 -48 -42t-46 -45
l-8.5 -8.5l-9.5 -9.5q-7 -7 -20.5 -22t-28.5 -32l-6 -6l-6 -6q-18 -18 -34 -32t-25 -14q-4 0 -7.5 4.5t-3.5 11.5q0 16 13.5 45t32.5 60q5 8 10 16.5t11 15.5q16 25 31 46t24 32v1z" />
    <glyph glyph-name="exclamdbl" unicode="&#x203c;" 
 />
    <glyph glyph-name="uni207F" unicode="&#x207f;" 
 />
    <glyph glyph-name="franc" unicode="&#x20a3;" 
 />
    <glyph glyph-name="peseta" unicode="&#x20a7;" 
 />
    <glyph glyph-name="trademark" unicode="&#x2122;" horiz-adv-x="1000" 
d="M127 289v33q41 -1 51.5 5t10.5 30v320q-4 -1 -7.5 -1t-6.5 1h-2h-2h-3.5h-3.5q-52 0 -70 -14.5t-18 -55.5l-32 1v114h374v-114h-32q0 40 -18.5 54.5t-70.5 14.5h-3.5h-3.5h-2h-2q-2 -1 -5.5 -1h-8.5v-318q0 -25 11 -31t51 -6v-32h-207v0zM956 322v-33h-181v33q31 0 40 7
t9 31v296l-135 -367h-12l-144 367v-293q0 -26 8.5 -33.5t39.5 -8.5v-32h-132v33h9q27 -1 33.5 9t6.5 34v301q0 15 -4.5 20t-18.5 5l-18 1v30h143l107 -275l104 275h145v-30h-15q-14 -1 -24 -5.5t-10 -21.5v-303q0 -25 8 -32t41 -9v1z" />
    <glyph glyph-name="arrowleft" unicode="&#x2190;" 
 />
    <glyph glyph-name="arrowup" unicode="&#x2191;" 
 />
    <glyph glyph-name="glyph257" unicode="&#x2192;" horiz-adv-x="500" 
 />
    <glyph glyph-name="arrowdown" unicode="&#x2193;" 
 />
    <glyph glyph-name="arrowboth" unicode="&#x2194;" 
 />
    <glyph glyph-name="arrowupdn" unicode="&#x2195;" 
 />
    <glyph glyph-name="arrowupdnbse" unicode="&#x21a8;" 
 />
    <glyph glyph-name="questiondown" unicode="&#x2202;" 
 />
    <glyph glyph-name="quoteright" unicode="&#x2206;" 
 />
    <glyph glyph-name="florin" unicode="&#x220f;" 
 />
    <glyph glyph-name="minus" unicode="&#x2212;" 
 />
    <glyph glyph-name="Icircumflex" unicode="&#x2215;" horiz-adv-x="167" 
d="M-157 0l434 711h53l-434 -711h-53v0z" />
    <glyph glyph-name="Ucircumflex" unicode="&#x2219;" horiz-adv-x="278" 
d="M139 324q37 -1 63 -27t26 -63t-26 -63t-63 -26t-63 26t-26 63t26 63t63 26v1z" />
    <glyph glyph-name="quotedblleft" unicode="&#x221a;" 
 />
    <glyph glyph-name="yen" unicode="&#x221e;" 
 />
    <glyph glyph-name="orthogonal" unicode="&#x221f;" 
 />
    <glyph glyph-name="intersection" unicode="&#x2229;" 
 />
    <glyph glyph-name="guillemotright" unicode="&#x222b;" 
 />
    <glyph glyph-name="quoteleft" unicode="&#x2248;" 
 />
    <glyph glyph-name="AE" unicode="&#x2260;" 
 />
    <glyph glyph-name="equivalence" unicode="&#x2261;" 
 />
    <glyph glyph-name="ordfeminine" unicode="&#x2264;" 
 />
    <glyph glyph-name="ordmasculine" unicode="&#x2265;" 
 />
    <glyph glyph-name="glyph258" unicode="&#x2302;" 
 />
    <glyph glyph-name="revlogicalnot" unicode="&#x2310;" 
 />
    <glyph glyph-name="integraltp" unicode="&#x2320;" 
 />
    <glyph glyph-name="integralbt" unicode="&#x2321;" 
 />
    <glyph glyph-name="SF100000" unicode="&#x2500;" 
 />
    <glyph glyph-name="SF110000" unicode="&#x2502;" 
 />
    <glyph glyph-name="SF010000" unicode="&#x250c;" 
 />
    <glyph glyph-name="SF030000" unicode="&#x2510;" 
 />
    <glyph glyph-name="SF020000" unicode="&#x2514;" 
 />
    <glyph glyph-name="SF040000" unicode="&#x2518;" 
 />
    <glyph glyph-name="SF080000" unicode="&#x251c;" 
 />
    <glyph glyph-name="SF090000" unicode="&#x2524;" 
 />
    <glyph glyph-name="SF060000" unicode="&#x252c;" 
 />
    <glyph glyph-name="SF070000" unicode="&#x2534;" 
 />
    <glyph glyph-name="SF050000" unicode="&#x253c;" 
 />
    <glyph glyph-name="SF430000" unicode="&#x2550;" 
 />
    <glyph glyph-name="SF240000" unicode="&#x2551;" 
 />
    <glyph glyph-name="SF510000" unicode="&#x2552;" 
 />
    <glyph glyph-name="SF520000" unicode="&#x2553;" 
 />
    <glyph glyph-name="SF390000" unicode="&#x2554;" 
 />
    <glyph glyph-name="SF220000" unicode="&#x2555;" 
 />
    <glyph glyph-name="SF210000" unicode="&#x2556;" 
 />
    <glyph glyph-name="SF250000" unicode="&#x2557;" 
 />
    <glyph glyph-name="SF500000" unicode="&#x2558;" 
 />
    <glyph glyph-name="SF490000" unicode="&#x2559;" 
 />
    <glyph glyph-name="SF380000" unicode="&#x255a;" 
 />
    <glyph glyph-name="SF280000" unicode="&#x255b;" 
 />
    <glyph glyph-name="SF270000" unicode="&#x255c;" 
 />
    <glyph glyph-name="SF260000" unicode="&#x255d;" 
 />
    <glyph glyph-name="SF360000" unicode="&#x255e;" 
 />
    <glyph glyph-name="SF370000" unicode="&#x255f;" 
 />
    <glyph glyph-name="SF420000" unicode="&#x2560;" 
 />
    <glyph glyph-name="SF190000" unicode="&#x2561;" 
 />
    <glyph glyph-name="SF200000" unicode="&#x2562;" 
 />
    <glyph glyph-name="SF230000" unicode="&#x2563;" 
 />
    <glyph glyph-name="SF470000" unicode="&#x2564;" 
 />
    <glyph glyph-name="SF480000" unicode="&#x2565;" 
 />
    <glyph glyph-name="SF410000" unicode="&#x2566;" 
 />
    <glyph glyph-name="SF450000" unicode="&#x2567;" 
 />
    <glyph glyph-name="SF460000" unicode="&#x2568;" 
 />
    <glyph glyph-name="SF400000" unicode="&#x2569;" 
 />
    <glyph glyph-name="SF540000" unicode="&#x256a;" 
 />
    <glyph glyph-name="SF530000" unicode="&#x256b;" 
 />
    <glyph glyph-name="SF440000" unicode="&#x256c;" 
 />
    <glyph glyph-name="upblock" unicode="&#x2580;" 
 />
    <glyph glyph-name="dnblock" unicode="&#x2584;" 
 />
    <glyph glyph-name="block" unicode="&#x2588;" 
 />
    <glyph glyph-name="lfblock" unicode="&#x258c;" 
 />
    <glyph glyph-name="rtblock" unicode="&#x2590;" 
 />
    <glyph glyph-name="ltshade" unicode="&#x2591;" 
 />
    <glyph glyph-name="shade" unicode="&#x2592;" 
 />
    <glyph glyph-name="dkshade" unicode="&#x2593;" 
 />
    <glyph glyph-name="glyph261" unicode="&#x25a0;" horiz-adv-x="500" 
 />
    <glyph glyph-name="filledrect" unicode="&#x25ac;" 
 />
    <glyph glyph-name="triagup" unicode="&#x25b2;" 
 />
    <glyph glyph-name="triagrt" unicode="&#x25ba;" 
 />
    <glyph glyph-name="triagdn" unicode="&#x25bc;" 
 />
    <glyph glyph-name="triaglf" unicode="&#x25c4;" 
 />
    <glyph glyph-name="Edieresis" unicode="&#x25ca;" 
 />
    <glyph glyph-name="circle" unicode="&#x25cb;" 
 />
    <glyph glyph-name="invbullet" unicode="&#x25d8;" 
 />
    <glyph glyph-name="invcircle" unicode="&#x25d9;" 
 />
    <glyph glyph-name="smileface" unicode="&#x263a;" 
 />
    <glyph glyph-name="invsmileface" unicode="&#x263b;" 
 />
    <glyph glyph-name="sun" unicode="&#x263c;" 
 />
    <glyph glyph-name="female" unicode="&#x2640;" 
 />
    <glyph glyph-name="male" unicode="&#x2642;" 
 />
    <glyph glyph-name="spade" unicode="&#x2660;" 
 />
    <glyph glyph-name="club" unicode="&#x2663;" 
 />
    <glyph glyph-name="heart" unicode="&#x2665;" 
 />
    <glyph glyph-name="diamond" unicode="&#x2666;" 
 />
    <glyph glyph-name="musicalnote" unicode="&#x266a;" 
 />
    <glyph glyph-name="musicalnotedbl" unicode="&#x266b;" 
 />
    <glyph glyph-name="Scaron" unicode="&#xf000;" 
 />
    <glyph glyph-name="Ocircumflex" unicode="&#xf001;" horiz-adv-x="685" 
d="M380 477q56 -1 112.5 3t111.5 9v-345q0 -71 10.5 -87t54.5 -16l15 1v-42h-300v42h12q47 -1 57.5 15t10.5 86v233q0 41 -10 49.5t-57 8.5l-150 1v-291q0 -71 12 -87t80 -16v-41h-312v42h16q44 -1 54 15t10 86v292h-76v42h76v36q0 115 70.5 168t176.5 53q118 0 182 -32
t64 -91q0 -34 -20 -55.5t-52 -21.5q-30 0 -51 22.5t-21 54.5q0 4 0.5 8t1.5 8q3 12 8.5 23t12.5 16q3 2 4 2.5t2 1.5v1.5v0.5q0 2 -3.5 4.5t-10.5 4.5q-20 8 -46 11.5t-53 3.5q-70 0 -97.5 -27.5t-27.5 -98.5v-93h133v0z" />
    <glyph glyph-name="Ograve" unicode="&#xf002;" horiz-adv-x="685" 
d="M461 722q9 0 17.5 0.5t17.5 1.5q27 2 53 4.5t52 5.5v-590q0 -71 11 -87t58 -16l11 1v-42h-300v42h13q46 -1 56.5 15.5t10.5 85.5v404q-23 8 -37 27.5t-14 42.5v4.5t1 4.5q1 7 3.5 13.5t5.5 12.5q0 1 0.5 1.5l1.5 1.5q1 2 2.5 4t2.5 4q2 3 4.5 5t3.5 3l4.5 3t2.5 1v1.5
v0.5q0 1 -0.5 1.5t-0.5 1.5q-1 0 -2 0.5l-3 1.5l-2 1t-6 2q-8 3 -20 5.5t-25 4.5q-6 0 -11.5 0.5t-10.5 0.5q-63 0 -90 -29.5t-27 -97.5v-92h120v-42h-120v-291q0 -71 12 -87t80 -16v-41h-312v42h16q44 -1 54 15t10 86v292h-76v42h76v35q0 112 70 167t175 55q29 0 56.5 -2.5
t55.5 -10.5v1z" />
    <glyph glyph-name="degree" horiz-adv-x="508" 
d="M255 735q75 -1 128 -54.5t53 -129.5t-53 -129.5t-129 -53.5q-75 0 -128.5 53.5t-53.5 128.5q0 77 53.5 130.5t129.5 53.5v1zM253 653q-40 -1 -70.5 -32t-30.5 -74t30.5 -74.5t71.5 -31.5t71.5 31t30.5 74q0 44 -30 75t-73 31v1z" />
    <glyph glyph-name="bullet" horiz-adv-x="600" 
d="M198 286q0 39 28 67t68 28q41 0 69.5 -28t28.5 -68t-28.5 -68t-69.5 -28q-40 0 -68 28t-28 68v1z" />
    <glyph glyph-name="daggerdbl" horiz-adv-x="500" 
d="M500 223h-500v118h500v-118v0z" />
    </font>
</defs>
</svg>
